<?xml version="1.0" encoding="UTF-8" standalone="no"?>
<!DOCTYPE svg PUBLIC "-//W3C//DTD SVG 1.1//EN"
 "http://www.w3.org/Graphics/SVG/1.1/DTD/svg11.dtd">
<!-- Generated by graphviz version 2.38.0 (20140413.2041)
 -->
<!-- Title: %3 Pages: 1 -->
<svg width="1443pt" height="476pt"
 viewBox="0.00 0.00 1442.50 476.00" xmlns="http://www.w3.org/2000/svg" xmlns:xlink="http://www.w3.org/1999/xlink">
<g id="graph0" class="graph" transform="scale(1 1) rotate(0) translate(4 472)">
<title>%3</title>
<polygon fill="white" stroke="none" points="-4,4 -4,-472 1438.5,-472 1438.5,4 -4,4"/>
<!-- FASTA -->
<g id="node1" class="node"><title>FASTA</title>
<polygon fill="red" stroke="black" points="803,-396 744,-396 744,-360 803,-360 803,-396"/>
<text text-anchor="middle" x="773.5" y="-374.3" font-family="Times,serif" font-size="14.00">FASTA</text>
</g>
<!-- TWOBIT -->
<g id="node2" class="node"><title>TWOBIT</title>
<polygon fill="white" stroke="black" points="839.5,-324 769.5,-324 769.5,-288 839.5,-288 839.5,-324"/>
<text text-anchor="middle" x="804.5" y="-302.3" font-family="Times,serif" font-size="14.00">TWOBIT</text>
</g>
<!-- FASTA&#45;&gt;TWOBIT -->
<g id="edge1" class="edge"><title>FASTA&#45;&gt;TWOBIT</title>
<path fill="none" stroke="black" d="M775.25,-359.7C777.95,-351.73 782,-342.1 786.31,-333.26"/>
<polygon fill="black" stroke="black" points="789.561,-334.592 791.03,-324.1 783.338,-331.386 789.561,-334.592"/>
</g>
<!-- PHYLIP -->
<g id="node3" class="node"><title>PHYLIP</title>
<polygon fill="orange" stroke="black" points="197.5,-324 133.5,-324 133.5,-288 197.5,-288 197.5,-324"/>
<text text-anchor="middle" x="165.5" y="-302.3" font-family="Times,serif" font-size="14.00">PHYLIP</text>
</g>
<!-- FASTA&#45;&gt;PHYLIP -->
<g id="edge2" class="edge"><title>FASTA&#45;&gt;PHYLIP</title>
<path fill="none" stroke="black" d="M743.91,-374.55C666.45,-367.49 452.58,-346.24 275.5,-324 252.91,-321.16 227.97,-317.66 207.48,-314.57"/>
<polygon fill="black" stroke="black" points="207.915,-311.096 197.5,-313.04 206.854,-318.015 207.915,-311.096"/>
</g>
<!-- CLUSTAL -->
<g id="node4" class="node"><title>CLUSTAL</title>
<polygon fill="yellow" stroke="black" points="280,-252 203,-252 203,-216 280,-216 280,-252"/>
<text text-anchor="middle" x="241.5" y="-230.3" font-family="Times,serif" font-size="14.00">CLUSTAL</text>
</g>
<!-- FASTA&#45;&gt;CLUSTAL -->
<g id="edge3" class="edge"><title>FASTA&#45;&gt;CLUSTAL</title>
<path fill="none" stroke="black" d="M743.66,-374.73C685.52,-369.43 554.4,-354.28 448.5,-324 387.18,-306.47 319.69,-276.89 278.84,-256.68"/>
<polygon fill="black" stroke="black" points="280.298,-253.496 269.79,-252.14 277.159,-259.752 280.298,-253.496"/>
</g>
<!-- GENBANK -->
<g id="node5" class="node"><title>GENBANK</title>
<polygon fill="yellow" stroke="black" points="712,-324 629,-324 629,-288 712,-288 712,-324"/>
<text text-anchor="middle" x="670.5" y="-302.3" font-family="Times,serif" font-size="14.00">GENBANK</text>
</g>
<!-- FASTA&#45;&gt;GENBANK -->
<g id="edge4" class="edge"><title>FASTA&#45;&gt;GENBANK</title>
<path fill="none" stroke="black" d="M743.81,-360.76C729.4,-351.67 712.29,-340.17 698.16,-330.14"/>
<polygon fill="black" stroke="black" points="699.96,-327.123 689.8,-324.12 695.87,-332.804 699.96,-327.123"/>
</g>
<!-- FASTQ -->
<g id="node6" class="node"><title>FASTQ</title>
<polygon fill="orange" stroke="black" points="1044,-324 985,-324 985,-288 1044,-288 1044,-324"/>
<text text-anchor="middle" x="1014.5" y="-302.3" font-family="Times,serif" font-size="14.00">FASTQ</text>
</g>
<!-- FASTA&#45;&gt;FASTQ -->
<g id="edge5" class="edge"><title>FASTA&#45;&gt;FASTQ</title>
<path fill="none" stroke="black" d="M803.17,-368.46C840.57,-358.82 906.12,-342.09 961.5,-324 965.94,-322.55 970.58,-320.9 975.22,-319.22"/>
<polygon fill="black" stroke="black" points="976.468,-322.49 984.65,-315.76 974.056,-315.919 976.468,-322.49"/>
</g>
<!-- FASTA_QUAL_and_FASTQ -->
<g id="node7" class="node"><title>FASTA_QUAL_and_FASTQ</title>
<ellipse fill="none" stroke="black" cx="1035.5" cy="-90" rx="3.5" ry="3.5"/>
</g>
<!-- FASTA&#45;&gt;FASTA_QUAL_and_FASTQ -->
<g id="edge6" class="edge"><title>FASTA&#45;&gt;FASTA_QUAL_and_FASTQ</title>
<path fill="none" stroke="black" d="M803.2,-365.75C824.24,-356.74 852.21,-342.54 872.5,-324 914.91,-285.25 910.69,-263.15 943.5,-216 973.52,-172.86 1011.2,-122.9 1027.4,-101.55"/>
<polygon fill="black" stroke="black" points="1030.38,-103.411 1033.7,-93.349 1024.83,-99.147 1030.38,-103.411"/>
</g>
<!-- BED -->
<g id="node8" class="node"><title>BED</title>
<polygon fill="yellow" stroke="black" points="1194.5,-108 1140.5,-108 1140.5,-72 1194.5,-72 1194.5,-108"/>
<text text-anchor="middle" x="1167.5" y="-86.3" font-family="Times,serif" font-size="14.00">BED</text>
</g>
<!-- FASTA&#45;&gt;BED -->
<g id="edge7" class="edge"><title>FASTA&#45;&gt;BED</title>
<path fill="none" stroke="black" d="M803.34,-373.61C866.09,-366.12 1009.4,-346.97 1052.5,-324 1131.8,-281.69 1160.4,-263.16 1194.5,-180 1203,-159.26 1194.3,-134.85 1184.6,-116.84"/>
<polygon fill="black" stroke="black" points="1187.59,-115.018 1179.6,-108.06 1181.51,-118.482 1187.59,-115.018"/>
</g>
<!-- NEXUS -->
<g id="node9" class="node"><title>NEXUS</title>
<polygon fill="orange" stroke="black" points="188.5,-180 126.5,-180 126.5,-144 188.5,-144 188.5,-180"/>
<text text-anchor="middle" x="157.5" y="-158.3" font-family="Times,serif" font-size="14.00">NEXUS</text>
</g>
<!-- FASTA&#45;&gt;NEXUS -->
<g id="edge8" class="edge"><title>FASTA&#45;&gt;NEXUS</title>
<path fill="none" stroke="black" d="M743.94,-370.26C707.15,-360.54 643.3,-341.79 589.5,-324 412.96,-265.61 366.49,-249.64 197.53,-183.53"/>
<polygon fill="black" stroke="black" points="198.668,-180.217 188.08,-179.83 196.116,-186.735 198.668,-180.217"/>
</g>
<!-- TWOBIT&#45;&gt;FASTA -->
<g id="edge9" class="edge"><title>TWOBIT&#45;&gt;FASTA</title>
<path fill="none" stroke="black" d="M802.82,-324.1C800.11,-332.13 796.01,-341.87 791.66,-350.8"/>
<polygon fill="black" stroke="black" points="788.544,-349.207 787.08,-359.7 794.768,-352.41 788.544,-349.207"/>
</g>
<!-- PHYLIP&#45;&gt;FASTA -->
<g id="edge10" class="edge"><title>PHYLIP&#45;&gt;FASTA</title>
<path fill="none" stroke="black" d="M197.96,-310.9C224.07,-314.52 261.2,-319.94 293.5,-324 456.85,-344.51 651.51,-364.19 733.83,-372.66"/>
<polygon fill="black" stroke="black" points="733.686,-376.163 743.99,-373.7 734.398,-369.2 733.686,-376.163"/>
</g>
<!-- PHYLIP&#45;&gt;CLUSTAL -->
<g id="edge11" class="edge"><title>PHYLIP&#45;&gt;CLUSTAL</title>
<path fill="none" stroke="black" d="M178.37,-287.7C186.95,-278.97 198.42,-268.24 209.28,-258.75"/>
<polygon fill="black" stroke="black" points="211.72,-261.268 217.03,-252.1 207.162,-255.956 211.72,-261.268"/>
</g>
<!-- PHYLIP&#45;&gt;NEXUS -->
<g id="edge12" class="edge"><title>PHYLIP&#45;&gt;NEXUS</title>
<path fill="none" stroke="black" d="M159.95,-287.87C156.03,-263.67 153.23,-219.21 153.58,-190.39"/>
<polygon fill="black" stroke="black" points="157.084,-190.289 153.88,-180.19 150.087,-190.083 157.084,-190.289"/>
</g>
<!-- STOCKHOLM -->
<g id="node10" class="node"><title>STOCKHOLM</title>
<polygon fill="white" stroke="black" points="101,-180 0,-180 0,-144 101,-144 101,-180"/>
<text text-anchor="middle" x="50.5" y="-158.3" font-family="Times,serif" font-size="14.00">STOCKHOLM</text>
</g>
<!-- PHYLIP&#45;&gt;STOCKHOLM -->
<g id="edge13" class="edge"><title>PHYLIP&#45;&gt;STOCKHOLM</title>
<path fill="none" stroke="black" d="M133.25,-298.94C107.35,-291.86 72.777,-277.69 54.5,-252 41.805,-234.15 39.118,-209.15 40.764,-190.18"/>
<polygon fill="black" stroke="black" points="44.2566,-190.471 42.139,-180.09 37.3207,-189.526 44.2566,-190.471"/>
</g>
<!-- XMFA -->
<g id="node11" class="node"><title>XMFA</title>
<polygon fill="white" stroke="black" points="128.5,-252 72.5,-252 72.5,-216 128.5,-216 128.5,-252"/>
<text text-anchor="middle" x="100.5" y="-230.3" font-family="Times,serif" font-size="14.00">XMFA</text>
</g>
<!-- PHYLIP&#45;&gt;XMFA -->
<g id="edge14" class="edge"><title>PHYLIP&#45;&gt;XMFA</title>
<path fill="none" stroke="black" d="M143.52,-287.7C134.86,-279.3 125.16,-269.07 117.09,-259.86"/>
<polygon fill="black" stroke="black" points="119.635,-257.45 110.49,-252.1 114.303,-261.985 119.635,-257.45"/>
</g>
<!-- CLUSTAL&#45;&gt;FASTA -->
<g id="edge15" class="edge"><title>CLUSTAL&#45;&gt;FASTA</title>
<path fill="none" stroke="black" d="M280.23,-251.09C324.54,-271.04 399.23,-304.77 466.5,-324 560.6,-350.91 674.61,-365.86 733.8,-372.59"/>
<polygon fill="black" stroke="black" points="733.524,-376.081 743.85,-373.71 734.299,-369.124 733.524,-376.081"/>
</g>
<!-- CLUSTAL&#45;&gt;PHYLIP -->
<g id="edge16" class="edge"><title>CLUSTAL&#45;&gt;PHYLIP</title>
<path fill="none" stroke="black" d="M228.82,-252.1C220.29,-260.8 208.83,-271.52 197.96,-281.03"/>
<polygon fill="black" stroke="black" points="195.502,-278.527 190.2,-287.7 200.065,-283.836 195.502,-278.527"/>
</g>
<!-- CLUSTAL&#45;&gt;NEXUS -->
<g id="edge17" class="edge"><title>CLUSTAL&#45;&gt;NEXUS</title>
<path fill="none" stroke="black" d="M214.82,-215.7C203.55,-207.05 190.65,-196.45 179.89,-187.03"/>
<polygon fill="black" stroke="black" points="181.92,-184.15 172.13,-180.1 177.257,-189.372 181.92,-184.15"/>
</g>
<!-- CLUSTAL&#45;&gt;STOCKHOLM -->
<g id="edge18" class="edge"><title>CLUSTAL&#45;&gt;STOCKHOLM</title>
<path fill="none" stroke="black" d="M202.96,-220.81C173.49,-210.58 132.73,-195.76 100.72,-183.69"/>
<polygon fill="black" stroke="black" points="101.683,-180.312 91.092,-180.03 99.1957,-186.855 101.683,-180.312"/>
</g>
<!-- GENBANK&#45;&gt;FASTA -->
<g id="edge19" class="edge"><title>GENBANK&#45;&gt;FASTA</title>
<path fill="none" stroke="black" d="M701.56,-324.1C715.54,-332.97 731.85,-343.94 745.46,-353.59"/>
<polygon fill="black" stroke="black" points="743.797,-356.705 753.96,-359.7 747.883,-351.021 743.797,-356.705"/>
</g>
<!-- EMBL -->
<g id="node12" class="node"><title>EMBL</title>
<polygon fill="white" stroke="black" points="625,-252 570,-252 570,-216 625,-216 625,-252"/>
<text text-anchor="middle" x="597.5" y="-230.3" font-family="Times,serif" font-size="14.00">EMBL</text>
</g>
<!-- GENBANK&#45;&gt;EMBL -->
<g id="edge20" class="edge"><title>GENBANK&#45;&gt;EMBL</title>
<path fill="none" stroke="black" d="M646.54,-287.7C636.73,-279.14 625.62,-268.66 616.38,-259.3"/>
<polygon fill="black" stroke="black" points="618.9,-256.871 609.44,-252.1 613.86,-261.729 618.9,-256.871"/>
</g>
<!-- GFF3 -->
<g id="node13" class="node"><title>GFF3</title>
<polygon fill="white" stroke="black" points="697.5,-252 643.5,-252 643.5,-216 697.5,-216 697.5,-252"/>
<text text-anchor="middle" x="670.5" y="-230.3" font-family="Times,serif" font-size="14.00">GFF3</text>
</g>
<!-- GENBANK&#45;&gt;GFF3 -->
<g id="edge21" class="edge"><title>GENBANK&#45;&gt;GFF3</title>
<path fill="none" stroke="black" d="M670.5,-287.7C670.5,-279.98 670.5,-270.71 670.5,-262.11"/>
<polygon fill="black" stroke="black" points="674,-262.1 670.5,-252.1 667,-262.1 674,-262.1"/>
</g>
<!-- FASTQ&#45;&gt;FASTA -->
<g id="edge22" class="edge"><title>FASTQ&#45;&gt;FASTA</title>
<path fill="none" stroke="black" d="M984.71,-322.24C982.96,-322.85 981.21,-323.44 979.5,-324 922.58,-342.59 854.93,-359.74 812.94,-369.25"/>
<polygon fill="black" stroke="black" points="812.101,-365.851 803.1,-371.44 813.622,-372.684 812.101,-365.851"/>
</g>
<!-- QUAL -->
<g id="node14" class="node"><title>QUAL</title>
<polygon fill="white" stroke="black" points="1062.5,-180 1008.5,-180 1008.5,-144 1062.5,-144 1062.5,-180"/>
<text text-anchor="middle" x="1035.5" y="-158.3" font-family="Times,serif" font-size="14.00">QUAL</text>
</g>
<!-- FASTQ&#45;&gt;QUAL -->
<g id="edge23" class="edge"><title>FASTQ&#45;&gt;QUAL</title>
<path fill="none" stroke="black" d="M1017,-287.87C1020.6,-263.67 1027.2,-219.21 1031.4,-190.39"/>
<polygon fill="black" stroke="black" points="1034.91,-190.612 1033,-180.19 1027.99,-189.527 1034.91,-190.612"/>
</g>
<!-- BAM -->
<g id="node15" class="node"><title>BAM</title>
<polygon fill="orange" stroke="black" points="769.5,-252 715.5,-252 715.5,-216 769.5,-216 769.5,-252"/>
<text text-anchor="middle" x="742.5" y="-230.3" font-family="Times,serif" font-size="14.00">BAM</text>
</g>
<!-- FASTQ&#45;&gt;BAM -->
<g id="edge24" class="edge"><title>FASTQ&#45;&gt;BAM</title>
<path fill="none" stroke="black" d="M984.85,-299.77C940.87,-290.84 856.74,-271.73 786.5,-252 784.18,-251.35 781.82,-250.66 779.44,-249.96"/>
<polygon fill="black" stroke="black" points="780.297,-246.562 769.71,-246.97 778.241,-253.253 780.297,-246.562"/>
</g>
<!-- FASTQ_and_FASTA_QUAL -->
<g id="node16" class="node"><title>FASTQ_and_FASTA_QUAL</title>
<ellipse fill="none" stroke="black" cx="956.5" cy="-234" rx="3.5" ry="3.5"/>
</g>
<!-- FASTQ&#45;&gt;FASTQ_and_FASTA_QUAL -->
<g id="edge25" class="edge"><title>FASTQ&#45;&gt;FASTQ_and_FASTA_QUAL</title>
<path fill="none" stroke="black" d="M1000.2,-287.7C989.07,-274.31 974.09,-256.22 964.87,-245.1"/>
<polygon fill="black" stroke="black" points="967.378,-242.642 958.3,-237.18 961.991,-247.111 967.378,-242.642"/>
</g>
<!-- FASTA_QUAL_and_FASTQ&#45;&gt;FASTQ -->
<g id="edge26" class="edge"><title>FASTA_QUAL_and_FASTQ&#45;&gt;FASTQ</title>
<path fill="none" stroke="black" d="M1037.7,-93.161C1044.4,-99.905 1064.6,-121.46 1071.5,-144 1076.2,-159.29 1074.8,-164.35 1071.5,-180 1063.8,-216.2 1044.5,-254.45 1030.5,-278.95"/>
<polygon fill="black" stroke="black" points="1027.44,-277.244 1025.4,-287.64 1033.48,-280.787 1027.44,-277.244"/>
</g>
<!-- WIGGLE -->
<g id="node17" class="node"><title>WIGGLE</title>
<polygon fill="yellow" stroke="black" points="1148,-36 1077,-36 1077,-0 1148,-0 1148,-36"/>
<text text-anchor="middle" x="1112.5" y="-14.3" font-family="Times,serif" font-size="14.00">WIGGLE</text>
</g>
<!-- BED&#45;&gt;WIGGLE -->
<g id="edge27" class="edge"><title>BED&#45;&gt;WIGGLE</title>
<path fill="none" stroke="black" d="M1153.9,-71.697C1147.4,-63.389 1139.4,-53.277 1132.3,-44.141"/>
<polygon fill="black" stroke="black" points="1134.87,-41.7465 1125.9,-36.104 1129.39,-46.107 1134.87,-41.7465"/>
</g>
<!-- NEXUS&#45;&gt;FASTA -->
<g id="edge28" class="edge"><title>NEXUS&#45;&gt;FASTA</title>
<path fill="none" stroke="black" d="M188.54,-172.76C194.56,-175.19 200.74,-177.74 206.5,-180 382.82,-249.06 427.71,-264.54 607.5,-324 650.52,-338.23 699.97,-353.07 733.75,-363.41"/>
<polygon fill="black" stroke="black" points="733.113,-366.876 743.7,-366.47 735.171,-360.185 733.113,-366.876"/>
</g>
<!-- NEXUS&#45;&gt;PHYLIP -->
<g id="edge29" class="edge"><title>NEXUS&#45;&gt;PHYLIP</title>
<path fill="none" stroke="black" d="M163.06,-180.19C166.98,-204.42 169.77,-248.89 169.41,-277.68"/>
<polygon fill="black" stroke="black" points="165.906,-277.774 169.12,-287.87 172.903,-277.974 165.906,-277.774"/>
</g>
<!-- NEXUS&#45;&gt;CLUSTAL -->
<g id="edge30" class="edge"><title>NEXUS&#45;&gt;CLUSTAL</title>
<path fill="none" stroke="black" d="M183.92,-180.1C195.27,-188.8 208.32,-199.52 219.18,-209.03"/>
<polygon fill="black" stroke="black" points="216.86,-211.65 226.65,-215.7 221.522,-206.429 216.86,-211.65"/>
</g>
<!-- NEWICK -->
<g id="node18" class="node"><title>NEWICK</title>
<polygon fill="white" stroke="black" points="180,-36 109,-36 109,-0 180,-0 180,-36"/>
<text text-anchor="middle" x="144.5" y="-14.3" font-family="Times,serif" font-size="14.00">NEWICK</text>
</g>
<!-- NEXUS&#45;&gt;NEWICK -->
<g id="edge31" class="edge"><title>NEXUS&#45;&gt;NEWICK</title>
<path fill="none" stroke="black" d="M138.11,-143.67C131.13,-133.69 124.54,-120.65 121.5,-108 116.56,-87.403 120.76,-63.692 127.15,-45.926"/>
<polygon fill="black" stroke="black" points="130.573,-46.8012 131.11,-36.22 124.092,-44.1568 130.573,-46.8012"/>
</g>
<!-- PHYLOXML -->
<g id="node19" class="node"><title>PHYLOXML</title>
<polygon fill="white" stroke="black" points="231.5,-108 139.5,-108 139.5,-72 231.5,-72 231.5,-108"/>
<text text-anchor="middle" x="185.5" y="-86.3" font-family="Times,serif" font-size="14.00">PHYLOXML</text>
</g>
<!-- NEXUS&#45;&gt;PHYLOXML -->
<g id="edge32" class="edge"><title>NEXUS&#45;&gt;PHYLOXML</title>
<path fill="none" stroke="black" d="M158.51,-143.7C160.87,-135.73 164.51,-126.1 168.43,-117.26"/>
<polygon fill="black" stroke="black" points="171.651,-118.637 172.76,-108.1 165.322,-115.645 171.651,-118.637"/>
</g>
<!-- STOCKHOLM&#45;&gt;PHYLIP -->
<g id="edge33" class="edge"><title>STOCKHOLM&#45;&gt;PHYLIP</title>
<path fill="none" stroke="black" d="M55.142,-180.09C56.457,-199.35 57.384,-230.75 72.5,-252 85.109,-269.72 105.47,-281.96 124.01,-290.18"/>
<polygon fill="black" stroke="black" points="122.902,-293.51 133.48,-294.11 125.585,-287.044 122.902,-293.51"/>
</g>
<!-- STOCKHOLM&#45;&gt;CLUSTAL -->
<g id="edge34" class="edge"><title>STOCKHOLM&#45;&gt;CLUSTAL</title>
<path fill="none" stroke="black" d="M101.15,-179.43C129.59,-189.45 164.83,-202.32 192.92,-212.94"/>
<polygon fill="black" stroke="black" points="191.949,-216.315 202.54,-216.59 194.432,-209.77 191.949,-216.315"/>
</g>
<!-- XMFA&#45;&gt;PHYLIP -->
<g id="edge35" class="edge"><title>XMFA&#45;&gt;PHYLIP</title>
<path fill="none" stroke="black" d="M122.28,-252.1C130.92,-260.47 140.62,-270.69 148.71,-279.92"/>
<polygon fill="black" stroke="black" points="146.196,-282.366 155.35,-287.7 151.52,-277.821 146.196,-282.366"/>
</g>
<!-- EMBL&#45;&gt;FASTA -->
<g id="edge36" class="edge"><title>EMBL&#45;&gt;FASTA</title>
<path fill="none" stroke="black" d="M597.11,-252.33C597.62,-272.11 601.45,-304.27 619.5,-324 648.81,-356.05 698.4,-368.72 733.37,-373.73"/>
<polygon fill="black" stroke="black" points="733.347,-377.255 743.71,-375.05 734.234,-370.312 733.347,-377.255"/>
</g>
<!-- EMBL&#45;&gt;GENBANK -->
<g id="edge37" class="edge"><title>EMBL&#45;&gt;GENBANK</title>
<path fill="none" stroke="black" d="M621.23,-252.1C631.02,-260.64 642.14,-271.11 651.4,-280.48"/>
<polygon fill="black" stroke="black" points="648.906,-282.936 658.37,-287.7 653.943,-278.075 648.906,-282.936"/>
</g>
<!-- GFF2 -->
<g id="node20" class="node"><title>GFF2</title>
<polygon fill="white" stroke="black" points="260.5,-180 206.5,-180 206.5,-144 260.5,-144 260.5,-180"/>
<text text-anchor="middle" x="233.5" y="-158.3" font-family="Times,serif" font-size="14.00">GFF2</text>
</g>
<!-- GFF3&#45;&gt;GFF2 -->
<g id="edge38" class="edge"><title>GFF3&#45;&gt;GFF2</title>
<path fill="none" stroke="black" d="M643.14,-222.93C637.04,-220.26 630.64,-217.66 624.5,-216 471.11,-174.43 419.5,-221.15 270.89,-182.78"/>
<polygon fill="black" stroke="black" points="271.524,-179.327 260.96,-180.13 269.719,-186.09 271.524,-179.327"/>
</g>
<!-- QUAL&#45;&gt;FASTA_QUAL_and_FASTQ -->
<g id="edge39" class="edge"><title>QUAL&#45;&gt;FASTA_QUAL_and_FASTQ</title>
<path fill="none" stroke="black" d="M1035.5,-143.7C1035.5,-131.36 1035.5,-115.04 1035.5,-103.85"/>
<polygon fill="black" stroke="black" points="1039,-103.614 1035.5,-93.614 1032,-103.614 1039,-103.614"/>
</g>
<!-- BAM&#45;&gt;FASTA -->
<g id="edge40" class="edge"><title>BAM&#45;&gt;FASTA</title>
<path fill="none" stroke="black" d="M745.74,-252.11C749.2,-270.06 754.93,-299.08 760.5,-324 762.39,-332.45 764.59,-341.62 766.63,-349.93"/>
<polygon fill="black" stroke="black" points="763.291,-351.006 769.11,-359.86 770.083,-349.31 763.291,-351.006"/>
</g>
<!-- BAM&#45;&gt;FASTQ -->
<g id="edge41" class="edge"><title>BAM&#45;&gt;FASTQ</title>
<path fill="none" stroke="black" d="M769.56,-241.48C780.58,-244.8 793.15,-248.81 804.5,-252 863.47,-268.57 932.24,-284.7 974.69,-294.73"/>
<polygon fill="black" stroke="black" points="974.103,-298.188 984.64,-297.08 975.712,-291.375 974.103,-298.188"/>
</g>
<!-- BAM&#45;&gt;WIGGLE -->
<g id="edge42" class="edge"><title>BAM&#45;&gt;WIGGLE</title>
<path fill="none" stroke="black" d="M740.81,-215.93C738.56,-182.86 738.84,-109.98 779.5,-72 820.29,-33.899 985.07,-23.152 1066.5,-20.149"/>
<polygon fill="black" stroke="black" points="1067.03,-23.633 1076.9,-19.79 1066.79,-16.6372 1067.03,-23.633"/>
</g>
<!-- TSV -->
<g id="node21" class="node"><title>TSV</title>
<polygon fill="white" stroke="black" points="404.5,-180 350.5,-180 350.5,-144 404.5,-144 404.5,-180"/>
<text text-anchor="middle" x="377.5" y="-158.3" font-family="Times,serif" font-size="14.00">TSV</text>
</g>
<!-- BAM&#45;&gt;TSV -->
<g id="edge43" class="edge"><title>BAM&#45;&gt;TSV</title>
<path fill="none" stroke="black" d="M715.34,-219.07C712.4,-217.9 709.42,-216.85 706.5,-216 583.55,-180.42 541.58,-214.71 414.38,-179.69"/>
<polygon fill="black" stroke="black" points="415.236,-176.295 404.66,-176.93 413.324,-183.028 415.236,-176.295"/>
</g>
<!-- BIGWIG -->
<g id="node22" class="node"><title>BIGWIG</title>
<polygon fill="white" stroke="black" points="710.5,-180 642.5,-180 642.5,-144 710.5,-144 710.5,-180"/>
<text text-anchor="middle" x="676.5" y="-158.3" font-family="Times,serif" font-size="14.00">BIGWIG</text>
</g>
<!-- BAM&#45;&gt;BIGWIG -->
<g id="edge44" class="edge"><title>BAM&#45;&gt;BIGWIG</title>
<path fill="none" stroke="black" d="M726.19,-215.7C718.19,-207.22 708.43,-196.86 699.68,-187.58"/>
<polygon fill="black" stroke="black" points="702.036,-184.977 692.63,-180.1 696.942,-189.778 702.036,-184.977"/>
</g>
<!-- BEDGRAPH -->
<g id="node23" class="node"><title>BEDGRAPH</title>
<polygon fill="yellow" stroke="black" points="694,-108 605,-108 605,-72 694,-72 694,-108"/>
<text text-anchor="middle" x="649.5" y="-86.3" font-family="Times,serif" font-size="14.00">BEDGRAPH</text>
</g>
<!-- BAM&#45;&gt;BEDGRAPH -->
<g id="edge45" class="edge"><title>BAM&#45;&gt;BEDGRAPH</title>
<path fill="none" stroke="black" d="M715.47,-220.07C683.38,-204.69 634.1,-180.96 633.5,-180 621.73,-161.19 627.84,-136.01 635.67,-117.24"/>
<polygon fill="black" stroke="black" points="638.886,-118.623 639.83,-108.07 632.511,-115.731 638.886,-118.623"/>
</g>
<!-- COV -->
<g id="node24" class="node"><title>COV</title>
<polygon fill="white" stroke="black" points="640.5,-36 586.5,-36 586.5,-0 640.5,-0 640.5,-36"/>
<text text-anchor="middle" x="613.5" y="-14.3" font-family="Times,serif" font-size="14.00">COV</text>
</g>
<!-- BAM&#45;&gt;COV -->
<g id="edge46" class="edge"><title>BAM&#45;&gt;COV</title>
<path fill="none" stroke="black" d="M715.42,-220.1C712.41,-218.7 709.4,-217.31 706.5,-216 669.87,-199.41 651.38,-208.97 623.5,-180 589.12,-144.27 587.42,-120.92 595.5,-72 596.94,-63.275 599.63,-54.056 602.5,-45.797"/>
<polygon fill="black" stroke="black" points="605.828,-46.8891 606.02,-36.296 599.264,-44.4572 605.828,-46.8891"/>
</g>
<!-- CRAM -->
<g id="node25" class="node"><title>CRAM</title>
<polygon fill="yellow" stroke="black" points="918,-108 861,-108 861,-72 918,-72 918,-108"/>
<text text-anchor="middle" x="889.5" y="-86.3" font-family="Times,serif" font-size="14.00">CRAM</text>
</g>
<!-- BAM&#45;&gt;CRAM -->
<g id="edge47" class="edge"><title>BAM&#45;&gt;CRAM</title>
<path fill="none" stroke="black" d="M747.43,-215.71C758.09,-196.83 780.71,-166.31 804.5,-144 818.63,-130.76 836.27,-118.25 851.94,-108.71"/>
<polygon fill="black" stroke="black" points="854.035,-111.539 860.89,-103.46 850.494,-105.501 854.035,-111.539"/>
</g>
<!-- JSON -->
<g id="node26" class="node"><title>JSON</title>
<polygon fill="white" stroke="black" points="332.5,-180 278.5,-180 278.5,-144 332.5,-144 332.5,-180"/>
<text text-anchor="middle" x="305.5" y="-158.3" font-family="Times,serif" font-size="14.00">JSON</text>
</g>
<!-- BAM&#45;&gt;JSON -->
<g id="edge48" class="edge"><title>BAM&#45;&gt;JSON</title>
<path fill="none" stroke="black" d="M715.36,-219C712.42,-217.84 709.43,-216.81 706.5,-216 552.61,-173.45 500.74,-221.39 342.71,-179.73"/>
<polygon fill="black" stroke="black" points="343.207,-176.239 332.64,-177 341.376,-182.995 343.207,-176.239"/>
</g>
<!-- SAM -->
<g id="node27" class="node"><title>SAM</title>
<polygon fill="yellow" stroke="black" points="876.5,-180 822.5,-180 822.5,-144 876.5,-144 876.5,-180"/>
<text text-anchor="middle" x="849.5" y="-158.3" font-family="Times,serif" font-size="14.00">SAM</text>
</g>
<!-- BAM&#45;&gt;SAM -->
<g id="edge49" class="edge"><title>BAM&#45;&gt;SAM</title>
<path fill="none" stroke="black" d="M762.78,-215.88C777.21,-205.74 796.8,-192.88 813.77,-182.37"/>
<polygon fill="black" stroke="black" points="815.658,-185.318 822.37,-177.12 812.011,-179.343 815.658,-185.318"/>
</g>
<!-- FASTQ_and_FASTA_QUAL&#45;&gt;FASTA -->
<g id="edge50" class="edge"><title>FASTQ_and_FASTA_QUAL&#45;&gt;FASTA</title>
<path fill="none" stroke="black" d="M956.62,-237.6C957.02,-249.34 957.1,-297.92 932.5,-324 901.43,-356.94 849.37,-369.42 813.32,-374.14"/>
<polygon fill="black" stroke="black" points="812.68,-370.691 803.15,-375.32 813.487,-377.644 812.68,-370.691"/>
</g>
<!-- FASTQ_and_FASTA_QUAL&#45;&gt;QUAL -->
<g id="edge51" class="edge"><title>FASTQ_and_FASTA_QUAL&#45;&gt;QUAL</title>
<path fill="none" stroke="black" d="M958.78,-230.98C966.07,-224.52 989.47,-203.78 1008.5,-186.89"/>
<polygon fill="black" stroke="black" points="1010.92,-189.422 1016.1,-180.18 1006.29,-184.175 1010.92,-189.422"/>
</g>
<!-- NEWICK&#45;&gt;NEXUS -->
<g id="edge52" class="edge"><title>NEWICK&#45;&gt;NEXUS</title>
<path fill="none" stroke="black" d="M144.55,-36.22C140.76,-54.265 133.59,-83.361 139.5,-108 141.68,-117.09 145.7,-126.39 149.58,-134.6"/>
<polygon fill="black" stroke="black" points="146.46,-136.187 153.96,-143.67 152.763,-133.143 146.46,-136.187"/>
</g>
<!-- NEWICK&#45;&gt;PHYLOXML -->
<g id="edge53" class="edge"><title>NEWICK&#45;&gt;PHYLOXML</title>
<path fill="none" stroke="black" d="M160.41,-36.104C165.95,-44.129 171.88,-53.871 176.71,-62.797"/>
<polygon fill="black" stroke="black" points="173.599,-64.4 181.28,-71.697 179.826,-61.2024 173.599,-64.4"/>
</g>
<!-- PHYLOXML&#45;&gt;NEXUS -->
<g id="edge54" class="edge"><title>PHYLOXML&#45;&gt;NEXUS</title>
<path fill="none" stroke="black" d="M184.55,-108.1C182.21,-116.04 178.59,-125.67 174.66,-134.51"/>
<polygon fill="black" stroke="black" points="171.427,-133.161 170.34,-143.7 177.762,-136.139 171.427,-133.161"/>
</g>
<!-- PHYLOXML&#45;&gt;NEWICK -->
<g id="edge55" class="edge"><title>PHYLOXML&#45;&gt;NEWICK</title>
<path fill="none" stroke="black" d="M169.45,-71.697C163.96,-63.728 158.11,-54.1 153.32,-45.264"/>
<polygon fill="black" stroke="black" points="156.299,-43.4034 148.62,-36.104 150.071,-46.599 156.299,-43.4034"/>
</g>
<!-- GFF2&#45;&gt;GFF3 -->
<g id="edge77" class="edge"><title>GFF2&#45;&gt;GFF3</title>
<path fill="none" stroke="black" d="M260.72,-173.26C266.55,-175.86 272.64,-178.38 278.5,-180 431.82,-222.41 483.38,-175.58 633.3,-213.6"/>
<polygon fill="black" stroke="black" points="632.759,-217.077 643.32,-216.23 634.536,-210.306 632.759,-217.077"/>
</g>
<!-- CSV -->
<g id="node30" class="node"><title>CSV</title>
<polygon fill="yellow" stroke="black" points="441.5,-108 387.5,-108 387.5,-72 441.5,-72 441.5,-108"/>
<text text-anchor="middle" x="414.5" y="-86.3" font-family="Times,serif" font-size="14.00">CSV</text>
</g>
<!-- TSV&#45;&gt;CSV -->
<g id="edge62" class="edge"><title>TSV&#45;&gt;CSV</title>
<path fill="none" stroke="black" d="M380.73,-143.7C384.19,-135.56 389.2,-125.69 394.38,-116.7"/>
<polygon fill="black" stroke="black" points="397.399,-118.472 399.56,-108.1 391.402,-114.86 397.399,-118.472"/>
</g>
<!-- BIGWIG&#45;&gt;WIGGLE -->
<g id="edge63" class="edge"><title>BIGWIG&#45;&gt;WIGGLE</title>
<path fill="none" stroke="black" d="M684.9,-143.64C695.94,-122.88 717.4,-88.821 746.5,-72 800.13,-41.004 980.84,-26.624 1066.6,-21.42"/>
<polygon fill="black" stroke="black" points="1067.02,-24.9011 1076.8,-20.817 1066.61,-17.9133 1067.02,-24.9011"/>
</g>
<!-- BIGWIG&#45;&gt;BEDGRAPH -->
<g id="edge64" class="edge"><title>BIGWIG&#45;&gt;BEDGRAPH</title>
<path fill="none" stroke="black" d="M663.91,-143.7C660.1,-135.9 656.25,-126.51 653.26,-117.83"/>
<polygon fill="black" stroke="black" points="656.539,-116.589 650.2,-108.1 649.861,-118.689 656.539,-116.589"/>
</g>
<!-- BEDGRAPH&#45;&gt;WIGGLE -->
<g id="edge65" class="edge"><title>BEDGRAPH&#45;&gt;WIGGLE</title>
<path fill="none" stroke="black" d="M694.1,-75.386C698.94,-74.139 703.8,-72.979 708.5,-72 836.98,-45.221 991.42,-29.42 1066.7,-22.75"/>
<polygon fill="black" stroke="black" points="1067.14,-26.2248 1076.8,-21.869 1066.53,-19.2513 1067.14,-26.2248"/>
</g>
<!-- BEDGRAPH&#45;&gt;BIGWIG -->
<g id="edge66" class="edge"><title>BEDGRAPH&#45;&gt;BIGWIG</title>
<path fill="none" stroke="black" d="M661.99,-108.1C665.8,-115.88 669.66,-125.26 672.66,-133.95"/>
<polygon fill="black" stroke="black" points="669.39,-135.219 675.74,-143.7 676.065,-133.11 669.39,-135.219"/>
</g>
<!-- BEDGRAPH&#45;&gt;COV -->
<g id="edge67" class="edge"><title>BEDGRAPH&#45;&gt;COV</title>
<path fill="none" stroke="black" d="M640.6,-71.697C636.5,-63.728 631.55,-54.1 627.01,-45.264"/>
<polygon fill="black" stroke="black" points="629.986,-43.3967 622.3,-36.104 623.76,-46.5977 629.986,-43.3967"/>
</g>
<!-- CRAM&#45;&gt;FASTA -->
<g id="edge68" class="edge"><title>CRAM&#45;&gt;FASTA</title>
<path fill="none" stroke="black" d="M891.07,-108.02C893.97,-149.13 896.05,-255.51 848.5,-324 839.1,-337.54 825.07,-348.78 811.67,-357.38"/>
<polygon fill="black" stroke="black" points="809.739,-354.458 803.02,-362.65 813.381,-360.436 809.739,-354.458"/>
</g>
<!-- CRAM&#45;&gt;FASTQ -->
<g id="edge69" class="edge"><title>CRAM&#45;&gt;FASTQ</title>
<path fill="none" stroke="black" d="M900.97,-108.1C916.79,-131.91 945.91,-176.57 968.5,-216 980.32,-236.63 992.63,-260.6 1001.5,-278.47"/>
<polygon fill="black" stroke="black" points="998.507,-280.311 1006.1,-287.7 1004.77,-277.189 998.507,-280.311"/>
</g>
<!-- CRAM&#45;&gt;BAM -->
<g id="edge70" class="edge"><title>CRAM&#45;&gt;BAM</title>
<path fill="none" stroke="black" d="M868.96,-108.09C855.04,-117.7 836.93,-130.47 822.5,-144 801.78,-163.43 781.94,-189.1 766.94,-207.87"/>
<polygon fill="black" stroke="black" points="764.169,-205.731 760.61,-215.71 769.615,-210.128 764.169,-205.731"/>
</g>
<!-- CRAM&#45;&gt;SAM -->
<g id="edge71" class="edge"><title>CRAM&#45;&gt;SAM</title>
<path fill="none" stroke="black" d="M885.62,-108.1C881.84,-116.21 876.42,-126.08 870.86,-135.08"/>
<polygon fill="black" stroke="black" points="867.779,-133.399 865.3,-143.7 873.662,-137.194 867.779,-133.399"/>
</g>
<!-- YAML -->
<g id="node31" class="node"><title>YAML</title>
<polygon fill="white" stroke="black" points="334,-108 277,-108 277,-72 334,-72 334,-108"/>
<text text-anchor="middle" x="305.5" y="-86.3" font-family="Times,serif" font-size="14.00">YAML</text>
</g>
<!-- JSON&#45;&gt;YAML -->
<g id="edge72" class="edge"><title>JSON&#45;&gt;YAML</title>
<path fill="none" stroke="black" d="M299.58,-143.7C298.79,-135.98 298.56,-126.71 298.9,-118.11"/>
<polygon fill="black" stroke="black" points="302.394,-118.32 299.6,-108.1 295.411,-117.831 302.394,-118.32"/>
</g>
<!-- SAM&#45;&gt;BAM -->
<g id="edge73" class="edge"><title>SAM&#45;&gt;BAM</title>
<path fill="none" stroke="black" d="M829.24,-180.11C814.83,-190.23 795.26,-203.09 778.29,-213.59"/>
<polygon fill="black" stroke="black" points="776.414,-210.634 769.7,-218.83 780.06,-216.61 776.414,-210.634"/>
</g>
<!-- SAM&#45;&gt;CRAM -->
<g id="edge74" class="edge"><title>SAM&#45;&gt;CRAM</title>
<path fill="none" stroke="black" d="M853.47,-143.7C857.28,-135.56 862.72,-125.69 868.28,-116.7"/>
<polygon fill="black" stroke="black" points="871.348,-118.4 873.83,-108.1 865.467,-114.604 871.348,-118.4"/>
</g>
<!-- PAF -->
<g id="node32" class="node"><title>PAF</title>
<polygon fill="white" stroke="black" points="842.5,-108 788.5,-108 788.5,-72 842.5,-72 842.5,-108"/>
<text text-anchor="middle" x="815.5" y="-86.3" font-family="Times,serif" font-size="14.00">PAF</text>
</g>
<!-- SAM&#45;&gt;PAF -->
<g id="edge75" class="edge"><title>SAM&#45;&gt;PAF</title>
<path fill="none" stroke="black" d="M841.1,-143.7C837.23,-135.73 832.55,-126.1 828.26,-117.26"/>
<polygon fill="black" stroke="black" points="831.328,-115.565 823.81,-108.1 825.032,-118.624 831.328,-115.565"/>
</g>
<!-- ABI -->
<g id="node28" class="node"><title>ABI</title>
<polygon fill="white" stroke="black" points="1060.5,-468 1006.5,-468 1006.5,-432 1060.5,-432 1060.5,-468"/>
<text text-anchor="middle" x="1033.5" y="-446.3" font-family="Times,serif" font-size="14.00">ABI</text>
</g>
<!-- ABI&#45;&gt;FASTA -->
<g id="edge56" class="edge"><title>ABI&#45;&gt;FASTA</title>
<path fill="none" stroke="black" d="M1006.2,-441.64C959.99,-429.21 866.36,-404 813.03,-389.64"/>
<polygon fill="black" stroke="black" points="813.816,-386.227 803.25,-387.01 811.998,-392.987 813.816,-386.227"/>
</g>
<!-- ABI&#45;&gt;FASTQ -->
<g id="edge57" class="edge"><title>ABI&#45;&gt;FASTQ</title>
<path fill="none" stroke="black" d="M1031.2,-431.87C1028,-407.67 1022,-363.21 1018.2,-334.39"/>
<polygon fill="black" stroke="black" points="1021.63,-333.621 1016.8,-324.19 1014.69,-334.573 1021.63,-333.621"/>
</g>
<!-- ABI&#45;&gt;QUAL -->
<g id="edge58" class="edge"><title>ABI&#45;&gt;QUAL</title>
<path fill="none" stroke="black" d="M1037,-431.7C1041.6,-407.67 1049.6,-362.74 1052.5,-324 1056.1,-276.91 1047.6,-222.29 1041.4,-190.3"/>
<polygon fill="black" stroke="black" points="1044.8,-189.473 1039.4,-180.36 1037.94,-190.854 1044.8,-189.473"/>
</g>
<!-- XLS -->
<g id="node29" class="node"><title>XLS</title>
<polygon fill="white" stroke="black" points="441.5,-36 387.5,-36 387.5,-0 441.5,-0 441.5,-36"/>
<text text-anchor="middle" x="414.5" y="-14.3" font-family="Times,serif" font-size="14.00">XLS</text>
</g>
<!-- XLS&#45;&gt;CSV -->
<g id="edge59" class="edge"><title>XLS&#45;&gt;CSV</title>
<path fill="none" stroke="black" d="M420.4,-36.104C421.2,-43.791 421.44,-53.054 421.1,-61.665"/>
<polygon fill="black" stroke="black" points="417.604,-61.4832 420.42,-71.697 424.588,-61.9566 417.604,-61.4832"/>
</g>
<!-- CSV&#45;&gt;TSV -->
<g id="edge61" class="edge"><title>CSV&#45;&gt;TSV</title>
<path fill="none" stroke="black" d="M411.35,-108.1C407.92,-116.21 402.92,-126.08 397.75,-135.08"/>
<polygon fill="black" stroke="black" points="394.72,-133.328 392.56,-143.7 400.717,-136.938 394.72,-133.328"/>
</g>
<!-- CSV&#45;&gt;XLS -->
<g id="edge60" class="edge"><title>CSV&#45;&gt;XLS</title>
<path fill="none" stroke="black" d="M408.58,-71.697C407.79,-63.983 407.56,-54.712 407.9,-46.112"/>
<polygon fill="black" stroke="black" points="411.394,-46.3239 408.6,-36.104 404.411,-45.8354 411.394,-46.3239"/>
</g>
<!-- YAML&#45;&gt;JSON -->
<g id="edge76" class="edge"><title>YAML&#45;&gt;JSON</title>
<path fill="none" stroke="black" d="M311.4,-108.1C312.2,-115.79 312.44,-125.05 312.1,-133.67"/>
<polygon fill="black" stroke="black" points="308.605,-133.486 311.42,-143.7 315.588,-133.96 308.605,-133.486"/>
</g>
<!-- ODS -->
<g id="node33" class="node"><title>ODS</title>
<polygon fill="white" stroke="black" points="476.5,-180 422.5,-180 422.5,-144 476.5,-144 476.5,-180"/>
<text text-anchor="middle" x="449.5" y="-158.3" font-family="Times,serif" font-size="14.00">ODS</text>
</g>
<!-- ODS&#45;&gt;CSV -->
<g id="edge78" class="edge"><title>ODS&#45;&gt;CSV</title>
<path fill="none" stroke="black" d="M440.85,-143.7C436.86,-135.73 432.05,-126.1 427.63,-117.26"/>
<polygon fill="black" stroke="black" points="430.653,-115.479 423.05,-108.1 424.392,-118.61 430.653,-115.479"/>
</g>
<!-- VCF -->
<g id="node34" class="node"><title>VCF</title>
<polygon fill="yellow" stroke="black" points="1368.5,-180 1314.5,-180 1314.5,-144 1368.5,-144 1368.5,-180"/>
<text text-anchor="middle" x="1341.5" y="-158.3" font-family="Times,serif" font-size="14.00">VCF</text>
</g>
<!-- VCF&#45;&gt;BED -->
<g id="edge79" class="edge"><title>VCF&#45;&gt;BED</title>
<path fill="none" stroke="black" d="M1314.1,-147.71C1311.2,-146.42 1308.3,-145.16 1305.5,-144 1263.8,-126.86 1249.7,-126.29 1204.4,-108.16"/>
<polygon fill="black" stroke="black" points="1205.48,-104.821 1194.9,-104.29 1202.84,-111.304 1205.48,-104.821"/>
</g>
<!-- VCF&#45;&gt;WIGGLE -->
<g id="edge80" class="edge"><title>VCF&#45;&gt;WIGGLE</title>
<path fill="none" stroke="black" d="M1333,-143.73C1322.2,-123.69 1301.9,-90.983 1275.5,-72 1240.4,-46.776 1192.7,-33.116 1158,-26.017"/>
<polygon fill="black" stroke="black" points="1158.58,-22.5649 1148.1,-24.101 1157.25,-29.4374 1158.58,-22.5649"/>
</g>
<!-- BCF -->
<g id="node35" class="node"><title>BCF</title>
<polygon fill="white" stroke="black" points="1266.5,-108 1212.5,-108 1212.5,-72 1266.5,-72 1266.5,-108"/>
<text text-anchor="middle" x="1239.5" y="-86.3" font-family="Times,serif" font-size="14.00">BCF</text>
</g>
<!-- VCF&#45;&gt;BCF -->
<g id="edge81" class="edge"><title>VCF&#45;&gt;BCF</title>
<path fill="none" stroke="black" d="M1314.2,-146.15C1299.5,-136.83 1281.4,-124.61 1266.7,-114.04"/>
<polygon fill="black" stroke="black" points="1268.55,-111.062 1258.4,-108.04 1264.45,-116.735 1268.55,-111.062"/>
</g>
<!-- PLINK -->
<g id="node36" class="node"><title>PLINK</title>
<polygon fill="white" stroke="black" points="1434.5,-108 1378.5,-108 1378.5,-72 1434.5,-72 1434.5,-108"/>
<text text-anchor="middle" x="1406.5" y="-86.3" font-family="Times,serif" font-size="14.00">PLINK</text>
</g>
<!-- VCF&#45;&gt;PLINK -->
<g id="edge82" class="edge"><title>VCF&#45;&gt;PLINK</title>
<path fill="none" stroke="black" d="M1351.7,-143.7C1358.7,-135.14 1368.3,-124.66 1377.5,-115.3"/>
<polygon fill="black" stroke="black" points="1380.1,-117.646 1384.7,-108.1 1375.15,-112.696 1380.1,-117.646"/>
</g>
<!-- BPLINK -->
<g id="node37" class="node"><title>BPLINK</title>
<polygon fill="white" stroke="black" points="1406,-36 1341,-36 1341,-0 1406,-0 1406,-36"/>
<text text-anchor="middle" x="1373.5" y="-14.3" font-family="Times,serif" font-size="14.00">BPLINK</text>
</g>
<!-- VCF&#45;&gt;BPLINK -->
<g id="edge83" class="edge"><title>VCF&#45;&gt;BPLINK</title>
<path fill="none" stroke="black" d="M1340.8,-143.87C1343.7,-119.56 1353.5,-74.819 1362,-46.013"/>
<polygon fill="black" stroke="black" points="1365.43,-46.7752 1365,-36.189 1358.73,-44.7308 1365.43,-46.7752"/>
</g>
<!-- BCF&#45;&gt;WIGGLE -->
<g id="edge84" class="edge"><title>BCF&#45;&gt;WIGGLE</title>
<path fill="none" stroke="black" d="M1212.3,-73.983C1194.9,-64.412 1172.1,-51.841 1152.7,-41.136"/>
<polygon fill="black" stroke="black" points="1154.15,-37.941 1143.7,-36.209 1150.79,-44.0811 1154.15,-37.941"/>
</g>
<!-- BCF&#45;&gt;VCF -->
<g id="edge85" class="edge"><title>BCF&#45;&gt;VCF</title>
<path fill="none" stroke="black" d="M1266.6,-105.74C1281.3,-115 1299.2,-127.16 1314,-137.7"/>
<polygon fill="black" stroke="black" points="1312.06,-140.619 1322.2,-143.7 1316.2,-134.97 1312.06,-140.619"/>
</g>
<!-- PLINK&#45;&gt;VCF -->
<g id="edge86" class="edge"><title>PLINK&#45;&gt;VCF</title>
<path fill="none" stroke="black" d="M1396.5,-108.1C1389.5,-116.64 1380,-127.11 1370.7,-136.48"/>
<polygon fill="black" stroke="black" points="1368.08,-134.148 1363.5,-143.7 1373.04,-139.091 1368.08,-134.148"/>
</g>
<!-- PLINK&#45;&gt;BPLINK -->
<g id="edge87" class="edge"><title>PLINK&#45;&gt;BPLINK</title>
<path fill="none" stroke="black" d="M1392.4,-71.697C1387.9,-63.813 1383.2,-54.304 1379.4,-45.546"/>
<polygon fill="black" stroke="black" points="1382.61,-44.1377 1375.7,-36.104 1376.09,-46.6917 1382.61,-44.1377"/>
</g>
<!-- BPLINK&#45;&gt;VCF -->
<g id="edge88" class="edge"><title>BPLINK&#45;&gt;VCF</title>
<path fill="none" stroke="black" d="M1374.2,-36.189C1371.3,-60.531 1361.5,-105.28 1353,-134.06"/>
<polygon fill="black" stroke="black" points="1349.58,-133.28 1349.9,-143.87 1356.25,-135.389 1349.58,-133.28"/>
</g>
<!-- BPLINK&#45;&gt;PLINK -->
<g id="edge89" class="edge"><title>BPLINK&#45;&gt;PLINK</title>
<path fill="none" stroke="black" d="M1387.5,-36.104C1392,-43.96 1396.7,-53.462 1400.5,-62.232"/>
<polygon fill="black" stroke="black" points="1397.33,-63.721 1404.3,-71.697 1403.82,-61.1129 1397.33,-63.721"/>
</g>
<!-- GZ -->
<g id="node38" class="node"><title>GZ</title>
<polygon fill="white" stroke="black" points="1370.5,-468 1316.5,-468 1316.5,-432 1370.5,-432 1370.5,-468"/>
<text text-anchor="middle" x="1343.5" y="-446.3" font-family="Times,serif" font-size="14.00">GZ</text>
</g>
<!-- DSRC -->
<g id="node39" class="node"><title>DSRC</title>
<polygon fill="white" stroke="black" points="1334.5,-396 1280.5,-396 1280.5,-360 1334.5,-360 1334.5,-396"/>
<text text-anchor="middle" x="1307.5" y="-374.3" font-family="Times,serif" font-size="14.00">DSRC</text>
</g>
<!-- GZ&#45;&gt;DSRC -->
<g id="edge90" class="edge"><title>GZ&#45;&gt;DSRC</title>
<path fill="none" stroke="black" d="M1328.7,-431.7C1323.8,-423.73 1318.6,-414.1 1314.4,-405.26"/>
<polygon fill="black" stroke="black" points="1317.61,-403.864 1310.4,-396.1 1311.19,-406.665 1317.61,-403.864"/>
</g>
<!-- BZ2 -->
<g id="node40" class="node"><title>BZ2</title>
<polygon fill="white" stroke="black" points="1406.5,-396 1352.5,-396 1352.5,-360 1406.5,-360 1406.5,-396"/>
<text text-anchor="middle" x="1379.5" y="-374.3" font-family="Times,serif" font-size="14.00">BZ2</text>
</g>
<!-- GZ&#45;&gt;BZ2 -->
<g id="edge91" class="edge"><title>GZ&#45;&gt;BZ2</title>
<path fill="none" stroke="black" d="M1346.5,-431.7C1349.8,-423.64 1354.6,-413.89 1359.6,-404.98"/>
<polygon fill="black" stroke="black" points="1362.77,-406.498 1364.8,-396.1 1356.73,-402.961 1362.77,-406.498"/>
</g>
<!-- DSRC&#45;&gt;GZ -->
<g id="edge92" class="edge"><title>DSRC&#45;&gt;GZ</title>
<path fill="none" stroke="black" d="M1322.2,-396.1C1327.1,-404.04 1332.3,-413.67 1336.4,-422.51"/>
<polygon fill="black" stroke="black" points="1333.23,-423.994 1340.5,-431.7 1339.62,-421.142 1333.23,-423.994"/>
</g>
<!-- BZ2&#45;&gt;GZ -->
<g id="edge93" class="edge"><title>BZ2&#45;&gt;GZ</title>
<path fill="none" stroke="black" d="M1376.6,-396.1C1373.3,-404.13 1368.5,-413.87 1363.5,-422.8"/>
<polygon fill="black" stroke="black" points="1360.32,-421.3 1358.3,-431.7 1366.37,-424.831 1360.32,-421.3"/>
</g>
<!-- BIGBED -->
<g id="node41" class="node"><title>BIGBED</title>
<polygon fill="white" stroke="black" points="1186,-180 1119,-180 1119,-144 1186,-144 1186,-180"/>
<text text-anchor="middle" x="1152.5" y="-158.3" font-family="Times,serif" font-size="14.00">BIGBED</text>
</g>
<!-- BIGBED&#45;&gt;BED -->
<g id="edge94" class="edge"><title>BIGBED&#45;&gt;BED</title>
<path fill="none" stroke="black" d="M1156.2,-143.7C1157.9,-135.98 1159.8,-126.71 1161.7,-118.11"/>
<polygon fill="black" stroke="black" points="1165.17,-118.606 1163.8,-108.1 1158.32,-117.168 1165.17,-118.606"/>
</g>
<!-- BIGBED&#45;&gt;WIGGLE -->
<g id="edge95" class="edge"><title>BIGBED&#45;&gt;WIGGLE</title>
<path fill="none" stroke="black" d="M1144.8,-143.59C1140.4,-133.38 1135.2,-120.13 1131.5,-108 1125.3,-87.616 1120.4,-64.025 1117.1,-46.254"/>
<polygon fill="black" stroke="black" points="1120.52,-45.4967 1115.3,-36.277 1113.63,-46.7396 1120.52,-45.4967"/>
</g>
<!-- MAF -->
<g id="node42" class="node"><title>MAF</title>
<polygon fill="white" stroke="black" points="858.5,-252 804.5,-252 804.5,-216 858.5,-216 858.5,-252"/>
<text text-anchor="middle" x="831.5" y="-230.3" font-family="Times,serif" font-size="14.00">MAF</text>
</g>
<!-- MAF&#45;&gt;SAM -->
<g id="edge96" class="edge"><title>MAF&#45;&gt;SAM</title>
<path fill="none" stroke="black" d="M835.95,-215.7C837.95,-207.9 840.37,-198.51 842.6,-189.83"/>
<polygon fill="black" stroke="black" points="846.001,-190.656 845.1,-180.1 839.221,-188.914 846.001,-190.656"/>
</g>
<!-- SCF -->
<g id="node43" class="node"><title>SCF</title>
<polygon fill="white" stroke="black" points="898.5,-468 844.5,-468 844.5,-432 898.5,-432 898.5,-468"/>
<text text-anchor="middle" x="871.5" y="-446.3" font-family="Times,serif" font-size="14.00">SCF</text>
</g>
<!-- SCF&#45;&gt;FASTA -->
<g id="edge97" class="edge"><title>SCF&#45;&gt;FASTA</title>
<path fill="none" stroke="black" d="M847.53,-431.88C834.95,-422.89 819.37,-411.76 805.75,-402.03"/>
<polygon fill="black" stroke="black" points="807.742,-399.152 797.57,-396.19 803.675,-404.849 807.742,-399.152"/>
</g>
<!-- SCF&#45;&gt;FASTQ -->
<g id="edge98" class="edge"><title>SCF&#45;&gt;FASTQ</title>
<path fill="none" stroke="black" d="M898.89,-441.07C922.23,-433.08 955.27,-418.64 976.5,-396 992.87,-378.55 1002.8,-352.97 1008.4,-333.71"/>
<polygon fill="black" stroke="black" points="1011.79,-334.585 1011,-324.02 1005.03,-332.771 1011.79,-334.585"/>
</g>
<!-- SRA -->
<g id="node44" class="node"><title>SRA</title>
<polygon fill="white" stroke="black" points="967.5,-396 913.5,-396 913.5,-360 967.5,-360 967.5,-396"/>
<text text-anchor="middle" x="940.5" y="-374.3" font-family="Times,serif" font-size="14.00">SRA</text>
</g>
<!-- SRA&#45;&gt;FASTQ -->
<g id="edge99" class="edge"><title>SRA&#45;&gt;FASTQ</title>
<path fill="none" stroke="black" d="M958.79,-359.7C967.93,-351.05 979.14,-340.45 989.1,-331.03"/>
<polygon fill="black" stroke="black" points="991.564,-333.517 996.42,-324.1 986.752,-328.433 991.564,-333.517"/>
</g>
<!-- XLSX -->
<g id="node45" class="node"><title>XLSX</title>
<polygon fill="white" stroke="black" points="548.5,-180 494.5,-180 494.5,-144 548.5,-144 548.5,-180"/>
<text text-anchor="middle" x="521.5" y="-158.3" font-family="Times,serif" font-size="14.00">XLSX</text>
</g>
<!-- XLSX&#45;&gt;CSV -->
<g id="edge100" class="edge"><title>XLSX&#45;&gt;CSV</title>
<path fill="none" stroke="black" d="M495.32,-143.88C481.46,-134.81 464.26,-123.55 449.29,-113.76"/>
<polygon fill="black" stroke="black" points="451.064,-110.738 440.78,-108.19 447.23,-116.595 451.064,-110.738"/>
</g>
<!-- GFA -->
<g id="node46" class="node"><title>GFA</title>
<polygon fill="white" stroke="black" points="800.5,-468 746.5,-468 746.5,-432 800.5,-432 800.5,-468"/>
<text text-anchor="middle" x="773.5" y="-446.3" font-family="Times,serif" font-size="14.00">GFA</text>
</g>
<!-- GFA&#45;&gt;FASTA -->
<g id="edge101" class="edge"><title>GFA&#45;&gt;FASTA</title>
<path fill="none" stroke="black" d="M773.5,-431.7C773.5,-423.98 773.5,-414.71 773.5,-406.11"/>
<polygon fill="black" stroke="black" points="777,-406.1 773.5,-396.1 770,-406.1 777,-406.1"/>
</g>
<!-- WIG -->
<g id="node47" class="node"><title>WIG</title>
<polygon fill="white" stroke="black" points="1296.5,-180 1242.5,-180 1242.5,-144 1296.5,-144 1296.5,-180"/>
<text text-anchor="middle" x="1269.5" y="-158.3" font-family="Times,serif" font-size="14.00">WIG</text>
</g>
<!-- WIG&#45;&gt;BED -->
<g id="edge102" class="edge"><title>WIG&#45;&gt;BED</title>
<path fill="none" stroke="black" d="M1244.5,-143.88C1231.5,-134.89 1215.2,-123.76 1201.1,-114.03"/>
<polygon fill="black" stroke="black" points="1202.74,-110.912 1192.5,-108.19 1198.81,-116.703 1202.74,-110.912"/>
</g>
</g>
</svg>
