<?xml version="1.0" encoding="UTF-8" standalone="no"?>
<!DOCTYPE svg PUBLIC "-//W3C//DTD SVG 1.1//EN"
 "http://www.w3.org/Graphics/SVG/1.1/DTD/svg11.dtd">
<!-- Generated by graphviz version 2.38.0 (20140413.2041)
 -->
<!-- Title: %3 Pages: 1 -->
<svg width="1626pt" height="548pt"
 viewBox="0.00 0.00 1625.93 548.00" xmlns="http://www.w3.org/2000/svg" xmlns:xlink="http://www.w3.org/1999/xlink">
<g id="graph0" class="graph" transform="scale(1 1) rotate(0) translate(9.6276 544)">
<title>%3</title>
<polygon fill="white" stroke="none" points="-9.6276,4 -9.6276,-544 1616.3,-544 1616.3,4 -9.6276,4"/>
<!-- CSV -->
<g id="node1" class="node"><title>CSV</title>
<polygon fill="yellow" stroke="black" points="1486.3,-468 1432.3,-468 1432.3,-432 1486.3,-432 1486.3,-468"/>
<text text-anchor="middle" x="1459.3" y="-446.3" font-family="Times,serif" font-size="14.00">CSV</text>
</g>
<!-- TSV -->
<g id="node2" class="node"><title>TSV</title>
<polygon fill="white" stroke="black" points="1432.3,-396 1378.3,-396 1378.3,-360 1432.3,-360 1432.3,-396"/>
<text text-anchor="middle" x="1405.3" y="-374.3" font-family="Times,serif" font-size="14.00">TSV</text>
</g>
<!-- CSV&#45;&gt;TSV -->
<g id="edge1" class="edge"><title>CSV&#45;&gt;TSV</title>
<path fill="none" stroke="black" d="M1440,-431.7C1432.8,-423.47 1424.9,-413.48 1418.4,-404.42"/>
<polygon fill="black" stroke="black" points="1421.19,-402.302 1412.6,-396.1 1415.45,-406.305 1421.19,-402.302"/>
</g>
<!-- XLS -->
<g id="node3" class="node"><title>XLS</title>
<polygon fill="white" stroke="black" points="1504.3,-396 1450.3,-396 1450.3,-360 1504.3,-360 1504.3,-396"/>
<text text-anchor="middle" x="1477.3" y="-374.3" font-family="Times,serif" font-size="14.00">XLS</text>
</g>
<!-- CSV&#45;&gt;XLS -->
<g id="edge2" class="edge"><title>CSV&#45;&gt;XLS</title>
<path fill="none" stroke="black" d="M1457.8,-431.7C1459,-423.9 1461.2,-414.51 1463.8,-405.83"/>
<polygon fill="black" stroke="black" points="1467.2,-406.693 1467,-396.1 1460.55,-404.506 1467.2,-406.693"/>
</g>
<!-- TSV&#45;&gt;CSV -->
<g id="edge3" class="edge"><title>TSV&#45;&gt;CSV</title>
<path fill="none" stroke="black" d="M1424.4,-396.1C1431.6,-404.3 1439.5,-414.28 1446,-423.36"/>
<polygon fill="black" stroke="black" points="1443.27,-425.558 1451.9,-431.7 1448.98,-421.515 1443.27,-425.558"/>
</g>
<!-- XLS&#45;&gt;CSV -->
<g id="edge4" class="edge"><title>XLS&#45;&gt;CSV</title>
<path fill="none" stroke="black" d="M1478.8,-396.1C1477.6,-403.88 1475.4,-413.26 1472.8,-421.95"/>
<polygon fill="black" stroke="black" points="1469.39,-421.107 1469.6,-431.7 1476.04,-423.29 1469.39,-421.107"/>
</g>
<!-- FASTA -->
<g id="node4" class="node"><title>FASTA</title>
<polygon fill="red" stroke="black" points="436.78,-324 377.78,-324 377.78,-288 436.78,-288 436.78,-324"/>
<text text-anchor="middle" x="407.28" y="-302.3" font-family="Times,serif" font-size="14.00">FASTA</text>
</g>
<!-- PHYLIP -->
<g id="node5" class="node"><title>PHYLIP</title>
<polygon fill="orange" stroke="black" points="235.28,-252 171.28,-252 171.28,-216 235.28,-216 235.28,-252"/>
<text text-anchor="middle" x="203.28" y="-230.3" font-family="Times,serif" font-size="14.00">PHYLIP</text>
</g>
<!-- FASTA&#45;&gt;PHYLIP -->
<g id="edge5" class="edge"><title>FASTA&#45;&gt;PHYLIP</title>
<path fill="none" stroke="black" d="M377.76,-295.37C371.6,-292.83 365.25,-290.19 359.28,-288 310.46,-270.04 294.52,-269.58 245.02,-253.51"/>
<polygon fill="black" stroke="black" points="245.963,-250.136 235.37,-250.32 243.766,-256.782 245.963,-250.136"/>
</g>
<!-- NEXUS -->
<g id="node6" class="node"><title>NEXUS</title>
<polygon fill="orange" stroke="black" points="97.284,-180 35.284,-180 35.284,-144 97.284,-144 97.284,-180"/>
<text text-anchor="middle" x="66.284" y="-158.3" font-family="Times,serif" font-size="14.00">NEXUS</text>
</g>
<!-- FASTA&#45;&gt;NEXUS -->
<g id="edge6" class="edge"><title>FASTA&#45;&gt;NEXUS</title>
<path fill="none" stroke="black" d="M377.53,-294.57C371.51,-292.1 365.25,-289.69 359.28,-288 248.28,-256.67 196.09,-319.1 102.28,-252 81.778,-237.33 70.04,-210.55 65.387,-190.19"/>
<polygon fill="black" stroke="black" points="68.8085,-189.441 63.591,-180.22 61.9194,-190.682 68.8085,-189.441"/>
</g>
<!-- FASTQ -->
<g id="node7" class="node"><title>FASTQ</title>
<polygon fill="orange" stroke="black" points="688.78,-252 629.78,-252 629.78,-216 688.78,-216 688.78,-252"/>
<text text-anchor="middle" x="659.28" y="-230.3" font-family="Times,serif" font-size="14.00">FASTQ</text>
</g>
<!-- FASTA&#45;&gt;FASTQ -->
<g id="edge7" class="edge"><title>FASTA&#45;&gt;FASTQ</title>
<path fill="none" stroke="black" d="M436.87,-297.18C476.13,-287.82 546.82,-270.99 606.28,-252 610.73,-250.58 615.38,-248.95 620.02,-247.27"/>
<polygon fill="black" stroke="black" points="621.269,-250.54 629.46,-243.82 618.866,-243.965 621.269,-250.54"/>
</g>
<!-- CLUSTAL -->
<g id="node8" class="node"><title>CLUSTAL</title>
<polygon fill="yellow" stroke="black" points="208.78,-108 131.78,-108 131.78,-72 208.78,-72 208.78,-108"/>
<text text-anchor="middle" x="170.28" y="-86.3" font-family="Times,serif" font-size="14.00">CLUSTAL</text>
</g>
<!-- FASTA&#45;&gt;CLUSTAL -->
<g id="edge8" class="edge"><title>FASTA&#45;&gt;CLUSTAL</title>
<path fill="none" stroke="black" d="M377.49,-294.71C371.47,-292.23 365.23,-289.79 359.28,-288 270.28,-261.24 213.08,-323.15 153.28,-252 121.68,-214.4 137.17,-152.69 152.93,-117.59"/>
<polygon fill="black" stroke="black" points="156.152,-118.967 157.35,-108.44 149.849,-115.922 156.152,-118.967"/>
</g>
<!-- GENBANK -->
<g id="node9" class="node"><title>GENBANK</title>
<polygon fill="yellow" stroke="black" points="534.78,-252 451.78,-252 451.78,-216 534.78,-216 534.78,-252"/>
<text text-anchor="middle" x="493.28" y="-230.3" font-family="Times,serif" font-size="14.00">GENBANK</text>
</g>
<!-- FASTA&#45;&gt;GENBANK -->
<g id="edge9" class="edge"><title>FASTA&#45;&gt;GENBANK</title>
<path fill="none" stroke="black" d="M422.63,-287.7C432.64,-278.8 445.96,-267.82 458.39,-258.2"/>
<polygon fill="black" stroke="black" points="460.555,-260.95 466.38,-252.1 456.308,-255.386 460.555,-260.95"/>
</g>
<!-- TWOBIT -->
<g id="node10" class="node"><title>TWOBIT</title>
<polygon fill="white" stroke="black" points="361.28,-252 291.28,-252 291.28,-216 361.28,-216 361.28,-252"/>
<text text-anchor="middle" x="326.28" y="-230.3" font-family="Times,serif" font-size="14.00">TWOBIT</text>
</g>
<!-- FASTA&#45;&gt;TWOBIT -->
<g id="edge10" class="edge"><title>FASTA&#45;&gt;TWOBIT</title>
<path fill="none" stroke="black" d="M381.35,-287.7C370.45,-279.05 358,-268.45 347.64,-259.03"/>
<polygon fill="black" stroke="black" points="349.889,-256.342 340.18,-252.1 345.124,-261.47 349.889,-256.342"/>
</g>
<!-- FASTA_QUAL_and_FASTQ -->
<g id="node11" class="node"><title>FASTA_QUAL_and_FASTQ</title>
<ellipse fill="none" stroke="black" cx="621.28" cy="-18" rx="3.5" ry="3.5"/>
</g>
<!-- FASTA&#45;&gt;FASTA_QUAL_and_FASTQ -->
<g id="edge11" class="edge"><title>FASTA&#45;&gt;FASTA_QUAL_and_FASTQ</title>
<path fill="none" stroke="black" d="M436.81,-301.55C467.9,-296.32 516.06,-283.4 543.28,-252 597.09,-189.93 552.32,-147.24 585.28,-72 592.38,-55.801 604.55,-39.279 612.75,-29.084"/>
<polygon fill="black" stroke="black" points="615.574,-31.163 619.3,-21.245 610.202,-26.6746 615.574,-31.163"/>
</g>
<!-- FAA -->
<g id="node12" class="node"><title>FAA</title>
<polygon fill="white" stroke="black" points="433.28,-252 379.28,-252 379.28,-216 433.28,-216 433.28,-252"/>
<text text-anchor="middle" x="406.28" y="-230.3" font-family="Times,serif" font-size="14.00">FAA</text>
</g>
<!-- FASTA&#45;&gt;FAA -->
<g id="edge12" class="edge"><title>FASTA&#45;&gt;FAA</title>
<path fill="none" stroke="black" d="M407.04,-287.7C406.93,-279.98 406.79,-270.71 406.67,-262.11"/>
<polygon fill="black" stroke="black" points="410.17,-262.05 406.53,-252.1 403.17,-262.148 410.17,-262.05"/>
</g>
<!-- PHYLIP&#45;&gt;FASTA -->
<g id="edge13" class="edge"><title>PHYLIP&#45;&gt;FASTA</title>
<path fill="none" stroke="black" d="M235.67,-244.1C243.18,-246.74 251.02,-249.56 258.28,-252 307.29,-268.45 323.37,-268.94 368.04,-284.67"/>
<polygon fill="black" stroke="black" points="367.106,-288.054 377.7,-288.15 369.478,-281.468 367.106,-288.054"/>
</g>
<!-- PHYLIP&#45;&gt;NEXUS -->
<g id="edge14" class="edge"><title>PHYLIP&#45;&gt;NEXUS</title>
<path fill="none" stroke="black" d="M171.06,-219.34C150.59,-209.56 124.16,-196.2 102.91,-184.94"/>
<polygon fill="black" stroke="black" points="104.324,-181.727 93.855,-180.1 101.024,-187.901 104.324,-181.727"/>
</g>
<!-- PHYLIP&#45;&gt;CLUSTAL -->
<g id="edge15" class="edge"><title>PHYLIP&#45;&gt;CLUSTAL</title>
<path fill="none" stroke="black" d="M194.72,-215.87C186.54,-191.67 175.91,-147.21 171.19,-118.39"/>
<polygon fill="black" stroke="black" points="174.608,-117.574 169.69,-108.19 167.682,-118.593 174.608,-117.574"/>
</g>
<!-- STOCKHOLM -->
<g id="node13" class="node"><title>STOCKHOLM</title>
<polygon fill="white" stroke="black" points="241.78,-36 140.78,-36 140.78,-0 241.78,-0 241.78,-36"/>
<text text-anchor="middle" x="191.28" y="-14.3" font-family="Times,serif" font-size="14.00">STOCKHOLM</text>
</g>
<!-- PHYLIP&#45;&gt;STOCKHOLM -->
<g id="edge16" class="edge"><title>PHYLIP&#45;&gt;STOCKHOLM</title>
<path fill="none" stroke="black" d="M202.81,-215.83C207.07,-186.12 220.21,-123.38 208.28,-72 206.21,-63.057 202.4,-53.883 198.72,-45.735"/>
<polygon fill="black" stroke="black" points="201.773,-43.9977 194.4,-36.389 195.419,-46.9347 201.773,-43.9977"/>
</g>
<!-- XMFA -->
<g id="node14" class="node"><title>XMFA</title>
<polygon fill="white" stroke="black" points="339.28,-180 283.28,-180 283.28,-144 339.28,-144 339.28,-180"/>
<text text-anchor="middle" x="311.28" y="-158.3" font-family="Times,serif" font-size="14.00">XMFA</text>
</g>
<!-- PHYLIP&#45;&gt;XMFA -->
<g id="edge17" class="edge"><title>PHYLIP&#45;&gt;XMFA</title>
<path fill="none" stroke="black" d="M223.81,-215.88C238.18,-205.88 257.62,-193.23 274.58,-182.8"/>
<polygon fill="black" stroke="black" points="276.448,-185.761 283.18,-177.58 272.815,-179.777 276.448,-185.761"/>
</g>
<!-- NEXUS&#45;&gt;FASTA -->
<g id="edge18" class="edge"><title>NEXUS&#45;&gt;FASTA</title>
<path fill="none" stroke="black" d="M76.226,-180.22C84.215,-200.85 96.203,-234.78 120.28,-252 211.25,-317.07 263.09,-260.33 367.75,-285.52"/>
<polygon fill="black" stroke="black" points="367.15,-288.981 377.71,-288.12 368.918,-282.208 367.15,-288.981"/>
</g>
<!-- NEXUS&#45;&gt;PHYLIP -->
<g id="edge19" class="edge"><title>NEXUS&#45;&gt;PHYLIP</title>
<path fill="none" stroke="black" d="M97.576,-176.22C118.21,-186.05 145.19,-199.68 166.78,-211.12"/>
<polygon fill="black" stroke="black" points="165.202,-214.245 175.67,-215.88 168.506,-208.074 165.202,-214.245"/>
</g>
<!-- NEXUS&#45;&gt;CLUSTAL -->
<g id="edge20" class="edge"><title>NEXUS&#45;&gt;CLUSTAL</title>
<path fill="none" stroke="black" d="M86.076,-143.7C98.616,-134.63 115.14,-123.4 130.27,-113.65"/>
<polygon fill="black" stroke="black" points="132.427,-116.426 138.98,-108.1 128.666,-110.522 132.427,-116.426"/>
</g>
<!-- NEWICK -->
<g id="node15" class="node"><title>NEWICK</title>
<polygon fill="white" stroke="black" points="81.784,-36 10.784,-36 10.784,-0 81.784,-0 81.784,-36"/>
<text text-anchor="middle" x="46.284" y="-14.3" font-family="Times,serif" font-size="14.00">NEWICK</text>
</g>
<!-- NEXUS&#45;&gt;NEWICK -->
<g id="edge21" class="edge"><title>NEXUS&#45;&gt;NEWICK</title>
<path fill="none" stroke="black" d="M35.069,-145.24C22.454,-135.92 9.5876,-123.02 3.2839,-108 -5.6276,-86.767 5.2087,-62.307 18.397,-44.409"/>
<polygon fill="black" stroke="black" points="21.4595,-46.1844 24.984,-36.193 15.9981,-41.8058 21.4595,-46.1844"/>
</g>
<!-- PHYLOXML -->
<g id="node16" class="node"><title>PHYLOXML</title>
<polygon fill="white" stroke="black" points="113.284,-108 21.284,-108 21.284,-72 113.284,-72 113.284,-108"/>
<text text-anchor="middle" x="67.284" y="-86.3" font-family="Times,serif" font-size="14.00">PHYLOXML</text>
</g>
<!-- NEXUS&#45;&gt;PHYLOXML -->
<g id="edge22" class="edge"><title>NEXUS&#45;&gt;PHYLOXML</title>
<path fill="none" stroke="black" d="M60.615,-143.7C59.93,-135.98 59.836,-126.71 60.301,-118.11"/>
<polygon fill="black" stroke="black" points="63.7924,-118.359 61.145,-108.1 56.8171,-117.771 63.7924,-118.359"/>
</g>
<!-- FASTQ&#45;&gt;FASTA -->
<g id="edge23" class="edge"><title>FASTQ&#45;&gt;FASTA</title>
<path fill="none" stroke="black" d="M629.5,-250.27C627.75,-250.87 626,-251.45 624.28,-252 563.49,-271.42 490.94,-288.57 446.88,-297.81"/>
<polygon fill="black" stroke="black" points="445.95,-294.428 436.86,-299.87 447.36,-301.284 445.95,-294.428"/>
</g>
<!-- QUAL -->
<g id="node17" class="node"><title>QUAL</title>
<polygon fill="white" stroke="black" points="648.28,-108 594.28,-108 594.28,-72 648.28,-72 648.28,-108"/>
<text text-anchor="middle" x="621.28" y="-86.3" font-family="Times,serif" font-size="14.00">QUAL</text>
</g>
<!-- FASTQ&#45;&gt;QUAL -->
<g id="edge24" class="edge"><title>FASTQ&#45;&gt;QUAL</title>
<path fill="none" stroke="black" d="M654.7,-215.87C648.2,-191.56 636.22,-146.82 628.51,-118.01"/>
<polygon fill="black" stroke="black" points="631.848,-116.944 625.88,-108.19 625.086,-118.755 631.848,-116.944"/>
</g>
<!-- FASTQ_and_FASTA_QUAL -->
<g id="node18" class="node"><title>FASTQ_and_FASTA_QUAL</title>
<ellipse fill="none" stroke="black" cx="606.28" cy="-162" rx="3.5" ry="3.5"/>
</g>
<!-- FASTQ&#45;&gt;FASTQ_and_FASTA_QUAL -->
<g id="edge25" class="edge"><title>FASTQ&#45;&gt;FASTQ_and_FASTA_QUAL</title>
<path fill="none" stroke="black" d="M646.18,-215.7C636.15,-202.44 622.63,-184.59 614.19,-173.44"/>
<polygon fill="black" stroke="black" points="616.76,-171.036 607.93,-165.18 611.181,-175.264 616.76,-171.036"/>
</g>
<!-- CLUSTAL&#45;&gt;FASTA -->
<g id="edge26" class="edge"><title>CLUSTAL&#45;&gt;FASTA</title>
<path fill="none" stroke="black" d="M167.76,-108.44C158.5,-140.87 136.71,-210.86 171.28,-252 228.86,-320.51 284.03,-265.65 367.88,-285.49"/>
<polygon fill="black" stroke="black" points="367.144,-288.916 377.71,-288.13 368.96,-282.156 367.144,-288.916"/>
</g>
<!-- CLUSTAL&#45;&gt;PHYLIP -->
<g id="edge27" class="edge"><title>CLUSTAL&#45;&gt;PHYLIP</title>
<path fill="none" stroke="black" d="M178.87,-108.19C187.06,-132.42 197.68,-176.89 202.39,-205.68"/>
<polygon fill="black" stroke="black" points="198.971,-206.486 203.89,-215.87 205.896,-205.467 198.971,-206.486"/>
</g>
<!-- CLUSTAL&#45;&gt;NEXUS -->
<g id="edge28" class="edge"><title>CLUSTAL&#45;&gt;NEXUS</title>
<path fill="none" stroke="black" d="M150.87,-108.03C138.24,-117.18 121.47,-128.57 106.15,-138.45"/>
<polygon fill="black" stroke="black" points="103.901,-135.732 97.338,-144.05 107.655,-141.64 103.901,-135.732"/>
</g>
<!-- CLUSTAL&#45;&gt;STOCKHOLM -->
<g id="edge29" class="edge"><title>CLUSTAL&#45;&gt;STOCKHOLM</title>
<path fill="none" stroke="black" d="M169.56,-71.697C171.11,-63.813 173.75,-54.304 176.75,-45.546"/>
<polygon fill="black" stroke="black" points="180.056,-46.6969 180.26,-36.104 173.495,-44.2577 180.056,-46.6969"/>
</g>
<!-- GENBANK&#45;&gt;FASTA -->
<g id="edge30" class="edge"><title>GENBANK&#45;&gt;FASTA</title>
<path fill="none" stroke="black" d="M478.17,-252.1C468.2,-260.97 454.9,-271.94 442.46,-281.59"/>
<polygon fill="black" stroke="black" points="440.283,-278.849 434.46,-287.7 444.532,-284.412 440.283,-278.849"/>
</g>
<!-- GFF3 -->
<g id="node19" class="node"><title>GFF3</title>
<polygon fill="white" stroke="black" points="528.28,-180 474.28,-180 474.28,-144 528.28,-144 528.28,-180"/>
<text text-anchor="middle" x="501.28" y="-158.3" font-family="Times,serif" font-size="14.00">GFF3</text>
</g>
<!-- GENBANK&#45;&gt;GFF3 -->
<g id="edge31" class="edge"><title>GENBANK&#45;&gt;GFF3</title>
<path fill="none" stroke="black" d="M495.26,-215.7C496.14,-207.98 497.2,-198.71 498.19,-190.11"/>
<polygon fill="black" stroke="black" points="501.676,-190.432 499.33,-180.1 494.721,-189.64 501.676,-190.432"/>
</g>
<!-- EMBL -->
<g id="node20" class="node"><title>EMBL</title>
<polygon fill="white" stroke="black" points="455.78,-180 400.78,-180 400.78,-144 455.78,-144 455.78,-180"/>
<text text-anchor="middle" x="428.28" y="-158.3" font-family="Times,serif" font-size="14.00">EMBL</text>
</g>
<!-- GENBANK&#45;&gt;EMBL -->
<g id="edge32" class="edge"><title>GENBANK&#45;&gt;EMBL</title>
<path fill="none" stroke="black" d="M471.3,-215.7C462.64,-207.3 452.95,-197.07 444.88,-187.86"/>
<polygon fill="black" stroke="black" points="447.419,-185.443 438.27,-180.1 442.09,-189.982 447.419,-185.443"/>
</g>
<!-- TWOBIT&#45;&gt;FASTA -->
<g id="edge33" class="edge"><title>TWOBIT&#45;&gt;FASTA</title>
<path fill="none" stroke="black" d="M351.97,-252.1C362.84,-260.72 375.29,-271.32 385.69,-280.76"/>
<polygon fill="black" stroke="black" points="383.466,-283.471 393.18,-287.7 388.224,-278.336 383.466,-283.471"/>
</g>
<!-- FASTA_QUAL_and_FASTQ&#45;&gt;FASTQ -->
<g id="edge34" class="edge"><title>FASTA_QUAL_and_FASTQ&#45;&gt;FASTQ</title>
<path fill="none" stroke="black" d="M623.48,-21.165C630.16,-27.92 650.21,-49.504 657.28,-72 671.44,-117.04 667.79,-172.73 663.66,-205.42"/>
<polygon fill="black" stroke="black" points="660.159,-205.188 662.27,-215.57 667.095,-206.137 660.159,-205.188"/>
</g>
<!-- STOCKHOLM&#45;&gt;PHYLIP -->
<g id="edge35" class="edge"><title>STOCKHOLM&#45;&gt;PHYLIP</title>
<path fill="none" stroke="black" d="M210.26,-36.389C217.02,-46.385 223.36,-59.421 226.28,-72 237.04,-118.36 227.4,-173.98 217.04,-206.22"/>
<polygon fill="black" stroke="black" points="213.677,-205.235 213.68,-215.83 220.284,-207.546 213.677,-205.235"/>
</g>
<!-- STOCKHOLM&#45;&gt;CLUSTAL -->
<g id="edge36" class="edge"><title>STOCKHOLM&#45;&gt;CLUSTAL</title>
<path fill="none" stroke="black" d="M192.05,-36.104C190.51,-43.96 187.89,-53.462 184.9,-62.232"/>
<polygon fill="black" stroke="black" points="181.585,-61.104 181.39,-71.697 188.149,-63.5379 181.585,-61.104"/>
</g>
<!-- XMFA&#45;&gt;PHYLIP -->
<g id="edge37" class="edge"><title>XMFA&#45;&gt;PHYLIP</title>
<path fill="none" stroke="black" d="M290.89,-180.03C277.62,-189.26 260,-200.78 243.99,-210.72"/>
<polygon fill="black" stroke="black" points="242,-207.835 235.31,-216.05 245.663,-213.8 242,-207.835"/>
</g>
<!-- NEWICK&#45;&gt;NEXUS -->
<g id="edge38" class="edge"><title>NEWICK&#45;&gt;NEXUS</title>
<path fill="none" stroke="black" d="M38.423,-36.193C27.284,-54.215 10.914,-83.292 21.284,-108 25.877,-118.94 33.953,-128.76 42.087,-136.89"/>
<polygon fill="black" stroke="black" points="39.7986,-139.543 49.474,-143.86 44.6026,-134.451 39.7986,-139.543"/>
</g>
<!-- NEWICK&#45;&gt;PHYLOXML -->
<g id="edge39" class="edge"><title>NEWICK&#45;&gt;PHYLOXML</title>
<path fill="none" stroke="black" d="M57.31,-36.104C60.456,-43.876 63.503,-53.257 65.761,-61.949"/>
<polygon fill="black" stroke="black" points="62.3513,-62.7393 68.009,-71.697 69.1723,-61.1662 62.3513,-62.7393"/>
</g>
<!-- PHYLOXML&#45;&gt;NEXUS -->
<g id="edge40" class="edge"><title>PHYLOXML&#45;&gt;NEXUS</title>
<path fill="none" stroke="black" d="M72.935,-108.1C73.63,-115.79 73.734,-125.05 73.278,-133.67"/>
<polygon fill="black" stroke="black" points="69.7847,-133.445 72.447,-143.7 76.7608,-134.023 69.7847,-133.445"/>
</g>
<!-- PHYLOXML&#45;&gt;NEWICK -->
<g id="edge41" class="edge"><title>PHYLOXML&#45;&gt;NEWICK</title>
<path fill="none" stroke="black" d="M56.177,-71.697C53.067,-63.983 50.06,-54.712 47.822,-46.112"/>
<polygon fill="black" stroke="black" points="51.1726,-45.0649 45.52,-36.104 44.3508,-46.6341 51.1726,-45.0649"/>
</g>
<!-- QUAL&#45;&gt;FASTA_QUAL_and_FASTQ -->
<g id="edge42" class="edge"><title>QUAL&#45;&gt;FASTA_QUAL_and_FASTQ</title>
<path fill="none" stroke="black" d="M621.28,-71.697C621.28,-59.358 621.28,-43.039 621.28,-31.848"/>
<polygon fill="black" stroke="black" points="624.78,-31.614 621.28,-21.614 617.78,-31.614 624.78,-31.614"/>
</g>
<!-- FASTQ_and_FASTA_QUAL&#45;&gt;FASTA -->
<g id="edge43" class="edge"><title>FASTQ_and_FASTA_QUAL&#45;&gt;FASTA</title>
<path fill="none" stroke="black" d="M606.25,-165.63C605.96,-177.47 603.19,-226.42 577.28,-252 542.4,-286.45 485.49,-298.55 447.24,-302.78"/>
<polygon fill="black" stroke="black" points="446.593,-299.326 436.98,-303.78 447.272,-306.293 446.593,-299.326"/>
</g>
<!-- FASTQ_and_FASTA_QUAL&#45;&gt;QUAL -->
<g id="edge44" class="edge"><title>FASTQ_and_FASTA_QUAL&#45;&gt;QUAL</title>
<path fill="none" stroke="black" d="M606.85,-158.34C608.28,-151.7 612.11,-133.81 615.47,-118.14"/>
<polygon fill="black" stroke="black" points="618.905,-118.812 617.58,-108.3 612.061,-117.344 618.905,-118.812"/>
</g>
<!-- GFF2 -->
<g id="node21" class="node"><title>GFF2</title>
<polygon fill="white" stroke="black" points="528.28,-108 474.28,-108 474.28,-72 528.28,-72 528.28,-108"/>
<text text-anchor="middle" x="501.28" y="-86.3" font-family="Times,serif" font-size="14.00">GFF2</text>
</g>
<!-- GFF3&#45;&gt;GFF2 -->
<g id="edge45" class="edge"><title>GFF3&#45;&gt;GFF2</title>
<path fill="none" stroke="black" d="M495.37,-143.7C494.57,-135.98 494.35,-126.71 494.69,-118.11"/>
<polygon fill="black" stroke="black" points="498.184,-118.32 495.39,-108.1 491.201,-117.831 498.184,-118.32"/>
</g>
<!-- EMBL&#45;&gt;FASTA -->
<g id="edge46" class="edge"><title>EMBL&#45;&gt;FASTA</title>
<path fill="none" stroke="black" d="M400.68,-169.06C362.37,-178.1 296.17,-196.18 282.28,-216 273.1,-229.1 273.42,-238.68 282.28,-252 305.24,-286.5 330.18,-271.72 368.28,-288 368.38,-288.04 368.47,-288.08 368.56,-288.12"/>
<polygon fill="black" stroke="black" points="366.921,-291.225 377.49,-291.96 369.686,-284.794 366.921,-291.225"/>
</g>
<!-- EMBL&#45;&gt;GENBANK -->
<g id="edge47" class="edge"><title>EMBL&#45;&gt;GENBANK</title>
<path fill="none" stroke="black" d="M450.06,-180.1C458.7,-188.47 468.4,-198.69 476.5,-207.92"/>
<polygon fill="black" stroke="black" points="473.98,-210.359 483.13,-215.7 479.308,-205.819 473.98,-210.359"/>
</g>
<!-- GFF2&#45;&gt;GFF3 -->
<g id="edge78" class="edge"><title>GFF2&#45;&gt;GFF3</title>
<path fill="none" stroke="black" d="M507.18,-108.1C507.98,-115.79 508.22,-125.05 507.89,-133.67"/>
<polygon fill="black" stroke="black" points="504.395,-133.483 507.2,-143.7 511.378,-133.964 504.395,-133.483"/>
</g>
<!-- BAM -->
<g id="node22" class="node"><title>BAM</title>
<polygon fill="orange" stroke="black" points="837.28,-468 783.28,-468 783.28,-432 837.28,-432 837.28,-468"/>
<text text-anchor="middle" x="810.28" y="-446.3" font-family="Times,serif" font-size="14.00">BAM</text>
</g>
<!-- BAM&#45;&gt;TSV -->
<g id="edge48" class="edge"><title>BAM&#45;&gt;TSV</title>
<path fill="none" stroke="black" d="M837.47,-447.67C932.26,-442.84 1248.4,-425.1 1368.2,-395.62"/>
<polygon fill="black" stroke="black" points="1369.32,-398.944 1378.1,-393.01 1367.54,-392.175 1369.32,-398.944"/>
</g>
<!-- BAM&#45;&gt;FASTA -->
<g id="edge49" class="edge"><title>BAM&#45;&gt;FASTA</title>
<path fill="none" stroke="black" d="M783.24,-447.49C696.79,-442.37 431.24,-424.45 406.28,-396 391.68,-379.36 393.74,-353.47 398.38,-333.9"/>
<polygon fill="black" stroke="black" points="401.812,-334.617 401.05,-324.05 395.056,-332.786 401.812,-334.617"/>
</g>
<!-- BAM&#45;&gt;FASTQ -->
<g id="edge50" class="edge"><title>BAM&#45;&gt;FASTQ</title>
<path fill="none" stroke="black" d="M783.22,-446.71C746.23,-442.36 679.34,-430.06 634.28,-396 592.67,-364.53 564.9,-334.64 588.28,-288 595.34,-273.92 608.11,-262.63 620.89,-254.14"/>
<polygon fill="black" stroke="black" points="622.999,-256.951 629.67,-248.72 619.322,-250.995 622.999,-256.951"/>
</g>
<!-- COV -->
<g id="node23" class="node"><title>COV</title>
<polygon fill="white" stroke="black" points="992.28,-252 938.28,-252 938.28,-216 992.28,-216 992.28,-252"/>
<text text-anchor="middle" x="965.28" y="-230.3" font-family="Times,serif" font-size="14.00">COV</text>
</g>
<!-- BAM&#45;&gt;COV -->
<g id="edge51" class="edge"><title>BAM&#45;&gt;COV</title>
<path fill="none" stroke="black" d="M837.68,-440.8C860.11,-432.76 891.15,-418.42 910.28,-396 914.8,-390.71 942.44,-306.07 956.73,-261.69"/>
<polygon fill="black" stroke="black" points="960.081,-262.701 959.81,-252.11 953.417,-260.559 960.081,-262.701"/>
</g>
<!-- WIGGLE -->
<g id="node24" class="node"><title>WIGGLE</title>
<polygon fill="yellow" stroke="black" points="1186.8,-252 1115.8,-252 1115.8,-216 1186.8,-216 1186.8,-252"/>
<text text-anchor="middle" x="1151.3" y="-230.3" font-family="Times,serif" font-size="14.00">WIGGLE</text>
</g>
<!-- BAM&#45;&gt;WIGGLE -->
<g id="edge52" class="edge"><title>BAM&#45;&gt;WIGGLE</title>
<path fill="none" stroke="black" d="M837.58,-446.53C896.99,-440.67 1035.6,-424.28 1072.3,-396 1115.9,-362.33 1137,-298.24 1145.8,-261.9"/>
<polygon fill="black" stroke="black" points="1149.24,-262.543 1148.1,-252.01 1142.43,-260.957 1149.24,-262.543"/>
</g>
<!-- CRAM -->
<g id="node25" class="node"><title>CRAM</title>
<polygon fill="yellow" stroke="black" points="772.78,-396 715.78,-396 715.78,-360 772.78,-360 772.78,-396"/>
<text text-anchor="middle" x="744.28" y="-374.3" font-family="Times,serif" font-size="14.00">CRAM</text>
</g>
<!-- BAM&#45;&gt;CRAM -->
<g id="edge53" class="edge"><title>BAM&#45;&gt;CRAM</title>
<path fill="none" stroke="black" d="M788.05,-431.7C779.28,-423.3 769.43,-413.07 761.23,-403.86"/>
<polygon fill="black" stroke="black" points="763.708,-401.375 754.52,-396.1 758.413,-405.954 763.708,-401.375"/>
</g>
<!-- JSON -->
<g id="node26" class="node"><title>JSON</title>
<polygon fill="white" stroke="black" points="358.28,-396 304.28,-396 304.28,-360 358.28,-360 358.28,-396"/>
<text text-anchor="middle" x="331.28" y="-374.3" font-family="Times,serif" font-size="14.00">JSON</text>
</g>
<!-- BAM&#45;&gt;JSON -->
<g id="edge54" class="edge"><title>BAM&#45;&gt;JSON</title>
<path fill="none" stroke="black" d="M783.22,-448.19C713.95,-445.59 524.98,-435.16 373.28,-396 371.61,-395.57 369.91,-395.08 368.21,-394.56"/>
<polygon fill="black" stroke="black" points="369.095,-391.163 358.5,-391.22 366.818,-397.782 369.095,-391.163"/>
</g>
<!-- BIGWIG -->
<g id="node27" class="node"><title>BIGWIG</title>
<polygon fill="white" stroke="black" points="1063.3,-396 995.3,-396 995.3,-360 1063.3,-360 1063.3,-396"/>
<text text-anchor="middle" x="1029.3" y="-374.3" font-family="Times,serif" font-size="14.00">BIGWIG</text>
</g>
<!-- BAM&#45;&gt;BIGWIG -->
<g id="edge55" class="edge"><title>BAM&#45;&gt;BIGWIG</title>
<path fill="none" stroke="black" d="M837.34,-440.98C871.14,-430.87 930.69,-412.79 981.28,-396 982.7,-395.53 984.14,-395.05 985.59,-394.56"/>
<polygon fill="black" stroke="black" points="986.931,-397.8 995.25,-391.24 984.655,-391.18 986.931,-397.8"/>
</g>
<!-- SAM -->
<g id="node28" class="node"><title>SAM</title>
<polygon fill="yellow" stroke="black" points="837.28,-324 783.28,-324 783.28,-288 837.28,-288 837.28,-324"/>
<text text-anchor="middle" x="810.28" y="-302.3" font-family="Times,serif" font-size="14.00">SAM</text>
</g>
<!-- BAM&#45;&gt;SAM -->
<g id="edge56" class="edge"><title>BAM&#45;&gt;SAM</title>
<path fill="none" stroke="black" d="M805.7,-431.87C803.14,-407.67 802.85,-363.21 804.82,-334.39"/>
<polygon fill="black" stroke="black" points="808.327,-334.451 805.69,-324.19 801.353,-333.856 808.327,-334.451"/>
</g>
<!-- BEDGRAPH -->
<g id="node29" class="node"><title>BEDGRAPH</title>
<polygon fill="yellow" stroke="black" points="1046.8,-324 957.8,-324 957.8,-288 1046.8,-288 1046.8,-324"/>
<text text-anchor="middle" x="1002.3" y="-302.3" font-family="Times,serif" font-size="14.00">BEDGRAPH</text>
</g>
<!-- BAM&#45;&gt;BEDGRAPH -->
<g id="edge57" class="edge"><title>BAM&#45;&gt;BEDGRAPH</title>
<path fill="none" stroke="black" d="M837.47,-443.28C866.24,-436.14 911.74,-421.63 943.28,-396 964.18,-379.02 980.36,-352.66 990.44,-333.03"/>
<polygon fill="black" stroke="black" points="993.605,-334.525 994.9,-324.01 987.33,-331.423 993.605,-334.525"/>
</g>
<!-- CRAM&#45;&gt;FASTA -->
<g id="edge58" class="edge"><title>CRAM&#45;&gt;FASTA</title>
<path fill="none" stroke="black" d="M715.52,-363.26C712.44,-362.05 709.32,-360.93 706.28,-360 615.91,-332.24 505.42,-317.36 447.35,-310.94"/>
<polygon fill="black" stroke="black" points="447.447,-307.43 437.13,-309.84 446.698,-314.39 447.447,-307.43"/>
</g>
<!-- CRAM&#45;&gt;FASTQ -->
<g id="edge59" class="edge"><title>CRAM&#45;&gt;FASTQ</title>
<path fill="none" stroke="black" d="M734.03,-359.87C719.29,-335.24 691.99,-289.64 674.78,-260.88"/>
<polygon fill="black" stroke="black" points="677.714,-258.967 669.57,-252.19 671.71,-262.566 677.714,-258.967"/>
</g>
<!-- CRAM&#45;&gt;BAM -->
<g id="edge60" class="edge"><title>CRAM&#45;&gt;BAM</title>
<path fill="none" stroke="black" d="M766.31,-396.1C775.07,-404.47 784.91,-414.69 793.14,-423.92"/>
<polygon fill="black" stroke="black" points="790.693,-426.44 799.89,-431.7 795.98,-421.853 790.693,-426.44"/>
</g>
<!-- CRAM&#45;&gt;SAM -->
<g id="edge61" class="edge"><title>CRAM&#45;&gt;SAM</title>
<path fill="none" stroke="black" d="M754.68,-359.7C761.87,-351.14 771.57,-340.66 780.91,-331.3"/>
<polygon fill="black" stroke="black" points="783.566,-333.598 788.26,-324.1 778.667,-328.598 783.566,-333.598"/>
</g>
<!-- YAML -->
<g id="node30" class="node"><title>YAML</title>
<polygon fill="white" stroke="black" points="359.78,-324 302.78,-324 302.78,-288 359.78,-288 359.78,-324"/>
<text text-anchor="middle" x="331.28" y="-302.3" font-family="Times,serif" font-size="14.00">YAML</text>
</g>
<!-- JSON&#45;&gt;YAML -->
<g id="edge62" class="edge"><title>JSON&#45;&gt;YAML</title>
<path fill="none" stroke="black" d="M325.37,-359.7C324.57,-351.98 324.35,-342.71 324.69,-334.11"/>
<polygon fill="black" stroke="black" points="328.184,-334.32 325.39,-324.1 321.201,-333.831 328.184,-334.32"/>
</g>
<!-- BIGWIG&#45;&gt;WIGGLE -->
<g id="edge63" class="edge"><title>BIGWIG&#45;&gt;WIGGLE</title>
<path fill="none" stroke="black" d="M1041.9,-359.82C1055.5,-341.57 1078.1,-312.06 1099.3,-288 1107.8,-278.32 1117.6,-268.11 1126.4,-259.27"/>
<polygon fill="black" stroke="black" points="1128.88,-261.743 1133.5,-252.21 1123.94,-256.779 1128.88,-261.743"/>
</g>
<!-- BIGWIG&#45;&gt;BEDGRAPH -->
<g id="edge64" class="edge"><title>BIGWIG&#45;&gt;BEDGRAPH</title>
<path fill="none" stroke="black" d="M1016.7,-359.7C1012.9,-351.9 1009,-342.51 1006,-333.83"/>
<polygon fill="black" stroke="black" points="1009.29,-332.625 1003,-324.1 1002.6,-334.687 1009.29,-332.625"/>
</g>
<!-- SAM&#45;&gt;BAM -->
<g id="edge65" class="edge"><title>SAM&#45;&gt;BAM</title>
<path fill="none" stroke="black" d="M814.87,-324.19C817.43,-348.42 817.72,-392.89 815.74,-421.68"/>
<polygon fill="black" stroke="black" points="812.233,-421.608 814.87,-431.87 819.208,-422.204 812.233,-421.608"/>
</g>
<!-- SAM&#45;&gt;CRAM -->
<g id="edge66" class="edge"><title>SAM&#45;&gt;CRAM</title>
<path fill="none" stroke="black" d="M800.05,-324.1C792.9,-332.64 783.22,-343.11 773.88,-352.48"/>
<polygon fill="black" stroke="black" points="771.204,-350.202 766.51,-359.7 776.103,-355.202 771.204,-350.202"/>
</g>
<!-- PAF -->
<g id="node31" class="node"><title>PAF</title>
<polygon fill="white" stroke="black" points="837.28,-252 783.28,-252 783.28,-216 837.28,-216 837.28,-252"/>
<text text-anchor="middle" x="810.28" y="-230.3" font-family="Times,serif" font-size="14.00">PAF</text>
</g>
<!-- SAM&#45;&gt;PAF -->
<g id="edge67" class="edge"><title>SAM&#45;&gt;PAF</title>
<path fill="none" stroke="black" d="M810.28,-287.7C810.28,-279.98 810.28,-270.71 810.28,-262.11"/>
<polygon fill="black" stroke="black" points="813.78,-262.1 810.28,-252.1 806.78,-262.1 813.78,-262.1"/>
</g>
<!-- BEDGRAPH&#45;&gt;COV -->
<g id="edge68" class="edge"><title>BEDGRAPH&#45;&gt;COV</title>
<path fill="none" stroke="black" d="M993.14,-287.7C988.88,-279.64 983.73,-269.89 979.02,-260.98"/>
<polygon fill="black" stroke="black" points="982.091,-259.301 974.32,-252.1 975.905,-262.576 982.091,-259.301"/>
</g>
<!-- BEDGRAPH&#45;&gt;WIGGLE -->
<g id="edge69" class="edge"><title>BEDGRAPH&#45;&gt;WIGGLE</title>
<path fill="none" stroke="black" d="M1038.7,-287.88C1059.1,-278.29 1084.8,-266.25 1106.4,-256.08"/>
<polygon fill="black" stroke="black" points="1108.14,-259.131 1115.7,-251.71 1105.16,-252.795 1108.14,-259.131"/>
</g>
<!-- BEDGRAPH&#45;&gt;BIGWIG -->
<g id="edge70" class="edge"><title>BEDGRAPH&#45;&gt;BIGWIG</title>
<path fill="none" stroke="black" d="M1014.8,-324.1C1018.6,-331.88 1022.4,-341.26 1025.4,-349.95"/>
<polygon fill="black" stroke="black" points="1022.13,-351.231 1028.5,-359.7 1028.81,-349.11 1022.13,-351.231"/>
</g>
<!-- YAML&#45;&gt;JSON -->
<g id="edge71" class="edge"><title>YAML&#45;&gt;JSON</title>
<path fill="none" stroke="black" d="M337.18,-324.1C337.98,-331.79 338.22,-341.05 337.89,-349.67"/>
<polygon fill="black" stroke="black" points="334.395,-349.483 337.2,-359.7 341.378,-349.964 334.395,-349.483"/>
</g>
<!-- BED -->
<g id="node32" class="node"><title>BED</title>
<polygon fill="white" stroke="black" points="1233.3,-324 1179.3,-324 1179.3,-288 1233.3,-288 1233.3,-324"/>
<text text-anchor="middle" x="1206.3" y="-302.3" font-family="Times,serif" font-size="14.00">BED</text>
</g>
<!-- BED&#45;&gt;WIGGLE -->
<g id="edge72" class="edge"><title>BED&#45;&gt;WIGGLE</title>
<path fill="none" stroke="black" d="M1192.7,-287.7C1186.2,-279.39 1178.2,-269.28 1171,-260.14"/>
<polygon fill="black" stroke="black" points="1173.62,-257.813 1164.7,-252.1 1168.11,-262.13 1173.62,-257.813"/>
</g>
<!-- DSRC -->
<g id="node33" class="node"><title>DSRC</title>
<polygon fill="white" stroke="black" points="1612.3,-540 1558.3,-540 1558.3,-504 1612.3,-504 1612.3,-540"/>
<text text-anchor="middle" x="1585.3" y="-518.3" font-family="Times,serif" font-size="14.00">DSRC</text>
</g>
<!-- GZ -->
<g id="node34" class="node"><title>GZ</title>
<polygon fill="white" stroke="black" points="1612.3,-468 1558.3,-468 1558.3,-432 1612.3,-432 1612.3,-468"/>
<text text-anchor="middle" x="1585.3" y="-446.3" font-family="Times,serif" font-size="14.00">GZ</text>
</g>
<!-- DSRC&#45;&gt;GZ -->
<g id="edge73" class="edge"><title>DSRC&#45;&gt;GZ</title>
<path fill="none" stroke="black" d="M1579.4,-503.7C1578.6,-495.98 1578.3,-486.71 1578.7,-478.11"/>
<polygon fill="black" stroke="black" points="1582.19,-478.32 1579.4,-468.1 1575.21,-477.831 1582.19,-478.32"/>
</g>
<!-- GZ&#45;&gt;DSRC -->
<g id="edge74" class="edge"><title>GZ&#45;&gt;DSRC</title>
<path fill="none" stroke="black" d="M1591.2,-468.1C1592,-475.79 1592.2,-485.05 1591.9,-493.67"/>
<polygon fill="black" stroke="black" points="1588.4,-493.481 1591.2,-503.7 1595.39,-493.968 1588.4,-493.481"/>
</g>
<!-- BZ2 -->
<g id="node35" class="node"><title>BZ2</title>
<polygon fill="white" stroke="black" points="1612.3,-396 1558.3,-396 1558.3,-360 1612.3,-360 1612.3,-396"/>
<text text-anchor="middle" x="1585.3" y="-374.3" font-family="Times,serif" font-size="14.00">BZ2</text>
</g>
<!-- GZ&#45;&gt;BZ2 -->
<g id="edge75" class="edge"><title>GZ&#45;&gt;BZ2</title>
<path fill="none" stroke="black" d="M1579.4,-431.7C1578.6,-423.98 1578.3,-414.71 1578.7,-406.11"/>
<polygon fill="black" stroke="black" points="1582.19,-406.32 1579.4,-396.1 1575.21,-405.831 1582.19,-406.32"/>
</g>
<!-- BZ2&#45;&gt;GZ -->
<g id="edge76" class="edge"><title>BZ2&#45;&gt;GZ</title>
<path fill="none" stroke="black" d="M1591.2,-396.1C1592,-403.79 1592.2,-413.05 1591.9,-421.67"/>
<polygon fill="black" stroke="black" points="1588.4,-421.481 1591.2,-431.7 1595.39,-421.968 1588.4,-421.481"/>
</g>
<!-- SRA -->
<g id="node36" class="node"><title>SRA</title>
<polygon fill="white" stroke="black" points="651.28,-324 597.28,-324 597.28,-288 651.28,-288 651.28,-324"/>
<text text-anchor="middle" x="624.28" y="-302.3" font-family="Times,serif" font-size="14.00">SRA</text>
</g>
<!-- SRA&#45;&gt;FASTQ -->
<g id="edge77" class="edge"><title>SRA&#45;&gt;FASTQ</title>
<path fill="none" stroke="black" d="M632.94,-287.7C636.92,-279.73 641.73,-270.1 646.15,-261.26"/>
<polygon fill="black" stroke="black" points="649.388,-262.61 650.73,-252.1 643.127,-259.479 649.388,-262.61"/>
</g>
<!-- BCF -->
<g id="node37" class="node"><title>BCF</title>
<polygon fill="white" stroke="black" points="1305.3,-324 1251.3,-324 1251.3,-288 1305.3,-288 1305.3,-324"/>
<text text-anchor="middle" x="1278.3" y="-302.3" font-family="Times,serif" font-size="14.00">BCF</text>
</g>
<!-- BCF&#45;&gt;WIGGLE -->
<g id="edge79" class="edge"><title>BCF&#45;&gt;WIGGLE</title>
<path fill="none" stroke="black" d="M1251,-289.98C1233.7,-280.41 1210.9,-267.84 1191.4,-257.14"/>
<polygon fill="black" stroke="black" points="1192.94,-253.994 1182.5,-252.21 1189.55,-260.117 1192.94,-253.994"/>
</g>
<!-- VCF -->
<g id="node38" class="node"><title>VCF</title>
<polygon fill="yellow" stroke="black" points="1360.3,-396 1306.3,-396 1306.3,-360 1360.3,-360 1360.3,-396"/>
<text text-anchor="middle" x="1333.3" y="-374.3" font-family="Times,serif" font-size="14.00">VCF</text>
</g>
<!-- BCF&#45;&gt;VCF -->
<g id="edge80" class="edge"><title>BCF&#45;&gt;VCF</title>
<path fill="none" stroke="black" d="M1297.6,-324.1C1304.9,-332.3 1313,-342.28 1319.7,-351.36"/>
<polygon fill="black" stroke="black" points="1316.97,-353.558 1325.6,-359.7 1322.68,-349.515 1316.97,-353.558"/>
</g>
<!-- VCF&#45;&gt;WIGGLE -->
<g id="edge81" class="edge"><title>VCF&#45;&gt;WIGGLE</title>
<path fill="none" stroke="black" d="M1334.4,-359.67C1334.7,-339.89 1332.1,-307.72 1314.3,-288 1284.5,-254.96 1234,-242.43 1197,-237.73"/>
<polygon fill="black" stroke="black" points="1197.33,-234.245 1187,-236.6 1196.54,-241.201 1197.33,-234.245"/>
</g>
<!-- VCF&#45;&gt;BED -->
<g id="edge82" class="edge"><title>VCF&#45;&gt;BED</title>
<path fill="none" stroke="black" d="M1306,-361.98C1287.5,-351.74 1262.6,-338.07 1242.4,-326.92"/>
<polygon fill="black" stroke="black" points="1243.94,-323.774 1233.5,-321.99 1240.55,-329.897 1243.94,-323.774"/>
</g>
<!-- VCF&#45;&gt;BCF -->
<g id="edge83" class="edge"><title>VCF&#45;&gt;BCF</title>
<path fill="none" stroke="black" d="M1313.8,-359.7C1306.5,-351.47 1298.4,-341.48 1291.7,-332.42"/>
<polygon fill="black" stroke="black" points="1294.44,-330.233 1285.8,-324.1 1288.73,-334.282 1294.44,-330.233"/>
</g>
<!-- BPLINK -->
<g id="node39" class="node"><title>BPLINK</title>
<polygon fill="white" stroke="black" points="1482.8,-324 1417.8,-324 1417.8,-288 1482.8,-288 1482.8,-324"/>
<text text-anchor="middle" x="1450.3" y="-302.3" font-family="Times,serif" font-size="14.00">BPLINK</text>
</g>
<!-- VCF&#45;&gt;BPLINK -->
<g id="edge84" class="edge"><title>VCF&#45;&gt;BPLINK</title>
<path fill="none" stroke="black" d="M1356,-359.88C1370.9,-350.36 1390.7,-338.44 1408.4,-328.33"/>
<polygon fill="black" stroke="black" points="1410.43,-331.205 1417.4,-323.23 1406.97,-325.115 1410.43,-331.205"/>
</g>
<!-- PLINK -->
<g id="node40" class="node"><title>PLINK</title>
<polygon fill="white" stroke="black" points="1443.3,-252 1387.3,-252 1387.3,-216 1443.3,-216 1443.3,-252"/>
<text text-anchor="middle" x="1415.3" y="-230.3" font-family="Times,serif" font-size="14.00">PLINK</text>
</g>
<!-- VCF&#45;&gt;PLINK -->
<g id="edge85" class="edge"><title>VCF&#45;&gt;PLINK</title>
<path fill="none" stroke="black" d="M1338.6,-359.87C1350.2,-335.24 1376.3,-289.64 1395,-260.88"/>
<polygon fill="black" stroke="black" points="1398.16,-262.451 1400.8,-252.19 1392.34,-258.565 1398.16,-262.451"/>
</g>
<!-- BPLINK&#45;&gt;VCF -->
<g id="edge86" class="edge"><title>BPLINK&#45;&gt;VCF</title>
<path fill="none" stroke="black" d="M1427.5,-324.16C1410.9,-334.73 1388.4,-348.26 1369.4,-358.98"/>
<polygon fill="black" stroke="black" points="1367.43,-356.072 1360.4,-364 1370.84,-362.185 1367.43,-356.072"/>
</g>
<!-- BPLINK&#45;&gt;PLINK -->
<g id="edge87" class="edge"><title>BPLINK&#45;&gt;PLINK</title>
<path fill="none" stroke="black" d="M1435.7,-287.7C1431,-279.81 1426,-270.3 1422,-261.55"/>
<polygon fill="black" stroke="black" points="1425.09,-259.881 1417.9,-252.1 1418.67,-262.667 1425.09,-259.881"/>
</g>
<!-- PLINK&#45;&gt;VCF -->
<g id="edge88" class="edge"><title>PLINK&#45;&gt;VCF</title>
<path fill="none" stroke="black" d="M1409.9,-252.19C1398.3,-276.85 1372.2,-322.46 1353.5,-351.19"/>
<polygon fill="black" stroke="black" points="1350.36,-349.59 1347.8,-359.87 1356.21,-353.432 1350.36,-349.59"/>
</g>
<!-- PLINK&#45;&gt;BPLINK -->
<g id="edge89" class="edge"><title>PLINK&#45;&gt;BPLINK</title>
<path fill="none" stroke="black" d="M1429.7,-252.1C1434.5,-259.96 1439.5,-269.46 1443.5,-278.23"/>
<polygon fill="black" stroke="black" points="1440.38,-279.85 1447.5,-287.7 1446.83,-277.126 1440.38,-279.85"/>
</g>
<!-- BIGBED -->
<g id="node41" class="node"><title>BIGBED</title>
<polygon fill="white" stroke="black" points="1208.8,-396 1141.8,-396 1141.8,-360 1208.8,-360 1208.8,-396"/>
<text text-anchor="middle" x="1175.3" y="-374.3" font-family="Times,serif" font-size="14.00">BIGBED</text>
</g>
<!-- BIGBED&#45;&gt;WIGGLE -->
<g id="edge90" class="edge"><title>BIGBED&#45;&gt;WIGGLE</title>
<path fill="none" stroke="black" d="M1172.4,-359.87C1168.3,-335.67 1160.8,-291.21 1155.9,-262.39"/>
<polygon fill="black" stroke="black" points="1159.3,-261.479 1154.2,-252.19 1152.39,-262.629 1159.3,-261.479"/>
</g>
<!-- BIGBED&#45;&gt;BED -->
<g id="edge91" class="edge"><title>BIGBED&#45;&gt;BED</title>
<path fill="none" stroke="black" d="M1182.9,-359.7C1186.5,-351.73 1190.7,-342.1 1194.7,-333.26"/>
<polygon fill="black" stroke="black" points="1197.91,-334.665 1198.7,-324.1 1191.49,-331.864 1197.91,-334.665"/>
</g>
<!-- ABI -->
<g id="node42" class="node"><title>ABI</title>
<polygon fill="white" stroke="black" points="697.28,-396 643.28,-396 643.28,-360 697.28,-360 697.28,-396"/>
<text text-anchor="middle" x="670.28" y="-374.3" font-family="Times,serif" font-size="14.00">ABI</text>
</g>
<!-- ABI&#45;&gt;FASTA -->
<g id="edge92" class="edge"><title>ABI&#45;&gt;FASTA</title>
<path fill="none" stroke="black" d="M643.13,-369.77C596.52,-357.37 501.11,-331.97 447.02,-317.58"/>
<polygon fill="black" stroke="black" points="447.664,-314.13 437.1,-314.94 445.863,-320.894 447.664,-314.13"/>
</g>
<!-- ABI&#45;&gt;FASTQ -->
<g id="edge93" class="edge"><title>ABI&#45;&gt;FASTQ</title>
<path fill="none" stroke="black" d="M668.96,-359.87C667.08,-335.67 663.64,-291.21 661.41,-262.39"/>
<polygon fill="black" stroke="black" points="664.882,-261.89 660.62,-252.19 657.903,-262.43 664.882,-261.89"/>
</g>
<!-- ABI&#45;&gt;QUAL -->
<g id="edge94" class="edge"><title>ABI&#45;&gt;QUAL</title>
<path fill="none" stroke="black" d="M677.99,-359.83C690.25,-330.12 711.45,-267.36 697.28,-216 686.77,-177.89 660.95,-139.92 642.32,-116"/>
<polygon fill="black" stroke="black" points="645.031,-113.786 636.06,-108.15 639.558,-118.151 645.031,-113.786"/>
</g>
<!-- WIG -->
<g id="node43" class="node"><title>WIG</title>
<polygon fill="white" stroke="black" points="1281.3,-396 1227.3,-396 1227.3,-360 1281.3,-360 1281.3,-396"/>
<text text-anchor="middle" x="1254.3" y="-374.3" font-family="Times,serif" font-size="14.00">WIG</text>
</g>
<!-- WIG&#45;&gt;BED -->
<g id="edge95" class="edge"><title>WIG&#45;&gt;BED</title>
<path fill="none" stroke="black" d="M1242.4,-359.7C1236.8,-351.47 1229.9,-341.48 1223.7,-332.42"/>
<polygon fill="black" stroke="black" points="1226.54,-330.372 1218,-324.1 1220.76,-334.328 1226.54,-330.372"/>
</g>
<!-- SCF -->
<g id="node44" class="node"><title>SCF</title>
<polygon fill="white" stroke="black" points="541.28,-396 487.28,-396 487.28,-360 541.28,-360 541.28,-396"/>
<text text-anchor="middle" x="514.28" y="-374.3" font-family="Times,serif" font-size="14.00">SCF</text>
</g>
<!-- SCF&#45;&gt;FASTA -->
<g id="edge96" class="edge"><title>SCF&#45;&gt;FASTA</title>
<path fill="none" stroke="black" d="M488.11,-359.88C474.25,-350.81 457.04,-339.55 442.07,-329.76"/>
<polygon fill="black" stroke="black" points="443.844,-326.738 433.56,-324.19 440.01,-332.595 443.844,-326.738"/>
</g>
<!-- SCF&#45;&gt;FASTQ -->
<g id="edge97" class="edge"><title>SCF&#45;&gt;FASTQ</title>
<path fill="none" stroke="black" d="M518.47,-359.98C524.01,-340.5 535.48,-308.61 555.28,-288 565.06,-277.83 594.96,-263.05 620.2,-251.68"/>
<polygon fill="black" stroke="black" points="621.885,-254.761 629.6,-247.5 619.041,-248.365 621.885,-254.761"/>
</g>
<!-- GFA -->
<g id="node45" class="node"><title>GFA</title>
<polygon fill="white" stroke="black" points="469.28,-396 415.28,-396 415.28,-360 469.28,-360 469.28,-396"/>
<text text-anchor="middle" x="442.28" y="-374.3" font-family="Times,serif" font-size="14.00">GFA</text>
</g>
<!-- GFA&#45;&gt;FASTA -->
<g id="edge98" class="edge"><title>GFA&#45;&gt;FASTA</title>
<path fill="none" stroke="black" d="M433.63,-359.7C429.65,-351.73 424.83,-342.1 420.42,-333.26"/>
<polygon fill="black" stroke="black" points="423.443,-331.479 415.84,-324.1 417.182,-334.61 423.443,-331.479"/>
</g>
<!-- ODS -->
<g id="node46" class="node"><title>ODS</title>
<polygon fill="white" stroke="black" points="1441.3,-540 1387.3,-540 1387.3,-504 1441.3,-504 1441.3,-540"/>
<text text-anchor="middle" x="1414.3" y="-518.3" font-family="Times,serif" font-size="14.00">ODS</text>
</g>
<!-- ODS&#45;&gt;CSV -->
<g id="edge99" class="edge"><title>ODS&#45;&gt;CSV</title>
<path fill="none" stroke="black" d="M1425.4,-503.7C1430.6,-495.56 1437,-485.69 1442.8,-476.7"/>
<polygon fill="black" stroke="black" points="1445.86,-478.41 1448.3,-468.1 1439.96,-474.639 1445.86,-478.41"/>
</g>
<!-- XLSX -->
<g id="node47" class="node"><title>XLSX</title>
<polygon fill="white" stroke="black" points="1513.3,-540 1459.3,-540 1459.3,-504 1513.3,-504 1513.3,-540"/>
<text text-anchor="middle" x="1486.3" y="-518.3" font-family="Times,serif" font-size="14.00">XLSX</text>
</g>
<!-- XLSX&#45;&gt;CSV -->
<g id="edge100" class="edge"><title>XLSX&#45;&gt;CSV</title>
<path fill="none" stroke="black" d="M1479.6,-503.7C1476.6,-495.81 1472.9,-486.3 1469.5,-477.55"/>
<polygon fill="black" stroke="black" points="1472.73,-476.199 1465.9,-468.1 1466.19,-478.691 1472.73,-476.199"/>
</g>
<!-- MAF -->
<g id="node48" class="node"><title>MAF</title>
<polygon fill="white" stroke="black" points="901.28,-396 847.28,-396 847.28,-360 901.28,-360 901.28,-396"/>
<text text-anchor="middle" x="874.28" y="-374.3" font-family="Times,serif" font-size="14.00">MAF</text>
</g>
<!-- MAF&#45;&gt;SAM -->
<g id="edge101" class="edge"><title>MAF&#45;&gt;SAM</title>
<path fill="none" stroke="black" d="M858.46,-359.7C850.71,-351.22 841.24,-340.86 832.76,-331.58"/>
<polygon fill="black" stroke="black" points="835.251,-329.118 825.92,-324.1 830.085,-333.842 835.251,-329.118"/>
</g>
</g>
</svg>
