<?xml version="1.0" encoding="UTF-8" standalone="no"?>
<!DOCTYPE svg PUBLIC "-//W3C//DTD SVG 1.1//EN"
 "http://www.w3.org/Graphics/SVG/1.1/DTD/svg11.dtd">
<!-- Generated by graphviz version 2.38.0 (20140413.2041)
 -->
<!-- Title: %3 Pages: 1 -->
<svg width="1936pt" height="620pt"
 viewBox="0.00 0.00 1935.50 620.00" xmlns="http://www.w3.org/2000/svg" xmlns:xlink="http://www.w3.org/1999/xlink">
<g id="graph0" class="graph" transform="scale(1 1) rotate(0) translate(4 616)">
<title>%3</title>
<polygon fill="white" stroke="none" points="-4,4 -4,-616 1931.5,-616 1931.5,4 -4,4"/>
<!-- ABI -->
<g id="node1" class="node"><title>ABI</title>
<polygon fill="white" stroke="black" points="708,-540 654,-540 654,-504 708,-504 708,-540"/>
<text text-anchor="middle" x="681" y="-518.3" font-family="Times,serif" font-size="14.00">ABI</text>
</g>
<!-- FASTA -->
<g id="node2" class="node"><title>FASTA</title>
<polygon fill="red" stroke="black" points="587.5,-468 522.5,-468 522.5,-432 587.5,-432 587.5,-468"/>
<text text-anchor="middle" x="555" y="-446.3" font-family="Times,serif" font-size="14.00">FASTA</text>
</g>
<!-- ABI&#45;&gt;FASTA -->
<g id="edge1" class="edge"><title>ABI&#45;&gt;FASTA</title>
<path fill="none" stroke="black" d="M653.97,-506.55C636.29,-496.45 612.92,-483.1 593.33,-471.9"/>
<polygon fill="black" stroke="black" points="595.049,-468.851 584.63,-466.93 591.577,-474.929 595.049,-468.851"/>
</g>
<!-- FASTQ -->
<g id="node3" class="node"><title>FASTQ</title>
<polygon fill="orange" stroke="black" points="841.5,-396 774.5,-396 774.5,-360 841.5,-360 841.5,-396"/>
<text text-anchor="middle" x="808" y="-374.3" font-family="Times,serif" font-size="14.00">FASTQ</text>
</g>
<!-- ABI&#45;&gt;FASTQ -->
<g id="edge2" class="edge"><title>ABI&#45;&gt;FASTQ</title>
<path fill="none" stroke="black" d="M697.08,-503.76C719.41,-478.44 759.92,-432.52 785.31,-403.73"/>
<polygon fill="black" stroke="black" points="788.059,-405.904 792.05,-396.09 782.81,-401.274 788.059,-405.904"/>
</g>
<!-- QUAL -->
<g id="node4" class="node"><title>QUAL</title>
<polygon fill="white" stroke="black" points="777,-252 717,-252 717,-216 777,-216 777,-252"/>
<text text-anchor="middle" x="747" y="-230.3" font-family="Times,serif" font-size="14.00">QUAL</text>
</g>
<!-- ABI&#45;&gt;QUAL -->
<g id="edge3" class="edge"><title>ABI&#45;&gt;QUAL</title>
<path fill="none" stroke="black" d="M685.04,-503.78C693.79,-464.37 715.24,-368.31 734,-288 735.94,-279.68 738.1,-270.65 740.09,-262.4"/>
<polygon fill="black" stroke="black" points="743.54,-263.023 742.49,-252.48 736.737,-261.377 743.54,-263.023"/>
</g>
<!-- FASTA&#45;&gt;FASTQ -->
<g id="edge4" class="edge"><title>FASTA&#45;&gt;FASTQ</title>
<path fill="none" stroke="black" d="M584.82,-442.19C624.34,-432.79 695.43,-415.78 755,-396 759.46,-394.52 764.12,-392.8 768.77,-391.03"/>
<polygon fill="black" stroke="black" points="770.145,-394.251 778.21,-387.38 767.621,-387.722 770.145,-394.251"/>
</g>
<!-- CLUSTAL -->
<g id="node5" class="node"><title>CLUSTAL</title>
<polygon fill="yellow" stroke="black" points="507,-396 419,-396 419,-360 507,-360 507,-396"/>
<text text-anchor="middle" x="463" y="-374.3" font-family="Times,serif" font-size="14.00">CLUSTAL</text>
</g>
<!-- FASTA&#45;&gt;CLUSTAL -->
<g id="edge5" class="edge"><title>FASTA&#45;&gt;CLUSTAL</title>
<path fill="none" stroke="black" d="M525.83,-431.83C513.64,-422.96 499.68,-412.16 487.96,-402.57"/>
<polygon fill="black" stroke="black" points="490.185,-399.868 480.26,-396.16 485.706,-405.248 490.185,-399.868"/>
</g>
<!-- NEXUS -->
<g id="node6" class="node"><title>NEXUS</title>
<polygon fill="orange" stroke="black" points="431,-180 359,-180 359,-144 431,-144 431,-180"/>
<text text-anchor="middle" x="395" y="-158.3" font-family="Times,serif" font-size="14.00">NEXUS</text>
</g>
<!-- FASTA&#45;&gt;NEXUS -->
<g id="edge6" class="edge"><title>FASTA&#45;&gt;NEXUS</title>
<path fill="none" stroke="black" d="M525.45,-447.65C464.65,-440.76 328.32,-414.96 282,-324 255.63,-272.21 313.08,-216.02 355.46,-185.31"/>
<polygon fill="black" stroke="black" points="357.535,-188.13 363.71,-179.52 353.514,-182.4 357.535,-188.13"/>
</g>
<!-- PHYLIP -->
<g id="node7" class="node"><title>PHYLIP</title>
<polygon fill="orange" stroke="black" points="564,-252 490,-252 490,-216 564,-216 564,-252"/>
<text text-anchor="middle" x="527" y="-230.3" font-family="Times,serif" font-size="14.00">PHYLIP</text>
</g>
<!-- FASTA&#45;&gt;PHYLIP -->
<g id="edge7" class="edge"><title>FASTA&#45;&gt;PHYLIP</title>
<path fill="none" stroke="black" d="M567.28,-431.56C575.49,-421.97 585.22,-409.44 590,-396 595.36,-380.93 593.23,-375.67 590,-360 582.97,-325.88 576.55,-318.1 559,-288 553.54,-278.64 546.71,-269.03 540.61,-260.56"/>
<polygon fill="black" stroke="black" points="543.293,-258.295 534.62,-252.21 537.605,-262.376 543.293,-258.295"/>
</g>
<!-- GENBANK -->
<g id="node8" class="node"><title>GENBANK</title>
<polygon fill="yellow" stroke="black" points="206.5,-396 111.5,-396 111.5,-360 206.5,-360 206.5,-396"/>
<text text-anchor="middle" x="159" y="-374.3" font-family="Times,serif" font-size="14.00">GENBANK</text>
</g>
<!-- FASTA&#45;&gt;GENBANK -->
<g id="edge8" class="edge"><title>FASTA&#45;&gt;GENBANK</title>
<path fill="none" stroke="black" d="M525.29,-447.36C466.05,-441.27 329.98,-424.69 210.6,-397"/>
<polygon fill="black" stroke="black" points="211.116,-393.526 200.58,-394.64 209.511,-400.339 211.116,-393.526"/>
</g>
<!-- FAA -->
<g id="node9" class="node"><title>FAA</title>
<polygon fill="white" stroke="black" points="993,-396 939,-396 939,-360 993,-360 993,-396"/>
<text text-anchor="middle" x="966" y="-374.3" font-family="Times,serif" font-size="14.00">FAA</text>
</g>
<!-- FASTA&#45;&gt;FAA -->
<g id="edge9" class="edge"><title>FASTA&#45;&gt;FAA</title>
<path fill="none" stroke="black" d="M584.56,-444.82C657.84,-431.98 847.79,-398.71 928.66,-384.54"/>
<polygon fill="black" stroke="black" points="929.625,-387.924 938.87,-382.75 928.416,-381.03 929.625,-387.924"/>
</g>
<!-- FASTA_and_FASTA_AGP -->
<g id="node10" class="node"><title>FASTA_and_FASTA_AGP</title>
<ellipse fill="none" stroke="black" cx="403" cy="-378" rx="3.5" ry="3.5"/>
</g>
<!-- FASTA&#45;&gt;FASTA_and_FASTA_AGP -->
<g id="edge10" class="edge"><title>FASTA&#45;&gt;FASTA_and_FASTA_AGP</title>
<path fill="none" stroke="black" d="M525.26,-445.54C492.74,-438.93 441.17,-424.18 406,-396 403.71,-394.17 401.71,-391.78 400.28,-389.35"/>
<polygon fill="black" stroke="black" points="403.74,-388.765 399.29,-379.15 396.773,-389.441 403.74,-388.765"/>
</g>
<!-- TWOBIT -->
<g id="node11" class="node"><title>TWOBIT</title>
<polygon fill="white" stroke="black" points="595,-396 515,-396 515,-360 595,-360 595,-396"/>
<text text-anchor="middle" x="555" y="-374.3" font-family="Times,serif" font-size="14.00">TWOBIT</text>
</g>
<!-- FASTA&#45;&gt;TWOBIT -->
<g id="edge11" class="edge"><title>FASTA&#45;&gt;TWOBIT</title>
<path fill="none" stroke="black" d="M549.05,-431.83C548.3,-424.13 548.08,-414.97 548.38,-406.42"/>
<polygon fill="black" stroke="black" points="551.875,-406.613 549.02,-396.41 544.889,-406.166 551.875,-406.613"/>
</g>
<!-- FASTA_QUAL_and_FASTQ -->
<g id="node12" class="node"><title>FASTA_QUAL_and_FASTQ</title>
<ellipse fill="none" stroke="black" cx="747" cy="-162" rx="3.5" ry="3.5"/>
</g>
<!-- FASTA&#45;&gt;FASTA_QUAL_and_FASTQ -->
<g id="edge12" class="edge"><title>FASTA&#45;&gt;FASTA_QUAL_and_FASTQ</title>
<path fill="none" stroke="black" d="M584.06,-431.78C597.46,-422.33 612.83,-409.86 624,-396 679.77,-326.82 666.92,-293.15 711,-216 719.81,-200.58 731.42,-183.68 739.04,-172.96"/>
<polygon fill="black" stroke="black" points="741.886,-174.997 744.9,-164.84 736.21,-170.901 741.886,-174.997"/>
</g>
<!-- FASTQ&#45;&gt;FASTA -->
<g id="edge13" class="edge"><title>FASTQ&#45;&gt;FASTA</title>
<path fill="none" stroke="black" d="M778.23,-394.19C776.48,-394.82 774.72,-395.43 773,-396 711.96,-416.27 638.82,-433.63 594.54,-442.87"/>
<polygon fill="black" stroke="black" points="593.824,-439.444 584.73,-444.88 595.229,-446.301 593.824,-439.444"/>
</g>
<!-- FASTQ&#45;&gt;QUAL -->
<g id="edge14" class="edge"><title>FASTQ&#45;&gt;QUAL</title>
<path fill="none" stroke="black" d="M800.27,-359.76C789.78,-334.98 770.92,-290.47 758.69,-261.59"/>
<polygon fill="black" stroke="black" points="761.787,-259.929 754.66,-252.09 755.343,-262.663 761.787,-259.929"/>
</g>
<!-- FASTQ_and_FASTA_QUAL -->
<g id="node13" class="node"><title>FASTQ_and_FASTA_QUAL</title>
<ellipse fill="none" stroke="black" cx="747" cy="-306" rx="3.5" ry="3.5"/>
</g>
<!-- FASTQ&#45;&gt;FASTQ_and_FASTA_QUAL -->
<g id="edge15" class="edge"><title>FASTQ&#45;&gt;FASTQ_and_FASTA_QUAL</title>
<path fill="none" stroke="black" d="M792.61,-359.83C781.14,-346.29 765.85,-328.25 756.22,-316.88"/>
<polygon fill="black" stroke="black" points="758.796,-314.506 749.66,-309.14 753.456,-319.032 758.796,-314.506"/>
</g>
<!-- QUAL&#45;&gt;FASTA_QUAL_and_FASTQ -->
<g id="edge16" class="edge"><title>QUAL&#45;&gt;FASTA_QUAL_and_FASTQ</title>
<path fill="none" stroke="black" d="M747,-215.83C747,-203.35 747,-187.04 747,-175.66"/>
<polygon fill="black" stroke="black" points="750.5,-175.66 747,-165.66 743.5,-175.66 750.5,-175.66"/>
</g>
<!-- CLUSTAL&#45;&gt;FASTA -->
<g id="edge17" class="edge"><title>CLUSTAL&#45;&gt;FASTA</title>
<path fill="none" stroke="black" d="M492.16,-396.16C504.35,-405.03 518.32,-415.83 530.03,-425.42"/>
<polygon fill="black" stroke="black" points="527.813,-428.128 537.74,-431.83 532.288,-422.746 527.813,-428.128"/>
</g>
<!-- CLUSTAL&#45;&gt;NEXUS -->
<g id="edge18" class="edge"><title>CLUSTAL&#45;&gt;NEXUS</title>
<path fill="none" stroke="black" d="M438.17,-359.86C428.95,-349.96 419.6,-337.09 414,-324 395.13,-279.91 388.97,-223.92 389.51,-190.64"/>
<polygon fill="black" stroke="black" points="393.023,-190.406 389.94,-180.27 386.029,-190.116 393.023,-190.406"/>
</g>
<!-- CLUSTAL&#45;&gt;PHYLIP -->
<g id="edge19" class="edge"><title>CLUSTAL&#45;&gt;PHYLIP</title>
<path fill="none" stroke="black" d="M496.15,-359.9C510.11,-351.28 524.86,-339.43 533,-324 543.11,-304.85 538.14,-280.49 532.69,-261.95"/>
<polygon fill="black" stroke="black" points="536.007,-260.83 529.71,-252.31 529.32,-262.898 536.007,-260.83"/>
</g>
<!-- STOCKHOLM -->
<g id="node14" class="node"><title>STOCKHOLM</title>
<polygon fill="white" stroke="black" points="542.5,-324 423.5,-324 423.5,-288 542.5,-288 542.5,-324"/>
<text text-anchor="middle" x="483" y="-302.3" font-family="Times,serif" font-size="14.00">STOCKHOLM</text>
</g>
<!-- CLUSTAL&#45;&gt;STOCKHOLM -->
<g id="edge20" class="edge"><title>CLUSTAL&#45;&gt;STOCKHOLM</title>
<path fill="none" stroke="black" d="M462.09,-359.83C463.5,-352.05 465.86,-342.77 468.58,-334.13"/>
<polygon fill="black" stroke="black" points="471.98,-335.005 471.91,-324.41 465.358,-332.736 471.98,-335.005"/>
</g>
<!-- NEXUS&#45;&gt;FASTA -->
<g id="edge21" class="edge"><title>NEXUS&#45;&gt;FASTA</title>
<path fill="none" stroke="black" d="M373.98,-180.23C338.03,-209.49 272.09,-269.2 300,-324 341.39,-405.28 454.65,-434.53 515.46,-444.75"/>
<polygon fill="black" stroke="black" points="515.034,-448.226 525.46,-446.34 516.134,-441.313 515.034,-448.226"/>
</g>
<!-- NEXUS&#45;&gt;CLUSTAL -->
<g id="edge22" class="edge"><title>NEXUS&#45;&gt;CLUSTAL</title>
<path fill="none" stroke="black" d="M400.92,-180.27C405.74,-211.11 411,-274.93 432,-324 436.16,-333.71 442.38,-343.31 448.28,-351.66"/>
<polygon fill="black" stroke="black" points="445.519,-353.815 454.22,-359.86 451.188,-349.708 445.519,-353.815"/>
</g>
<!-- NEXUS&#45;&gt;PHYLIP -->
<g id="edge23" class="edge"><title>NEXUS&#45;&gt;PHYLIP</title>
<path fill="none" stroke="black" d="M426.29,-176.07C445.66,-185.93 470.5,-199.32 490.72,-210.74"/>
<polygon fill="black" stroke="black" points="489.22,-213.914 499.64,-215.83 492.689,-207.834 489.22,-213.914"/>
</g>
<!-- NEWICK -->
<g id="node15" class="node"><title>NEWICK</title>
<polygon fill="white" stroke="black" points="436.5,-36 353.5,-36 353.5,-0 436.5,-0 436.5,-36"/>
<text text-anchor="middle" x="395" y="-14.3" font-family="Times,serif" font-size="14.00">NEWICK</text>
</g>
<!-- NEXUS&#45;&gt;NEWICK -->
<g id="edge24" class="edge"><title>NEXUS&#45;&gt;NEWICK</title>
<path fill="none" stroke="black" d="M381.53,-143.7C377.6,-133.34 374.43,-120.07 373,-108 371.11,-92.111 371.11,-87.889 373,-72 374.02,-63.422 375.92,-54.236 378.34,-45.917"/>
<polygon fill="black" stroke="black" points="381.704,-46.8924 381.53,-36.299 375.06,-44.6887 381.704,-46.8924"/>
</g>
<!-- PHYLOXML -->
<g id="node16" class="node"><title>PHYLOXML</title>
<polygon fill="white" stroke="black" points="489.5,-108 384.5,-108 384.5,-72 489.5,-72 489.5,-108"/>
<text text-anchor="middle" x="437" y="-86.3" font-family="Times,serif" font-size="14.00">PHYLOXML</text>
</g>
<!-- NEXUS&#45;&gt;PHYLOXML -->
<g id="edge25" class="edge"><title>NEXUS&#45;&gt;PHYLOXML</title>
<path fill="none" stroke="black" d="M399.65,-143.83C403.59,-135.71 409.07,-125.96 414.68,-117.01"/>
<polygon fill="black" stroke="black" points="417.756,-118.7 420.28,-108.41 411.89,-114.88 417.756,-118.7"/>
</g>
<!-- PHYLIP&#45;&gt;FASTA -->
<g id="edge26" class="edge"><title>PHYLIP&#45;&gt;FASTA</title>
<path fill="none" stroke="black" d="M550.57,-252.21C559.8,-262.33 569.65,-275.39 577,-288 594.55,-318.1 600.97,-325.88 608,-360 611.23,-375.67 613.36,-380.93 608,-396 604.31,-406.38 597.67,-416.21 590.24,-424.57"/>
<polygon fill="black" stroke="black" points="587.684,-422.178 583.27,-431.81 592.727,-427.033 587.684,-422.178"/>
</g>
<!-- PHYLIP&#45;&gt;CLUSTAL -->
<g id="edge27" class="edge"><title>PHYLIP&#45;&gt;CLUSTAL</title>
<path fill="none" stroke="black" d="M543.15,-252.31C553.79,-271.29 562.98,-301.3 551,-324 542.51,-340.09 526.83,-352.3 510.95,-361"/>
<polygon fill="black" stroke="black" points="508.977,-358.076 501.64,-365.72 512.142,-364.32 508.977,-358.076"/>
</g>
<!-- PHYLIP&#45;&gt;NEXUS -->
<g id="edge28" class="edge"><title>PHYLIP&#45;&gt;NEXUS</title>
<path fill="none" stroke="black" d="M494.74,-219.43C475.45,-209.59 451,-196.41 431.08,-185.15"/>
<polygon fill="black" stroke="black" points="432.709,-182.05 422.29,-180.13 429.238,-188.129 432.709,-182.05"/>
</g>
<!-- PHYLIP&#45;&gt;STOCKHOLM -->
<g id="edge29" class="edge"><title>PHYLIP&#45;&gt;STOCKHOLM</title>
<path fill="none" stroke="black" d="M521.72,-252.41C517.48,-260.65 511.63,-270.52 505.71,-279.54"/>
<polygon fill="black" stroke="black" points="502.8,-277.596 500.06,-287.83 508.584,-281.538 502.8,-277.596"/>
</g>
<!-- XMFA -->
<g id="node17" class="node"><title>XMFA</title>
<polygon fill="white" stroke="black" points="557,-180 497,-180 497,-144 557,-144 557,-180"/>
<text text-anchor="middle" x="527" y="-158.3" font-family="Times,serif" font-size="14.00">XMFA</text>
</g>
<!-- PHYLIP&#45;&gt;XMFA -->
<g id="edge30" class="edge"><title>PHYLIP&#45;&gt;XMFA</title>
<path fill="none" stroke="black" d="M521.05,-215.83C520.3,-208.13 520.08,-198.97 520.38,-190.42"/>
<polygon fill="black" stroke="black" points="523.875,-190.613 521.02,-180.41 516.889,-190.166 523.875,-190.613"/>
</g>
<!-- GENBANK&#45;&gt;FASTA -->
<g id="edge31" class="edge"><title>GENBANK&#45;&gt;FASTA</title>
<path fill="none" stroke="black" d="M200.69,-389.51C208.45,-391.88 216.45,-394.2 224,-396 327.87,-420.79 452.36,-437.28 515.04,-444.98"/>
<polygon fill="black" stroke="black" points="514.93,-448.492 525.28,-446.23 515.778,-441.544 514.93,-448.492"/>
</g>
<!-- EMBL -->
<g id="node18" class="node"><title>EMBL</title>
<polygon fill="white" stroke="black" points="203,-324 141,-324 141,-288 203,-288 203,-324"/>
<text text-anchor="middle" x="172" y="-302.3" font-family="Times,serif" font-size="14.00">EMBL</text>
</g>
<!-- GENBANK&#45;&gt;EMBL -->
<g id="edge32" class="edge"><title>GENBANK&#45;&gt;EMBL</title>
<path fill="none" stroke="black" d="M156.33,-359.83C156.98,-352.05 158.43,-342.77 160.32,-334.13"/>
<polygon fill="black" stroke="black" points="163.721,-334.956 162.7,-324.41 156.922,-333.291 163.721,-334.956"/>
</g>
<!-- GFF3 -->
<g id="node19" class="node"><title>GFF3</title>
<polygon fill="white" stroke="black" points="127,-324 71,-324 71,-288 127,-288 127,-324"/>
<text text-anchor="middle" x="99" y="-302.3" font-family="Times,serif" font-size="14.00">GFF3</text>
</g>
<!-- GENBANK&#45;&gt;GFF3 -->
<g id="edge33" class="edge"><title>GENBANK&#45;&gt;GFF3</title>
<path fill="none" stroke="black" d="M143.86,-359.83C136.88,-351.45 128.46,-341.35 120.81,-332.17"/>
<polygon fill="black" stroke="black" points="123.432,-329.849 114.34,-324.41 118.056,-334.332 123.432,-329.849"/>
</g>
<!-- FASTA_and_FASTA_AGP&#45;&gt;FASTA -->
<g id="edge34" class="edge"><title>FASTA_and_FASTA_AGP&#45;&gt;FASTA</title>
<path fill="none" stroke="black" d="M406.55,-378.66C413.32,-381.25 417.55,-390.83 424,-396 451.07,-417.69 487.85,-431.42 515.66,-439.61"/>
<polygon fill="black" stroke="black" points="514.885,-443.028 525.46,-442.38 516.789,-436.292 514.885,-443.028"/>
</g>
<!-- AGP -->
<g id="node20" class="node"><title>AGP</title>
<ellipse fill="none" stroke="black" cx="329" cy="-306" rx="31.3957" ry="18"/>
<text text-anchor="middle" x="329" y="-302.3" font-family="Times,serif" font-size="14.00">AGP</text>
</g>
<!-- FASTA_and_FASTA_AGP&#45;&gt;AGP -->
<g id="edge35" class="edge"><title>FASTA_and_FASTA_AGP&#45;&gt;AGP</title>
<path fill="none" stroke="black" d="M400.19,-375.27C392.34,-367.62 369.57,-345.48 351.88,-328.26"/>
<polygon fill="black" stroke="black" points="354.276,-325.708 344.67,-321.24 349.393,-330.724 354.276,-325.708"/>
</g>
<!-- TWOBIT&#45;&gt;FASTA -->
<g id="edge36" class="edge"><title>TWOBIT&#45;&gt;FASTA</title>
<path fill="none" stroke="black" d="M560.98,-396.41C561.71,-404.06 561.92,-413.11 561.62,-421.57"/>
<polygon fill="black" stroke="black" points="558.109,-421.623 560.95,-431.83 565.094,-422.079 558.109,-421.623"/>
</g>
<!-- FASTA_QUAL_and_FASTQ&#45;&gt;FASTQ -->
<g id="edge37" class="edge"><title>FASTA_QUAL_and_FASTQ&#45;&gt;FASTQ</title>
<path fill="none" stroke="black" d="M749.43,-164.68C756.05,-172.16 774.51,-194.15 783,-216 800.31,-260.57 805.67,-316.41 807.31,-349.54"/>
<polygon fill="black" stroke="black" points="803.826,-350.001 807.73,-359.85 810.82,-349.716 803.826,-350.001"/>
</g>
<!-- FASTQ_and_FASTA_QUAL&#45;&gt;FASTA -->
<g id="edge38" class="edge"><title>FASTQ_and_FASTA_QUAL&#45;&gt;FASTA</title>
<path fill="none" stroke="black" d="M745.71,-309.29C740.5,-322.19 719.75,-369.9 688,-396 660.74,-418.41 622.94,-432.55 594.61,-440.71"/>
<polygon fill="black" stroke="black" points="593.341,-437.429 584.63,-443.46 595.2,-444.178 593.341,-437.429"/>
</g>
<!-- FASTQ_and_FASTA_QUAL&#45;&gt;QUAL -->
<g id="edge39" class="edge"><title>FASTQ_and_FASTA_QUAL&#45;&gt;QUAL</title>
<path fill="none" stroke="black" d="M747,-302.13C747,-294.63 747,-277.52 747,-262.32"/>
<polygon fill="black" stroke="black" points="750.5,-262.25 747,-252.25 743.5,-262.25 750.5,-262.25"/>
</g>
<!-- STOCKHOLM&#45;&gt;CLUSTAL -->
<g id="edge40" class="edge"><title>STOCKHOLM&#45;&gt;CLUSTAL</title>
<path fill="none" stroke="black" d="M483.86,-324.41C482.44,-332.23 480.07,-341.51 477.33,-350.14"/>
<polygon fill="black" stroke="black" points="473.94,-349.235 474,-359.83 480.56,-351.51 473.94,-349.235"/>
</g>
<!-- STOCKHOLM&#45;&gt;PHYLIP -->
<g id="edge41" class="edge"><title>STOCKHOLM&#45;&gt;PHYLIP</title>
<path fill="none" stroke="black" d="M488.15,-287.83C492.37,-279.62 498.2,-269.76 504.12,-260.73"/>
<polygon fill="black" stroke="black" points="507.048,-262.649 509.77,-252.41 501.257,-258.717 507.048,-262.649"/>
</g>
<!-- NEWICK&#45;&gt;NEXUS -->
<g id="edge42" class="edge"><title>NEWICK&#45;&gt;NEXUS</title>
<path fill="none" stroke="black" d="M397.38,-36.299C395.6,-46.665 392.43,-59.935 391,-72 389.11,-87.889 389.11,-92.111 391,-108 392.01,-116.48 393.87,-125.56 395.51,-133.81"/>
<polygon fill="black" stroke="black" points="392.083,-134.524 397.38,-143.7 398.961,-133.224 392.083,-134.524"/>
</g>
<!-- NEWICK&#45;&gt;PHYLOXML -->
<g id="edge43" class="edge"><title>NEWICK&#45;&gt;PHYLOXML</title>
<path fill="none" stroke="black" d="M411.72,-36.413C417.14,-44.399 422.89,-53.916 427.65,-62.697"/>
<polygon fill="black" stroke="black" points="424.662,-64.5405 432.35,-71.831 430.887,-61.3377 424.662,-64.5405"/>
</g>
<!-- PHYLOXML&#45;&gt;NEXUS -->
<g id="edge44" class="edge"><title>PHYLOXML&#45;&gt;NEXUS</title>
<path fill="none" stroke="black" d="M432.23,-108.41C428.26,-116.57 422.76,-126.32 417.15,-135.26"/>
<polygon fill="black" stroke="black" points="414.09,-133.544 411.55,-143.83 419.95,-137.373 414.09,-133.544"/>
</g>
<!-- PHYLOXML&#45;&gt;NEWICK -->
<g id="edge45" class="edge"><title>PHYLOXML&#45;&gt;NEWICK</title>
<path fill="none" stroke="black" d="M420.45,-71.831C415.03,-63.877 409.28,-54.369 404.5,-45.572"/>
<polygon fill="black" stroke="black" points="407.468,-43.6921 399.77,-36.413 401.249,-46.9041 407.468,-43.6921"/>
</g>
<!-- XMFA&#45;&gt;PHYLIP -->
<g id="edge46" class="edge"><title>XMFA&#45;&gt;PHYLIP</title>
<path fill="none" stroke="black" d="M532.98,-180.41C533.71,-188.06 533.92,-197.11 533.62,-205.57"/>
<polygon fill="black" stroke="black" points="530.109,-205.623 532.95,-215.83 537.094,-206.079 530.109,-205.623"/>
</g>
<!-- EMBL&#45;&gt;FASTA -->
<g id="edge47" class="edge"><title>EMBL&#45;&gt;FASTA</title>
<path fill="none" stroke="black" d="M182.95,-324.14C196.6,-345.04 221.95,-378.74 253,-396 297.48,-420.73 443.84,-438.63 515.19,-446.12"/>
<polygon fill="black" stroke="black" points="514.843,-449.603 525.15,-447.15 515.563,-442.64 514.843,-449.603"/>
</g>
<!-- EMBL&#45;&gt;GENBANK -->
<g id="edge48" class="edge"><title>EMBL&#45;&gt;GENBANK</title>
<path fill="none" stroke="black" d="M174.65,-324.41C173.99,-332.14 172.55,-341.31 170.69,-349.85"/>
<polygon fill="black" stroke="black" points="167.225,-349.283 168.23,-359.83 174.022,-350.958 167.225,-349.283"/>
</g>
<!-- GFF2 -->
<g id="node21" class="node"><title>GFF2</title>
<polygon fill="white" stroke="black" points="127,-252 71,-252 71,-216 127,-216 127,-252"/>
<text text-anchor="middle" x="99" y="-230.3" font-family="Times,serif" font-size="14.00">GFF2</text>
</g>
<!-- GFF3&#45;&gt;GFF2 -->
<g id="edge49" class="edge"><title>GFF3&#45;&gt;GFF2</title>
<path fill="none" stroke="black" d="M93.048,-287.83C92.297,-280.13 92.076,-270.97 92.385,-262.42"/>
<polygon fill="black" stroke="black" points="95.8797,-262.613 93.024,-252.41 88.894,-262.167 95.8797,-262.613"/>
</g>
<!-- GTF -->
<g id="node22" class="node"><title>GTF</title>
<polygon fill="white" stroke="black" points="54,-252 0,-252 0,-216 54,-216 54,-252"/>
<text text-anchor="middle" x="27" y="-230.3" font-family="Times,serif" font-size="14.00">GTF</text>
</g>
<!-- GFF3&#45;&gt;GTF -->
<g id="edge50" class="edge"><title>GFF3&#45;&gt;GTF</title>
<path fill="none" stroke="black" d="M80.831,-287.83C72.285,-279.28 61.944,-268.94 52.62,-259.62"/>
<polygon fill="black" stroke="black" points="54.958,-257.008 45.413,-252.41 50.0072,-261.957 54.958,-257.008"/>
</g>
<!-- GFF2&#45;&gt;GFF3 -->
<g id="edge97" class="edge"><title>GFF2&#45;&gt;GFF3</title>
<path fill="none" stroke="black" d="M104.98,-252.41C105.71,-260.06 105.92,-269.11 105.62,-277.57"/>
<polygon fill="black" stroke="black" points="102.109,-277.623 104.95,-287.83 109.094,-278.079 102.109,-277.623"/>
</g>
<!-- BAM -->
<g id="node23" class="node"><title>BAM</title>
<polygon fill="orange" stroke="black" points="1083,-612 1029,-612 1029,-576 1083,-576 1083,-612"/>
<text text-anchor="middle" x="1056" y="-590.3" font-family="Times,serif" font-size="14.00">BAM</text>
</g>
<!-- BAM&#45;&gt;FASTA -->
<g id="edge51" class="edge"><title>BAM&#45;&gt;FASTA</title>
<path fill="none" stroke="black" d="M1028.8,-592.81C931.82,-588.31 606.81,-571.02 573,-540 556.28,-524.66 552.59,-498.54 552.61,-478.37"/>
<polygon fill="black" stroke="black" points="556.114,-478.285 552.93,-468.18 549.118,-478.065 556.114,-478.285"/>
</g>
<!-- BAM&#45;&gt;FASTQ -->
<g id="edge52" class="edge"><title>BAM&#45;&gt;FASTQ</title>
<path fill="none" stroke="black" d="M1028.8,-591.35C974.52,-585.48 855.57,-569.5 829,-540 796.15,-503.52 798.12,-442.31 802.85,-406.49"/>
<polygon fill="black" stroke="black" points="806.365,-406.643 804.36,-396.24 799.44,-405.623 806.365,-406.643"/>
</g>
<!-- BEDGRAPH -->
<g id="node24" class="node"><title>BEDGRAPH</title>
<polygon fill="yellow" stroke="black" points="1300,-540 1196,-540 1196,-504 1300,-504 1300,-540"/>
<text text-anchor="middle" x="1248" y="-518.3" font-family="Times,serif" font-size="14.00">BEDGRAPH</text>
</g>
<!-- BAM&#45;&gt;BEDGRAPH -->
<g id="edge53" class="edge"><title>BAM&#45;&gt;BEDGRAPH</title>
<path fill="none" stroke="black" d="M1083.1,-583.84C1111.8,-573.09 1157.7,-555.85 1193.9,-542.3"/>
<polygon fill="black" stroke="black" points="1195.17,-545.562 1203.3,-538.77 1192.71,-539.009 1195.17,-545.562"/>
</g>
<!-- BIGWIG -->
<g id="node25" class="node"><title>BIGWIG</title>
<polygon fill="white" stroke="black" points="1354.5,-468 1277.5,-468 1277.5,-432 1354.5,-432 1354.5,-468"/>
<text text-anchor="middle" x="1316" y="-446.3" font-family="Times,serif" font-size="14.00">BIGWIG</text>
</g>
<!-- BAM&#45;&gt;BIGWIG -->
<g id="edge54" class="edge"><title>BAM&#45;&gt;BIGWIG</title>
<path fill="none" stroke="black" d="M1083.2,-591.84C1140.7,-586.67 1272.3,-571.62 1302,-540 1317.3,-523.69 1320,-497.9 1319.3,-478.1"/>
<polygon fill="black" stroke="black" points="1322.79,-477.863 1318.7,-468.09 1315.8,-478.282 1322.79,-477.863"/>
</g>
<!-- COV -->
<g id="node26" class="node"><title>COV</title>
<polygon fill="white" stroke="black" points="1223,-468 1169,-468 1169,-432 1223,-432 1223,-468"/>
<text text-anchor="middle" x="1196" y="-446.3" font-family="Times,serif" font-size="14.00">COV</text>
</g>
<!-- BAM&#45;&gt;COV -->
<g id="edge55" class="edge"><title>BAM&#45;&gt;COV</title>
<path fill="none" stroke="black" d="M1083.3,-584.89C1105.4,-576.33 1136,-561.57 1156,-540 1172.2,-522.45 1182.7,-497.21 1188.8,-477.93"/>
<polygon fill="black" stroke="black" points="1192.2,-478.763 1191.7,-468.18 1185.49,-476.767 1192.2,-478.763"/>
</g>
<!-- CRAM -->
<g id="node27" class="node"><title>CRAM</title>
<polygon fill="yellow" stroke="black" points="1021.5,-540 958.5,-540 958.5,-504 1021.5,-504 1021.5,-540"/>
<text text-anchor="middle" x="990" y="-518.3" font-family="Times,serif" font-size="14.00">CRAM</text>
</g>
<!-- BAM&#45;&gt;CRAM -->
<g id="edge56" class="edge"><title>BAM&#45;&gt;CRAM</title>
<path fill="none" stroke="black" d="M1033.4,-575.83C1024.9,-567.45 1015.4,-557.35 1007.5,-548.17"/>
<polygon fill="black" stroke="black" points="1010.04,-545.76 1000.9,-540.41 1004.71,-550.295 1010.04,-545.76"/>
</g>
<!-- JSON -->
<g id="node28" class="node"><title>JSON</title>
<polygon fill="white" stroke="black" points="893.5,-540 836.5,-540 836.5,-504 893.5,-504 893.5,-540"/>
<text text-anchor="middle" x="865" y="-518.3" font-family="Times,serif" font-size="14.00">JSON</text>
</g>
<!-- BAM&#45;&gt;JSON -->
<g id="edge57" class="edge"><title>BAM&#45;&gt;JSON</title>
<path fill="none" stroke="black" d="M1028.6,-583.68C995.21,-571.08 938.55,-549.72 901.45,-535.74"/>
<polygon fill="black" stroke="black" points="902.602,-532.434 892.01,-532.18 900.132,-538.984 902.602,-532.434"/>
</g>
<!-- SAM -->
<g id="node29" class="node"><title>SAM</title>
<polygon fill="yellow" stroke="black" points="1148,-468 1094,-468 1094,-432 1148,-432 1148,-468"/>
<text text-anchor="middle" x="1121" y="-446.3" font-family="Times,serif" font-size="14.00">SAM</text>
</g>
<!-- BAM&#45;&gt;SAM -->
<g id="edge58" class="edge"><title>BAM&#45;&gt;SAM</title>
<path fill="none" stroke="black" d="M1053.2,-575.81C1055.4,-557.19 1063.5,-527.71 1075,-504 1079.6,-494.49 1085.8,-484.76 1092.1,-476.23"/>
<polygon fill="black" stroke="black" points="1095.06,-478.136 1098.6,-468.15 1089.6,-473.748 1095.06,-478.136"/>
</g>
<!-- TSV -->
<g id="node30" class="node"><title>TSV</title>
<polygon fill="white" stroke="black" points="1637,-540 1583,-540 1583,-504 1637,-504 1637,-540"/>
<text text-anchor="middle" x="1610" y="-518.3" font-family="Times,serif" font-size="14.00">TSV</text>
</g>
<!-- BAM&#45;&gt;TSV -->
<g id="edge59" class="edge"><title>BAM&#45;&gt;TSV</title>
<path fill="none" stroke="black" d="M1083.2,-591.97C1156.1,-586.3 1361.8,-568.8 1531,-540 1544.7,-537.67 1559.5,-534.47 1572.7,-531.4"/>
<polygon fill="black" stroke="black" points="1573.79,-534.737 1582.7,-529 1572.16,-527.93 1573.79,-534.737"/>
</g>
<!-- WIGGLE -->
<g id="node31" class="node"><title>WIGGLE</title>
<polygon fill="yellow" stroke="black" points="1502,-396 1422,-396 1422,-360 1502,-360 1502,-396"/>
<text text-anchor="middle" x="1462" y="-374.3" font-family="Times,serif" font-size="14.00">WIGGLE</text>
</g>
<!-- BAM&#45;&gt;WIGGLE -->
<g id="edge60" class="edge"><title>BAM&#45;&gt;WIGGLE</title>
<path fill="none" stroke="black" d="M1083.3,-592.73C1175.4,-588.17 1470.4,-571.22 1498,-540 1529.8,-504.06 1511.9,-477.94 1498,-432 1495,-422.24 1489.7,-412.62 1484,-404.28"/>
<polygon fill="black" stroke="black" points="1486.73,-402.084 1478,-396.08 1481.08,-406.217 1486.73,-402.084"/>
</g>
<!-- BEDGRAPH&#45;&gt;BIGWIG -->
<g id="edge61" class="edge"><title>BEDGRAPH&#45;&gt;BIGWIG</title>
<path fill="none" stroke="black" d="M1259.2,-503.83C1266.5,-495.22 1276.2,-484.79 1285.5,-475.4"/>
<polygon fill="black" stroke="black" points="1288.2,-477.655 1292.9,-468.16 1283.3,-472.652 1288.2,-477.655"/>
</g>
<!-- BEDGRAPH&#45;&gt;COV -->
<g id="edge62" class="edge"><title>BEDGRAPH&#45;&gt;COV</title>
<path fill="none" stroke="black" d="M1234.9,-503.83C1229,-495.62 1221.8,-485.76 1215.3,-476.73"/>
<polygon fill="black" stroke="black" points="1217.99,-474.474 1209.3,-468.41 1212.31,-478.568 1217.99,-474.474"/>
</g>
<!-- BEDGRAPH&#45;&gt;WIGGLE -->
<g id="edge63" class="edge"><title>BEDGRAPH&#45;&gt;WIGGLE</title>
<path fill="none" stroke="black" d="M1248,-503.9C1249.1,-483.66 1253.9,-451.22 1273,-432 1293,-411.82 1367.1,-395.03 1416.3,-385.77"/>
<polygon fill="black" stroke="black" points="1417.2,-389.163 1426.4,-383.91 1415.93,-382.279 1417.2,-389.163"/>
</g>
<!-- BIGWIG&#45;&gt;BEDGRAPH -->
<g id="edge64" class="edge"><title>BIGWIG&#45;&gt;BEDGRAPH</title>
<path fill="none" stroke="black" d="M1304.6,-468.41C1297.3,-476.99 1287.7,-487.34 1278.4,-496.65"/>
<polygon fill="black" stroke="black" points="1275.78,-494.322 1271.1,-503.83 1280.68,-499.313 1275.78,-494.322"/>
</g>
<!-- BIGWIG&#45;&gt;WIGGLE -->
<g id="edge65" class="edge"><title>BIGWIG&#45;&gt;WIGGLE</title>
<path fill="none" stroke="black" d="M1350.2,-433.12C1370.3,-423.23 1395.9,-410.62 1417.5,-399.96"/>
<polygon fill="black" stroke="black" points="1419.07,-403.086 1426.5,-395.53 1415.98,-396.806 1419.07,-403.086"/>
</g>
<!-- CRAM&#45;&gt;FASTA -->
<g id="edge66" class="edge"><title>CRAM&#45;&gt;FASTA</title>
<path fill="none" stroke="black" d="M961.2,-515.84C943.81,-512.2 921.17,-507.61 901,-504 790.46,-484.21 659.3,-464.86 594.83,-455.62"/>
<polygon fill="black" stroke="black" points="595.093,-452.122 584.7,-454.18 594.108,-459.053 595.093,-452.122"/>
</g>
<!-- CRAM&#45;&gt;FASTQ -->
<g id="edge67" class="edge"><title>CRAM&#45;&gt;FASTQ</title>
<path fill="none" stroke="black" d="M973.54,-503.78C952.76,-481 917.94,-443.59 903,-432 885.64,-418.54 864.54,-406.2 846.64,-396.73"/>
<polygon fill="black" stroke="black" points="848.099,-393.544 837.61,-392.05 844.878,-399.759 848.099,-393.544"/>
</g>
<!-- CRAM&#45;&gt;BAM -->
<g id="edge68" class="edge"><title>CRAM&#45;&gt;BAM</title>
<path fill="none" stroke="black" d="M1012.6,-540.16C1021.2,-548.6 1030.7,-558.8 1038.7,-568.03"/>
<polygon fill="black" stroke="black" points="1036.17,-570.457 1045.3,-575.83 1041.51,-565.935 1036.17,-570.457"/>
</g>
<!-- CRAM&#45;&gt;SAM -->
<g id="edge69" class="edge"><title>CRAM&#45;&gt;SAM</title>
<path fill="none" stroke="black" d="M1017.1,-503.83C1036.7,-492.44 1063.3,-477.85 1084.7,-466.74"/>
<polygon fill="black" stroke="black" points="1086.57,-469.714 1093.9,-462.06 1083.4,-463.475 1086.57,-469.714"/>
</g>
<!-- YAML -->
<g id="node32" class="node"><title>YAML</title>
<polygon fill="white" stroke="black" points="895,-468 835,-468 835,-432 895,-432 895,-468"/>
<text text-anchor="middle" x="865" y="-446.3" font-family="Times,serif" font-size="14.00">YAML</text>
</g>
<!-- JSON&#45;&gt;YAML -->
<g id="edge70" class="edge"><title>JSON&#45;&gt;YAML</title>
<path fill="none" stroke="black" d="M859.05,-503.83C858.3,-496.13 858.08,-486.97 858.38,-478.42"/>
<polygon fill="black" stroke="black" points="861.875,-478.613 859.02,-468.41 854.889,-478.166 861.875,-478.613"/>
</g>
<!-- SAM&#45;&gt;BAM -->
<g id="edge71" class="edge"><title>SAM&#45;&gt;BAM</title>
<path fill="none" stroke="black" d="M1114.5,-468.15C1108,-478.25 1099.1,-491.32 1093,-504 1083.3,-524 1076,-548.12 1070,-566.35"/>
<polygon fill="black" stroke="black" points="1066.69,-565.215 1066.7,-575.81 1073.3,-567.521 1066.69,-565.215"/>
</g>
<!-- SAM&#45;&gt;CRAM -->
<g id="edge72" class="edge"><title>SAM&#45;&gt;CRAM</title>
<path fill="none" stroke="black" d="M1093.9,-468.17C1074.7,-479.3 1048.9,-493.46 1027.8,-504.47"/>
<polygon fill="black" stroke="black" points="1026.01,-501.457 1018.7,-509.13 1029.2,-507.687 1026.01,-501.457"/>
</g>
<!-- PAF -->
<g id="node33" class="node"><title>PAF</title>
<polygon fill="white" stroke="black" points="1148,-396 1094,-396 1094,-360 1148,-360 1148,-396"/>
<text text-anchor="middle" x="1121" y="-374.3" font-family="Times,serif" font-size="14.00">PAF</text>
</g>
<!-- SAM&#45;&gt;PAF -->
<g id="edge73" class="edge"><title>SAM&#45;&gt;PAF</title>
<path fill="none" stroke="black" d="M1121,-431.83C1121,-424.13 1121,-414.97 1121,-406.42"/>
<polygon fill="black" stroke="black" points="1124.5,-406.41 1121,-396.41 1117.5,-406.41 1124.5,-406.41"/>
</g>
<!-- CSV -->
<g id="node34" class="node"><title>CSV</title>
<polygon fill="yellow" stroke="black" points="1651,-468 1597,-468 1597,-432 1651,-432 1651,-468"/>
<text text-anchor="middle" x="1624" y="-446.3" font-family="Times,serif" font-size="14.00">CSV</text>
</g>
<!-- TSV&#45;&gt;CSV -->
<g id="edge74" class="edge"><title>TSV&#45;&gt;CSV</title>
<path fill="none" stroke="black" d="M1607.6,-503.83C1608.3,-496.05 1609.9,-486.77 1611.9,-478.13"/>
<polygon fill="black" stroke="black" points="1615.3,-478.967 1614.4,-468.41 1608.52,-477.223 1615.3,-478.967"/>
</g>
<!-- YAML&#45;&gt;JSON -->
<g id="edge75" class="edge"><title>YAML&#45;&gt;JSON</title>
<path fill="none" stroke="black" d="M870.98,-468.41C871.71,-476.06 871.92,-485.11 871.62,-493.57"/>
<polygon fill="black" stroke="black" points="868.109,-493.623 870.95,-503.83 875.094,-494.079 868.109,-493.623"/>
</g>
<!-- CSV&#45;&gt;TSV -->
<g id="edge76" class="edge"><title>CSV&#45;&gt;TSV</title>
<path fill="none" stroke="black" d="M1626.4,-468.41C1625.6,-476.23 1624,-485.51 1622,-494.14"/>
<polygon fill="black" stroke="black" points="1618.61,-493.273 1619.5,-503.83 1625.39,-495.021 1618.61,-493.273"/>
</g>
<!-- XLS -->
<g id="node35" class="node"><title>XLS</title>
<polygon fill="white" stroke="black" points="1651,-396 1597,-396 1597,-360 1651,-360 1651,-396"/>
<text text-anchor="middle" x="1624" y="-374.3" font-family="Times,serif" font-size="14.00">XLS</text>
</g>
<!-- CSV&#45;&gt;XLS -->
<g id="edge77" class="edge"><title>CSV&#45;&gt;XLS</title>
<path fill="none" stroke="black" d="M1618,-431.83C1617.3,-424.13 1617.1,-414.97 1617.4,-406.42"/>
<polygon fill="black" stroke="black" points="1620.9,-406.602 1618,-396.41 1613.91,-406.183 1620.9,-406.602"/>
</g>
<!-- XLS&#45;&gt;CSV -->
<g id="edge78" class="edge"><title>XLS&#45;&gt;CSV</title>
<path fill="none" stroke="black" d="M1630,-396.41C1630.7,-404.06 1630.9,-413.11 1630.6,-421.57"/>
<polygon fill="black" stroke="black" points="1627.09,-421.643 1630,-431.83 1634.08,-422.051 1627.09,-421.643"/>
</g>
<!-- BCF -->
<g id="node36" class="node"><title>BCF</title>
<polygon fill="white" stroke="black" points="1853,-612 1799,-612 1799,-576 1853,-576 1853,-612"/>
<text text-anchor="middle" x="1826" y="-590.3" font-family="Times,serif" font-size="14.00">BCF</text>
</g>
<!-- BCF&#45;&gt;WIGGLE -->
<g id="edge79" class="edge"><title>BCF&#45;&gt;WIGGLE</title>
<path fill="none" stroke="black" d="M1798.7,-591.39C1740.7,-585.34 1607.9,-568.66 1574,-540 1534.5,-506.66 1562,-473.35 1531,-432 1522.6,-420.75 1511.2,-410.58 1500.2,-402.18"/>
<polygon fill="black" stroke="black" points="1501.96,-399.13 1491.8,-396.11 1497.86,-404.804 1501.96,-399.13"/>
</g>
<!-- VCF -->
<g id="node37" class="node"><title>VCF</title>
<polygon fill="yellow" stroke="black" points="1853,-540 1799,-540 1799,-504 1853,-504 1853,-540"/>
<text text-anchor="middle" x="1826" y="-518.3" font-family="Times,serif" font-size="14.00">VCF</text>
</g>
<!-- BCF&#45;&gt;VCF -->
<g id="edge80" class="edge"><title>BCF&#45;&gt;VCF</title>
<path fill="none" stroke="black" d="M1820,-575.83C1819.3,-568.13 1819.1,-558.97 1819.4,-550.42"/>
<polygon fill="black" stroke="black" points="1822.9,-550.602 1820,-540.41 1815.91,-550.183 1822.9,-550.602"/>
</g>
<!-- VCF&#45;&gt;WIGGLE -->
<g id="edge81" class="edge"><title>VCF&#45;&gt;WIGGLE</title>
<path fill="none" stroke="black" d="M1799,-507.13C1753.8,-482.31 1667.2,-434.88 1660,-432 1609.4,-411.7 1548.5,-396.37 1507.8,-387.33"/>
<polygon fill="black" stroke="black" points="1508.42,-383.882 1497.9,-385.16 1506.92,-390.72 1508.42,-383.882"/>
</g>
<!-- VCF&#45;&gt;BCF -->
<g id="edge82" class="edge"><title>VCF&#45;&gt;BCF</title>
<path fill="none" stroke="black" d="M1832,-540.41C1832.7,-548.06 1832.9,-557.11 1832.6,-565.57"/>
<polygon fill="black" stroke="black" points="1829.09,-565.643 1832,-575.83 1836.08,-566.051 1829.09,-565.643"/>
</g>
<!-- BED -->
<g id="node38" class="node"><title>BED</title>
<polygon fill="white" stroke="black" points="1489,-468 1435,-468 1435,-432 1489,-432 1489,-468"/>
<text text-anchor="middle" x="1462" y="-446.3" font-family="Times,serif" font-size="14.00">BED</text>
</g>
<!-- VCF&#45;&gt;BED -->
<g id="edge83" class="edge"><title>VCF&#45;&gt;BED</title>
<path fill="none" stroke="black" d="M1798.8,-507.36C1795.9,-506.1 1792.9,-504.95 1790,-504 1762.7,-495.15 1579.5,-467.41 1499.4,-455.51"/>
<polygon fill="black" stroke="black" points="1499.71,-452.017 1489.3,-454.01 1498.68,-458.941 1499.71,-452.017"/>
</g>
<!-- BPLINK -->
<g id="node39" class="node"><title>BPLINK</title>
<polygon fill="white" stroke="black" points="1835,-396 1759,-396 1759,-360 1835,-360 1835,-396"/>
<text text-anchor="middle" x="1797" y="-374.3" font-family="Times,serif" font-size="14.00">BPLINK</text>
</g>
<!-- VCF&#45;&gt;BPLINK -->
<g id="edge84" class="edge"><title>VCF&#45;&gt;BPLINK</title>
<path fill="none" stroke="black" d="M1817.7,-503.76C1810.2,-479.2 1801.1,-435.25 1797.2,-406.35"/>
<polygon fill="black" stroke="black" points="1800.64,-405.616 1796,-396.09 1793.69,-406.429 1800.64,-405.616"/>
</g>
<!-- PLINK -->
<g id="node40" class="node"><title>PLINK</title>
<polygon fill="white" stroke="black" points="1797.5,-468 1732.5,-468 1732.5,-432 1797.5,-432 1797.5,-468"/>
<text text-anchor="middle" x="1765" y="-446.3" font-family="Times,serif" font-size="14.00">PLINK</text>
</g>
<!-- VCF&#45;&gt;PLINK -->
<g id="edge85" class="edge"><title>VCF&#45;&gt;PLINK</title>
<path fill="none" stroke="black" d="M1804.7,-503.83C1796.8,-495.54 1788.2,-485.56 1780.9,-476.45"/>
<polygon fill="black" stroke="black" points="1783.52,-474.123 1774.6,-468.41 1778.01,-478.44 1783.52,-474.123"/>
</g>
<!-- BED&#45;&gt;WIGGLE -->
<g id="edge86" class="edge"><title>BED&#45;&gt;WIGGLE</title>
<path fill="none" stroke="black" d="M1462,-431.83C1462,-424.13 1462,-414.97 1462,-406.42"/>
<polygon fill="black" stroke="black" points="1465.5,-406.41 1462,-396.41 1458.5,-406.41 1465.5,-406.41"/>
</g>
<!-- BPLINK&#45;&gt;VCF -->
<g id="edge87" class="edge"><title>BPLINK&#45;&gt;VCF</title>
<path fill="none" stroke="black" d="M1805.3,-396.09C1812.7,-420.57 1821.8,-464.52 1825.8,-493.47"/>
<polygon fill="black" stroke="black" points="1822.37,-494.233 1827,-503.76 1829.32,-493.422 1822.37,-494.233"/>
</g>
<!-- BPLINK&#45;&gt;PLINK -->
<g id="edge88" class="edge"><title>BPLINK&#45;&gt;PLINK</title>
<path fill="none" stroke="black" d="M1794.8,-396.41C1792,-404.4 1788,-413.92 1783.7,-422.7"/>
<polygon fill="black" stroke="black" points="1780.47,-421.337 1779,-431.83 1786.69,-424.541 1780.47,-421.337"/>
</g>
<!-- PLINK&#45;&gt;VCF -->
<g id="edge89" class="edge"><title>PLINK&#45;&gt;VCF</title>
<path fill="none" stroke="black" d="M1786.6,-468.41C1794.4,-476.74 1803.1,-486.73 1810.3,-495.81"/>
<polygon fill="black" stroke="black" points="1807.67,-498.128 1816.6,-503.83 1813.17,-493.804 1807.67,-498.128"/>
</g>
<!-- PLINK&#45;&gt;BPLINK -->
<g id="edge90" class="edge"><title>PLINK&#45;&gt;BPLINK</title>
<path fill="none" stroke="black" d="M1767.1,-431.83C1769.9,-423.88 1773.9,-414.37 1778.2,-405.57"/>
<polygon fill="black" stroke="black" points="1781.44,-406.917 1782.8,-396.41 1775.18,-403.776 1781.44,-406.917"/>
</g>
<!-- BIGBED -->
<g id="node41" class="node"><title>BIGBED</title>
<polygon fill="white" stroke="black" points="1421.5,-540 1344.5,-540 1344.5,-504 1421.5,-504 1421.5,-540"/>
<text text-anchor="middle" x="1383" y="-518.3" font-family="Times,serif" font-size="14.00">BIGBED</text>
</g>
<!-- BIGBED&#45;&gt;WIGGLE -->
<g id="edge91" class="edge"><title>BIGBED&#45;&gt;WIGGLE</title>
<path fill="none" stroke="black" d="M1390.8,-503.69C1398.9,-485.22 1412.3,-456.09 1426,-432 1431.2,-422.84 1437.4,-413.17 1443.2,-404.58"/>
<polygon fill="black" stroke="black" points="1446.25,-406.313 1449,-396.08 1440.47,-402.367 1446.25,-406.313"/>
</g>
<!-- BIGBED&#45;&gt;BED -->
<g id="edge92" class="edge"><title>BIGBED&#45;&gt;BED</title>
<path fill="none" stroke="black" d="M1402.9,-503.83C1412.5,-495.13 1424.1,-484.58 1434.4,-475.13"/>
<polygon fill="black" stroke="black" points="1437.04,-477.466 1442.1,-468.16 1432.34,-472.276 1437.04,-477.466"/>
</g>
<!-- BZ2 -->
<g id="node42" class="node"><title>BZ2</title>
<polygon fill="white" stroke="black" points="1925,-612 1871,-612 1871,-576 1925,-576 1925,-612"/>
<text text-anchor="middle" x="1898" y="-590.3" font-family="Times,serif" font-size="14.00">BZ2</text>
</g>
<!-- GZ -->
<g id="node43" class="node"><title>GZ</title>
<polygon fill="white" stroke="black" points="1925,-540 1871,-540 1871,-504 1925,-504 1925,-540"/>
<text text-anchor="middle" x="1898" y="-518.3" font-family="Times,serif" font-size="14.00">GZ</text>
</g>
<!-- BZ2&#45;&gt;GZ -->
<g id="edge93" class="edge"><title>BZ2&#45;&gt;GZ</title>
<path fill="none" stroke="black" d="M1892,-575.83C1891.3,-568.13 1891.1,-558.97 1891.4,-550.42"/>
<polygon fill="black" stroke="black" points="1894.9,-550.602 1892,-540.41 1887.91,-550.183 1894.9,-550.602"/>
</g>
<!-- GZ&#45;&gt;BZ2 -->
<g id="edge94" class="edge"><title>GZ&#45;&gt;BZ2</title>
<path fill="none" stroke="black" d="M1904,-540.41C1904.7,-548.06 1904.9,-557.11 1904.6,-565.57"/>
<polygon fill="black" stroke="black" points="1901.09,-565.643 1904,-575.83 1908.08,-566.051 1901.09,-565.643"/>
</g>
<!-- DSRC -->
<g id="node44" class="node"><title>DSRC</title>
<polygon fill="white" stroke="black" points="1927.5,-468 1868.5,-468 1868.5,-432 1927.5,-432 1927.5,-468"/>
<text text-anchor="middle" x="1898" y="-446.3" font-family="Times,serif" font-size="14.00">DSRC</text>
</g>
<!-- GZ&#45;&gt;DSRC -->
<g id="edge95" class="edge"><title>GZ&#45;&gt;DSRC</title>
<path fill="none" stroke="black" d="M1892,-503.83C1891.3,-496.13 1891.1,-486.97 1891.4,-478.42"/>
<polygon fill="black" stroke="black" points="1894.9,-478.602 1892,-468.41 1887.91,-478.183 1894.9,-478.602"/>
</g>
<!-- DSRC&#45;&gt;GZ -->
<g id="edge96" class="edge"><title>DSRC&#45;&gt;GZ</title>
<path fill="none" stroke="black" d="M1904,-468.41C1904.7,-476.06 1904.9,-485.11 1904.6,-493.57"/>
<polygon fill="black" stroke="black" points="1901.09,-493.643 1904,-503.83 1908.08,-494.051 1901.09,-493.643"/>
</g>
<!-- GFA -->
<g id="node45" class="node"><title>GFA</title>
<polygon fill="white" stroke="black" points="636,-540 582,-540 582,-504 636,-504 636,-540"/>
<text text-anchor="middle" x="609" y="-518.3" font-family="Times,serif" font-size="14.00">GFA</text>
</g>
<!-- GFA&#45;&gt;FASTA -->
<g id="edge98" class="edge"><title>GFA&#45;&gt;FASTA</title>
<path fill="none" stroke="black" d="M595.37,-503.83C589.15,-495.54 581.67,-485.56 574.84,-476.45"/>
<polygon fill="black" stroke="black" points="577.61,-474.31 568.81,-468.41 572.01,-478.51 577.61,-474.31"/>
</g>
<!-- MAF -->
<g id="node46" class="node"><title>MAF</title>
<polygon fill="white" stroke="black" points="1147,-540 1093,-540 1093,-504 1147,-504 1147,-540"/>
<text text-anchor="middle" x="1120" y="-518.3" font-family="Times,serif" font-size="14.00">MAF</text>
</g>
<!-- MAF&#45;&gt;SAM -->
<g id="edge99" class="edge"><title>MAF&#45;&gt;SAM</title>
<path fill="none" stroke="black" d="M1120.3,-503.83C1120.4,-496.13 1120.5,-486.97 1120.6,-478.42"/>
<polygon fill="black" stroke="black" points="1124.1,-478.444 1120.7,-468.41 1117.1,-478.375 1124.1,-478.444"/>
</g>
<!-- ODS -->
<g id="node47" class="node"><title>ODS</title>
<polygon fill="white" stroke="black" points="1781,-540 1727,-540 1727,-504 1781,-504 1781,-540"/>
<text text-anchor="middle" x="1754" y="-518.3" font-family="Times,serif" font-size="14.00">ODS</text>
</g>
<!-- ODS&#45;&gt;CSV -->
<g id="edge100" class="edge"><title>ODS&#45;&gt;CSV</title>
<path fill="none" stroke="black" d="M1726.7,-506.91C1707.4,-496.2 1681.3,-481.72 1660.2,-470.05"/>
<polygon fill="black" stroke="black" points="1661.64,-466.849 1651.2,-465.07 1658.26,-472.974 1661.64,-466.849"/>
</g>
<!-- PDB -->
<g id="node48" class="node"><title>PDB</title>
<polygon fill="white" stroke="black" points="1076,-468 1022,-468 1022,-432 1076,-432 1076,-468"/>
<text text-anchor="middle" x="1049" y="-446.3" font-family="Times,serif" font-size="14.00">PDB</text>
</g>
<!-- PDB&#45;&gt;FAA -->
<g id="edge101" class="edge"><title>PDB&#45;&gt;FAA</title>
<path fill="none" stroke="black" d="M1028.1,-431.83C1017.9,-423.05 1005.6,-412.37 994.65,-402.85"/>
<polygon fill="black" stroke="black" points="996.787,-400.07 986.94,-396.16 992.199,-405.357 996.787,-400.07"/>
</g>
<!-- SCF -->
<g id="node49" class="node"><title>SCF</title>
<polygon fill="white" stroke="black" points="780,-540 726,-540 726,-504 780,-504 780,-540"/>
<text text-anchor="middle" x="753" y="-518.3" font-family="Times,serif" font-size="14.00">SCF</text>
</g>
<!-- SCF&#45;&gt;FASTA -->
<g id="edge102" class="edge"><title>SCF&#45;&gt;FASTA</title>
<path fill="none" stroke="black" d="M725.67,-507.83C722.77,-506.48 719.84,-505.18 717,-504 676.04,-487.04 627.66,-471.47 594.5,-461.45"/>
<polygon fill="black" stroke="black" points="595.314,-458.04 584.73,-458.52 593.303,-464.745 595.314,-458.04"/>
</g>
<!-- SCF&#45;&gt;FASTQ -->
<g id="edge103" class="edge"><title>SCF&#45;&gt;FASTQ</title>
<path fill="none" stroke="black" d="M759.97,-503.76C769.43,-478.98 786.43,-434.47 797.46,-405.59"/>
<polygon fill="black" stroke="black" points="800.79,-406.681 801.09,-396.09 794.251,-404.182 800.79,-406.681"/>
</g>
<!-- SRA -->
<g id="node50" class="node"><title>SRA</title>
<polygon fill="white" stroke="black" points="1004,-468 950,-468 950,-432 1004,-432 1004,-468"/>
<text text-anchor="middle" x="977" y="-446.3" font-family="Times,serif" font-size="14.00">SRA</text>
</g>
<!-- SRA&#45;&gt;FASTQ -->
<g id="edge104" class="edge"><title>SRA&#45;&gt;FASTQ</title>
<path fill="none" stroke="black" d="M949.68,-437.94C945.11,-435.94 940.43,-433.91 936,-432 906.14,-419.15 872.24,-404.86 846.83,-394.21"/>
<polygon fill="black" stroke="black" points="848.116,-390.954 837.54,-390.32 845.412,-397.411 848.116,-390.954"/>
</g>
<!-- WIG -->
<g id="node51" class="node"><title>WIG</title>
<polygon fill="white" stroke="black" points="1489,-540 1435,-540 1435,-504 1489,-504 1489,-540"/>
<text text-anchor="middle" x="1462" y="-518.3" font-family="Times,serif" font-size="14.00">WIG</text>
</g>
<!-- WIG&#45;&gt;BED -->
<g id="edge105" class="edge"><title>WIG&#45;&gt;BED</title>
<path fill="none" stroke="black" d="M1462,-503.83C1462,-496.13 1462,-486.97 1462,-478.42"/>
<polygon fill="black" stroke="black" points="1465.5,-478.41 1462,-468.41 1458.5,-478.41 1465.5,-478.41"/>
</g>
<!-- XLSX -->
<g id="node52" class="node"><title>XLSX</title>
<polygon fill="white" stroke="black" points="1710.5,-540 1653.5,-540 1653.5,-504 1710.5,-504 1710.5,-540"/>
<text text-anchor="middle" x="1682" y="-518.3" font-family="Times,serif" font-size="14.00">XLSX</text>
</g>
<!-- XLSX&#45;&gt;CSV -->
<g id="edge106" class="edge"><title>XLSX&#45;&gt;CSV</title>
<path fill="none" stroke="black" d="M1667.4,-503.83C1660.7,-495.54 1652.6,-485.56 1645.3,-476.45"/>
<polygon fill="black" stroke="black" points="1647.81,-473.986 1638.8,-468.41 1642.37,-478.387 1647.81,-473.986"/>
</g>
</g>
</svg>
