<?xml version="1.0" encoding="UTF-8" standalone="no"?>
<!DOCTYPE svg PUBLIC "-//W3C//DTD SVG 1.1//EN"
 "http://www.w3.org/Graphics/SVG/1.1/DTD/svg11.dtd">
<!-- Generated by graphviz version 2.38.0 (20140413.2041)
 -->
<!-- Title: %3 Pages: 1 -->
<svg width="1371pt" height="548pt"
 viewBox="0.00 0.00 1371.47 548.00" xmlns="http://www.w3.org/2000/svg" xmlns:xlink="http://www.w3.org/1999/xlink">
<g id="graph0" class="graph" transform="scale(1 1) rotate(0) translate(22.971 544)">
<title>%3</title>
<polygon fill="white" stroke="none" points="-22.971,4 -22.971,-544 1348.5,-544 1348.5,4 -22.971,4"/>
<!-- TWOBIT -->
<g id="node1" class="node"><title>TWOBIT</title>
<polygon fill="white" stroke="black" points="433.48,-396 363.48,-396 363.48,-360 433.48,-360 433.48,-396"/>
<text text-anchor="middle" x="398.48" y="-374.3" font-family="Times,serif" font-size="14.00">TWOBIT</text>
</g>
<!-- FASTA -->
<g id="node2" class="node"><title>FASTA</title>
<polygon fill="red" stroke="black" points="364.98,-324 305.98,-324 305.98,-288 364.98,-288 364.98,-324"/>
<text text-anchor="middle" x="335.48" y="-302.3" font-family="Times,serif" font-size="14.00">FASTA</text>
</g>
<!-- TWOBIT&#45;&gt;FASTA -->
<g id="edge1" class="edge"><title>TWOBIT&#45;&gt;FASTA</title>
<path fill="none" stroke="black" d="M377,-359.7C368.58,-351.3 359.17,-341.07 351.37,-331.86"/>
<polygon fill="black" stroke="black" points="354.039,-329.595 344.98,-324.1 348.635,-334.044 354.039,-329.595"/>
</g>
<!-- FASTA&#45;&gt;TWOBIT -->
<g id="edge2" class="edge"><title>FASTA&#45;&gt;TWOBIT</title>
<path fill="none" stroke="black" d="M356.77,-324.1C365.18,-332.47 374.58,-342.69 382.42,-351.92"/>
<polygon fill="black" stroke="black" points="379.77,-354.208 388.83,-359.7 385.172,-349.757 379.77,-354.208"/>
</g>
<!-- NEXUS -->
<g id="node3" class="node"><title>NEXUS</title>
<polygon fill="orange" stroke="black" points="542.48,-252 480.48,-252 480.48,-216 542.48,-216 542.48,-252"/>
<text text-anchor="middle" x="511.48" y="-230.3" font-family="Times,serif" font-size="14.00">NEXUS</text>
</g>
<!-- FASTA&#45;&gt;NEXUS -->
<g id="edge3" class="edge"><title>FASTA&#45;&gt;NEXUS</title>
<path fill="none" stroke="black" d="M365.15,-291C394.16,-278.82 438.34,-261.24 470.64,-249.04"/>
<polygon fill="black" stroke="black" points="472.113,-252.226 480.25,-245.44 469.658,-245.671 472.113,-252.226"/>
</g>
<!-- PHYLIP -->
<g id="node4" class="node"><title>PHYLIP</title>
<polygon fill="orange" stroke="black" points="702.48,-180 638.48,-180 638.48,-144 702.48,-144 702.48,-180"/>
<text text-anchor="middle" x="670.48" y="-158.3" font-family="Times,serif" font-size="14.00">PHYLIP</text>
</g>
<!-- FASTA&#45;&gt;PHYLIP -->
<g id="edge4" class="edge"><title>FASTA&#45;&gt;PHYLIP</title>
<path fill="none" stroke="black" d="M365.05,-300.68C406.47,-294.38 482.79,-280.21 542.48,-252 578.11,-235.17 613.59,-206.74 638.32,-186.55"/>
<polygon fill="black" stroke="black" points="640.755,-189.08 646.28,-180.04 636.323,-183.662 640.755,-189.08"/>
</g>
<!-- GENBANK -->
<g id="node5" class="node"><title>GENBANK</title>
<polygon fill="yellow" stroke="black" points="376.98,-252 293.98,-252 293.98,-216 376.98,-216 376.98,-252"/>
<text text-anchor="middle" x="335.48" y="-230.3" font-family="Times,serif" font-size="14.00">GENBANK</text>
</g>
<!-- FASTA&#45;&gt;GENBANK -->
<g id="edge5" class="edge"><title>FASTA&#45;&gt;GENBANK</title>
<path fill="none" stroke="black" d="M329.57,-287.7C328.77,-279.98 328.55,-270.71 328.89,-262.11"/>
<polygon fill="black" stroke="black" points="332.384,-262.32 329.59,-252.1 325.401,-261.831 332.384,-262.32"/>
</g>
<!-- FASTQ -->
<g id="node6" class="node"><title>FASTQ</title>
<polygon fill="orange" stroke="black" points="88.984,-252 29.984,-252 29.984,-216 88.984,-216 88.984,-252"/>
<text text-anchor="middle" x="59.484" y="-230.3" font-family="Times,serif" font-size="14.00">FASTQ</text>
</g>
<!-- FASTA&#45;&gt;FASTQ -->
<g id="edge6" class="edge"><title>FASTA&#45;&gt;FASTQ</title>
<path fill="none" stroke="black" d="M305.62,-299.46C251.03,-288.29 138.25,-263.36 98.945,-253.03"/>
<polygon fill="black" stroke="black" points="99.8261,-249.642 89.253,-250.32 97.9411,-256.384 99.8261,-249.642"/>
</g>
<!-- CLUSTAL -->
<g id="node7" class="node"><title>CLUSTAL</title>
<polygon fill="yellow" stroke="black" points="613.98,-36 536.98,-36 536.98,-0 613.98,-0 613.98,-36"/>
<text text-anchor="middle" x="575.48" y="-14.3" font-family="Times,serif" font-size="14.00">CLUSTAL</text>
</g>
<!-- FASTA&#45;&gt;CLUSTAL -->
<g id="edge7" class="edge"><title>FASTA&#45;&gt;CLUSTAL</title>
<path fill="none" stroke="black" d="M346.65,-287.61C355.67,-277.82 367.67,-264.98 376.48,-252 426.07,-178.96 398.91,-135.26 460.48,-72 478.57,-53.423 504.53,-40.293 527.3,-31.749"/>
<polygon fill="black" stroke="black" points="528.585,-35.007 536.84,-28.366 526.245,-28.4095 528.585,-35.007"/>
</g>
<!-- FASTA_QUAL_and_FASTQ -->
<g id="node8" class="node"><title>FASTA_QUAL_and_FASTQ</title>
<ellipse fill="none" stroke="black" cx="97.484" cy="-18" rx="3.5" ry="3.5"/>
</g>
<!-- FASTA&#45;&gt;FASTA_QUAL_and_FASTQ -->
<g id="edge8" class="edge"><title>FASTA&#45;&gt;FASTA_QUAL_and_FASTQ</title>
<path fill="none" stroke="black" d="M305.71,-298.86C264.26,-289.73 192.26,-271.53 174.48,-252 119.26,-191.32 166.21,-147.24 133.48,-72 126.43,-55.782 114.25,-39.265 106.03,-29.076"/>
<polygon fill="black" stroke="black" points="108.577,-26.666 99.476,-21.242 103.208,-31.1577 108.577,-26.666"/>
</g>
<!-- FAA -->
<g id="node9" class="node"><title>FAA</title>
<polygon fill="white" stroke="black" points="237.48,-252 183.48,-252 183.48,-216 237.48,-216 237.48,-252"/>
<text text-anchor="middle" x="210.48" y="-230.3" font-family="Times,serif" font-size="14.00">FAA</text>
</g>
<!-- FASTA&#45;&gt;FAA -->
<g id="edge9" class="edge"><title>FASTA&#45;&gt;FAA</title>
<path fill="none" stroke="black" d="M305.86,-288.41C288.12,-278.47 265.43,-265.77 246.63,-255.24"/>
<polygon fill="black" stroke="black" points="248.195,-252.105 237.76,-250.27 244.773,-258.212 248.195,-252.105"/>
</g>
<!-- NEXUS&#45;&gt;FASTA -->
<g id="edge10" class="edge"><title>NEXUS&#45;&gt;FASTA</title>
<path fill="none" stroke="black" d="M480.43,-249.58C450.91,-261.95 406.6,-279.55 374.68,-291.58"/>
<polygon fill="black" stroke="black" points="373.344,-288.343 365.2,-295.12 375.793,-294.901 373.344,-288.343"/>
</g>
<!-- NEXUS&#45;&gt;PHYLIP -->
<g id="edge11" class="edge"><title>NEXUS&#45;&gt;PHYLIP</title>
<path fill="none" stroke="black" d="M542.56,-216.76C567.18,-205.36 601.67,-190.19 628.69,-178.87"/>
<polygon fill="black" stroke="black" points="630.384,-181.956 638.27,-174.88 627.693,-175.494 630.384,-181.956"/>
</g>
<!-- NEXUS&#45;&gt;CLUSTAL -->
<g id="edge12" class="edge"><title>NEXUS&#45;&gt;CLUSTAL</title>
<path fill="none" stroke="black" d="M496.16,-215.72C476,-184.75 447.51,-118.67 474.48,-72 485.71,-52.574 507.06,-39.639 527.34,-31.414"/>
<polygon fill="black" stroke="black" points="528.712,-34.6378 536.85,-27.854 526.258,-28.082 528.712,-34.6378"/>
</g>
<!-- PHYLOXML -->
<g id="node10" class="node"><title>PHYLOXML</title>
<polygon fill="white" stroke="black" points="584.48,-108 492.48,-108 492.48,-72 584.48,-72 584.48,-108"/>
<text text-anchor="middle" x="538.48" y="-86.3" font-family="Times,serif" font-size="14.00">PHYLOXML</text>
</g>
<!-- NEXUS&#45;&gt;PHYLOXML -->
<g id="edge13" class="edge"><title>NEXUS&#45;&gt;PHYLOXML</title>
<path fill="none" stroke="black" d="M510.16,-215.87C512.21,-191.56 520.43,-146.82 527.92,-118.01"/>
<polygon fill="black" stroke="black" points="531.344,-118.761 530.63,-108.19 524.596,-116.899 531.344,-118.761"/>
</g>
<!-- NEWICK -->
<g id="node11" class="node"><title>NEWICK</title>
<polygon fill="white" stroke="black" points="619.98,-180 548.98,-180 548.98,-144 619.98,-144 619.98,-180"/>
<text text-anchor="middle" x="584.48" y="-158.3" font-family="Times,serif" font-size="14.00">NEWICK</text>
</g>
<!-- NEXUS&#45;&gt;NEWICK -->
<g id="edge14" class="edge"><title>NEXUS&#45;&gt;NEWICK</title>
<path fill="none" stroke="black" d="M523.61,-215.7C531.74,-207.05 542.62,-196.45 552.98,-187.03"/>
<polygon fill="black" stroke="black" points="555.617,-189.368 560.75,-180.1 550.957,-184.144 555.617,-189.368"/>
</g>
<!-- PHYLIP&#45;&gt;FASTA -->
<g id="edge15" class="edge"><title>PHYLIP&#45;&gt;FASTA</title>
<path fill="none" stroke="black" d="M659.01,-180.04C639.6,-200.16 600.14,-233.26 560.48,-252 499.63,-280.75 421.5,-294.92 374.99,-301.04"/>
<polygon fill="black" stroke="black" points="374.497,-297.574 365.01,-302.29 375.367,-304.52 374.497,-297.574"/>
</g>
<!-- PHYLIP&#45;&gt;NEXUS -->
<g id="edge16" class="edge"><title>PHYLIP&#45;&gt;NEXUS</title>
<path fill="none" stroke="black" d="M638.27,-179.76C613.34,-191.28 578.81,-206.46 552.01,-217.66"/>
<polygon fill="black" stroke="black" points="550.421,-214.53 542.53,-221.6 553.108,-220.994 550.421,-214.53"/>
</g>
<!-- PHYLIP&#45;&gt;CLUSTAL -->
<g id="edge17" class="edge"><title>PHYLIP&#45;&gt;CLUSTAL</title>
<path fill="none" stroke="black" d="M667.99,-143.89C669.04,-124.89 671.7,-94 658.48,-72 650.15,-58.131 636.72,-47.541 623.03,-39.613"/>
<polygon fill="black" stroke="black" points="624.505,-36.4324 614.04,-34.78 621.191,-42.5979 624.505,-36.4324"/>
</g>
<!-- XMFA -->
<g id="node12" class="node"><title>XMFA</title>
<polygon fill="white" stroke="black" points="658.48,-108 602.48,-108 602.48,-72 658.48,-72 658.48,-108"/>
<text text-anchor="middle" x="630.48" y="-86.3" font-family="Times,serif" font-size="14.00">XMFA</text>
</g>
<!-- PHYLIP&#45;&gt;XMFA -->
<g id="edge18" class="edge"><title>PHYLIP&#45;&gt;XMFA</title>
<path fill="none" stroke="black" d="M654.68,-143.7C649.31,-135.73 643.59,-126.1 638.93,-117.26"/>
<polygon fill="black" stroke="black" points="641.956,-115.486 634.36,-108.1 635.693,-118.611 641.956,-115.486"/>
</g>
<!-- STOCKHOLM -->
<g id="node13" class="node"><title>STOCKHOLM</title>
<polygon fill="white" stroke="black" points="833.98,-108 732.98,-108 732.98,-72 833.98,-72 833.98,-108"/>
<text text-anchor="middle" x="783.48" y="-86.3" font-family="Times,serif" font-size="14.00">STOCKHOLM</text>
</g>
<!-- PHYLIP&#45;&gt;STOCKHOLM -->
<g id="edge19" class="edge"><title>PHYLIP&#45;&gt;STOCKHOLM</title>
<path fill="none" stroke="black" d="M692.23,-143.88C706.05,-134.72 724.27,-123.34 740.84,-113.48"/>
<polygon fill="black" stroke="black" points="742.986,-116.278 749.83,-108.19 739.436,-110.245 742.986,-116.278"/>
</g>
<!-- GENBANK&#45;&gt;FASTA -->
<g id="edge20" class="edge"><title>GENBANK&#45;&gt;FASTA</title>
<path fill="none" stroke="black" d="M341.38,-252.1C342.18,-259.79 342.42,-269.05 342.09,-277.67"/>
<polygon fill="black" stroke="black" points="338.595,-277.483 341.4,-287.7 345.578,-277.964 338.595,-277.483"/>
</g>
<!-- EMBL -->
<g id="node14" class="node"><title>EMBL</title>
<polygon fill="white" stroke="black" points="289.98,-180 234.98,-180 234.98,-144 289.98,-144 289.98,-180"/>
<text text-anchor="middle" x="262.48" y="-158.3" font-family="Times,serif" font-size="14.00">EMBL</text>
</g>
<!-- GENBANK&#45;&gt;EMBL -->
<g id="edge21" class="edge"><title>GENBANK&#45;&gt;EMBL</title>
<path fill="none" stroke="black" d="M311.52,-215.7C301.71,-207.14 290.6,-196.66 281.37,-187.3"/>
<polygon fill="black" stroke="black" points="283.89,-184.871 274.43,-180.1 278.85,-189.729 283.89,-184.871"/>
</g>
<!-- GFF3 -->
<g id="node15" class="node"><title>GFF3</title>
<polygon fill="white" stroke="black" points="362.48,-180 308.48,-180 308.48,-144 362.48,-144 362.48,-180"/>
<text text-anchor="middle" x="335.48" y="-158.3" font-family="Times,serif" font-size="14.00">GFF3</text>
</g>
<!-- GENBANK&#45;&gt;GFF3 -->
<g id="edge22" class="edge"><title>GENBANK&#45;&gt;GFF3</title>
<path fill="none" stroke="black" d="M335.48,-215.7C335.48,-207.98 335.48,-198.71 335.48,-190.11"/>
<polygon fill="black" stroke="black" points="338.98,-190.1 335.48,-180.1 331.98,-190.1 338.98,-190.1"/>
</g>
<!-- FASTQ&#45;&gt;FASTA -->
<g id="edge23" class="edge"><title>FASTQ&#45;&gt;FASTA</title>
<path fill="none" stroke="black" d="M89.277,-243.93C96.899,-246.74 104.97,-249.7 112.48,-252 130.18,-257.41 236.71,-281.2 296,-295"/>
<polygon fill="black" stroke="black" points="295.256,-298.42 305.79,-297.29 296.85,-291.604 295.256,-298.42"/>
</g>
<!-- FASTQ_and_FASTA_QUAL -->
<g id="node16" class="node"><title>FASTQ_and_FASTA_QUAL</title>
<ellipse fill="none" stroke="black" cx="112.48" cy="-162" rx="3.5" ry="3.5"/>
</g>
<!-- FASTQ&#45;&gt;FASTQ_and_FASTA_QUAL -->
<g id="edge24" class="edge"><title>FASTQ&#45;&gt;FASTQ_and_FASTA_QUAL</title>
<path fill="none" stroke="black" d="M72.586,-215.7C82.621,-202.44 96.135,-184.59 104.58,-173.44"/>
<polygon fill="black" stroke="black" points="107.589,-175.264 110.84,-165.18 102.01,-171.036 107.589,-175.264"/>
</g>
<!-- QUAL -->
<g id="node17" class="node"><title>QUAL</title>
<polygon fill="white" stroke="black" points="124.484,-108 70.484,-108 70.484,-72 124.484,-72 124.484,-108"/>
<text text-anchor="middle" x="97.484" y="-86.3" font-family="Times,serif" font-size="14.00">QUAL</text>
</g>
<!-- FASTQ&#45;&gt;QUAL -->
<g id="edge25" class="edge"><title>FASTQ&#45;&gt;QUAL</title>
<path fill="none" stroke="black" d="M64.068,-215.87C70.573,-191.56 82.547,-146.82 90.256,-118.01"/>
<polygon fill="black" stroke="black" points="93.6798,-118.755 92.884,-108.19 86.9177,-116.945 93.6798,-118.755"/>
</g>
<!-- CLUSTAL&#45;&gt;FASTA -->
<g id="edge26" class="edge"><title>CLUSTAL&#45;&gt;FASTA</title>
<path fill="none" stroke="black" d="M536.87,-34.428C517.45,-42.952 494.77,-55.266 478.48,-72 416.91,-135.26 444.07,-178.96 394.48,-252 387.55,-262.22 378.62,-272.36 369.74,-280.98"/>
<polygon fill="black" stroke="black" points="367.287,-278.481 362.34,-287.85 372.05,-283.611 367.287,-278.481"/>
</g>
<!-- CLUSTAL&#45;&gt;NEXUS -->
<g id="edge27" class="edge"><title>CLUSTAL&#45;&gt;NEXUS</title>
<path fill="none" stroke="black" d="M536.64,-34.609C520.05,-42.863 502.35,-54.924 492.48,-72 468.04,-114.29 489.14,-172.53 502.85,-206.13"/>
<polygon fill="black" stroke="black" points="499.755,-207.807 506.8,-215.72 506.228,-205.141 499.755,-207.807"/>
</g>
<!-- CLUSTAL&#45;&gt;PHYLIP -->
<g id="edge28" class="edge"><title>CLUSTAL&#45;&gt;PHYLIP</title>
<path fill="none" stroke="black" d="M614.38,-28.158C636.93,-36.101 663.2,-49.878 676.48,-72 687.63,-90.562 687.48,-115.45 683.58,-134.19"/>
<polygon fill="black" stroke="black" points="680.187,-133.333 681.08,-143.89 686.965,-135.08 680.187,-133.333"/>
</g>
<!-- CLUSTAL&#45;&gt;STOCKHOLM -->
<g id="edge29" class="edge"><title>CLUSTAL&#45;&gt;STOCKHOLM</title>
<path fill="none" stroke="black" d="M614.17,-30.295C646.49,-40.595 692.81,-56.062 728.87,-68.534"/>
<polygon fill="black" stroke="black" points="728.165,-71.9941 738.76,-71.966 730.46,-65.381 728.165,-71.9941"/>
</g>
<!-- FASTA_QUAL_and_FASTQ&#45;&gt;FASTQ -->
<g id="edge30" class="edge"><title>FASTA_QUAL_and_FASTQ&#45;&gt;FASTQ</title>
<path fill="none" stroke="black" d="M95.286,-21.165C88.604,-27.92 68.555,-49.504 61.484,-72 47.327,-117.04 50.981,-172.73 55.105,-205.42"/>
<polygon fill="black" stroke="black" points="51.6707,-206.138 56.497,-215.57 58.6057,-205.187 51.6707,-206.138"/>
</g>
<!-- PHYLOXML&#45;&gt;NEXUS -->
<g id="edge31" class="edge"><title>PHYLOXML&#45;&gt;NEXUS</title>
<path fill="none" stroke="black" d="M539.81,-108.19C537.74,-132.53 529.51,-177.28 522.03,-206.06"/>
<polygon fill="black" stroke="black" points="518.609,-205.3 519.33,-215.87 525.358,-207.157 518.609,-205.3"/>
</g>
<!-- PHYLOXML&#45;&gt;NEWICK -->
<g id="edge32" class="edge"><title>PHYLOXML&#45;&gt;NEWICK</title>
<path fill="none" stroke="black" d="M555.62,-108.1C561.73,-116.13 568.36,-125.87 573.82,-134.8"/>
<polygon fill="black" stroke="black" points="570.957,-136.838 579.03,-143.7 576.999,-133.302 570.957,-136.838"/>
</g>
<!-- NEWICK&#45;&gt;NEXUS -->
<g id="edge33" class="edge"><title>NEWICK&#45;&gt;NEXUS</title>
<path fill="none" stroke="black" d="M572.54,-180.1C564.38,-188.8 553.38,-199.52 542.92,-209.03"/>
<polygon fill="black" stroke="black" points="540.578,-206.429 535.45,-215.7 545.24,-211.65 540.578,-206.429"/>
</g>
<!-- NEWICK&#45;&gt;PHYLOXML -->
<g id="edge34" class="edge"><title>NEWICK&#45;&gt;PHYLOXML</title>
<path fill="none" stroke="black" d="M567.2,-143.7C561.08,-135.64 554.46,-125.89 549.01,-116.98"/>
<polygon fill="black" stroke="black" points="551.892,-114.974 543.83,-108.1 545.846,-118.501 551.892,-114.974"/>
</g>
<!-- XMFA&#45;&gt;PHYLIP -->
<g id="edge35" class="edge"><title>XMFA&#45;&gt;PHYLIP</title>
<path fill="none" stroke="black" d="M646.15,-108.1C651.52,-116.04 657.25,-125.67 661.92,-134.51"/>
<polygon fill="black" stroke="black" points="658.911,-136.318 666.51,-143.7 665.173,-133.19 658.911,-136.318"/>
</g>
<!-- STOCKHOLM&#45;&gt;PHYLIP -->
<g id="edge36" class="edge"><title>STOCKHOLM&#45;&gt;PHYLIP</title>
<path fill="none" stroke="black" d="M761.74,-108.12C747.38,-117.63 728.27,-129.55 711.2,-139.66"/>
<polygon fill="black" stroke="black" points="709.351,-136.687 702.49,-144.76 712.888,-142.727 709.351,-136.687"/>
</g>
<!-- STOCKHOLM&#45;&gt;CLUSTAL -->
<g id="edge37" class="edge"><title>STOCKHOLM&#45;&gt;CLUSTAL</title>
<path fill="none" stroke="black" d="M732.94,-73.897C699.81,-63.189 656.81,-48.759 624.08,-37.381"/>
<polygon fill="black" stroke="black" points="624.865,-33.9478 614.27,-33.955 622.557,-40.5564 624.865,-33.9478"/>
</g>
<!-- EMBL&#45;&gt;FASTA -->
<g id="edge38" class="edge"><title>EMBL&#45;&gt;FASTA</title>
<path fill="none" stroke="black" d="M264.04,-180.03C266.32,-198.68 271.8,-229.01 284.48,-252 290.31,-262.55 298.76,-272.52 307.13,-280.91"/>
<polygon fill="black" stroke="black" points="304.736,-283.463 314.38,-287.85 309.576,-278.407 304.736,-283.463"/>
</g>
<!-- EMBL&#45;&gt;GENBANK -->
<g id="edge39" class="edge"><title>EMBL&#45;&gt;GENBANK</title>
<path fill="none" stroke="black" d="M286.22,-180.1C296.01,-188.64 307.12,-199.11 316.38,-208.48"/>
<polygon fill="black" stroke="black" points="313.893,-210.943 323.36,-215.7 318.926,-206.078 313.893,-210.943"/>
</g>
<!-- GFF2 -->
<g id="node18" class="node"><title>GFF2</title>
<polygon fill="white" stroke="black" points="362.48,-108 308.48,-108 308.48,-72 362.48,-72 362.48,-108"/>
<text text-anchor="middle" x="335.48" y="-86.3" font-family="Times,serif" font-size="14.00">GFF2</text>
</g>
<!-- GFF3&#45;&gt;GFF2 -->
<g id="edge40" class="edge"><title>GFF3&#45;&gt;GFF2</title>
<path fill="none" stroke="black" d="M329.57,-143.7C328.77,-135.98 328.55,-126.71 328.89,-118.11"/>
<polygon fill="black" stroke="black" points="332.384,-118.32 329.59,-108.1 325.401,-117.831 332.384,-118.32"/>
</g>
<!-- FASTQ_and_FASTA_QUAL&#45;&gt;FASTA -->
<g id="edge41" class="edge"><title>FASTQ_and_FASTA_QUAL&#45;&gt;FASTA</title>
<path fill="none" stroke="black" d="M112.5,-165.65C112.69,-177.58 115.13,-226.89 141.48,-252 152.76,-262.75 242.63,-284.27 296.01,-296.32"/>
<polygon fill="black" stroke="black" points="295.316,-299.751 305.84,-298.53 296.851,-292.922 295.316,-299.751"/>
</g>
<!-- FASTQ_and_FASTA_QUAL&#45;&gt;QUAL -->
<g id="edge42" class="edge"><title>FASTQ_and_FASTA_QUAL&#45;&gt;QUAL</title>
<path fill="none" stroke="black" d="M111.91,-158.34C110.49,-151.7 106.66,-133.81 103.3,-118.14"/>
<polygon fill="black" stroke="black" points="106.709,-117.344 101.19,-108.3 99.8645,-118.812 106.709,-117.344"/>
</g>
<!-- QUAL&#45;&gt;FASTA_QUAL_and_FASTQ -->
<g id="edge43" class="edge"><title>QUAL&#45;&gt;FASTA_QUAL_and_FASTQ</title>
<path fill="none" stroke="black" d="M97.484,-71.697C97.484,-59.358 97.484,-43.039 97.484,-31.848"/>
<polygon fill="black" stroke="black" points="100.984,-31.614 97.484,-21.614 93.9841,-31.614 100.984,-31.614"/>
</g>
<!-- GFF2&#45;&gt;GFF3 -->
<g id="edge44" class="edge"><title>GFF2&#45;&gt;GFF3</title>
<path fill="none" stroke="black" d="M341.38,-108.1C342.18,-115.79 342.42,-125.05 342.09,-133.67"/>
<polygon fill="black" stroke="black" points="338.595,-133.483 341.4,-143.7 345.578,-133.964 338.595,-133.483"/>
</g>
<!-- BED -->
<g id="node19" class="node"><title>BED</title>
<polygon fill="white" stroke="black" points="1120.5,-252 1066.5,-252 1066.5,-216 1120.5,-216 1120.5,-252"/>
<text text-anchor="middle" x="1093.5" y="-230.3" font-family="Times,serif" font-size="14.00">BED</text>
</g>
<!-- WIGGLE -->
<g id="node20" class="node"><title>WIGGLE</title>
<polygon fill="yellow" stroke="black" points="1074,-180 1003,-180 1003,-144 1074,-144 1074,-180"/>
<text text-anchor="middle" x="1038.5" y="-158.3" font-family="Times,serif" font-size="14.00">WIGGLE</text>
</g>
<!-- BED&#45;&gt;WIGGLE -->
<g id="edge45" class="edge"><title>BED&#45;&gt;WIGGLE</title>
<path fill="none" stroke="black" d="M1079.9,-215.7C1073.4,-207.39 1065.4,-197.28 1058.2,-188.14"/>
<polygon fill="black" stroke="black" points="1060.82,-185.813 1051.9,-180.1 1055.31,-190.13 1060.82,-185.813"/>
</g>
<!-- SCF -->
<g id="node21" class="node"><title>SCF</title>
<polygon fill="white" stroke="black" points="197.48,-396 143.48,-396 143.48,-360 197.48,-360 197.48,-396"/>
<text text-anchor="middle" x="170.48" y="-374.3" font-family="Times,serif" font-size="14.00">SCF</text>
</g>
<!-- SCF&#45;&gt;FASTA -->
<g id="edge46" class="edge"><title>SCF&#45;&gt;FASTA</title>
<path fill="none" stroke="black" d="M197.73,-365.44C224.66,-354.02 266.11,-336.43 296.52,-323.53"/>
<polygon fill="black" stroke="black" points="298.132,-326.648 305.97,-319.52 295.397,-320.204 298.132,-326.648"/>
</g>
<!-- SCF&#45;&gt;FASTQ -->
<g id="edge47" class="edge"><title>SCF&#45;&gt;FASTQ</title>
<path fill="none" stroke="black" d="M145.36,-359.86C132.64,-350.33 117.59,-337.66 106.48,-324 91.07,-305.04 78.469,-280.23 70.209,-261.62"/>
<polygon fill="black" stroke="black" points="73.3501,-260.065 66.185,-252.26 66.9192,-262.829 73.3501,-260.065"/>
</g>
<!-- WIG -->
<g id="node22" class="node"><title>WIG</title>
<polygon fill="white" stroke="black" points="1168.5,-324 1114.5,-324 1114.5,-288 1168.5,-288 1168.5,-324"/>
<text text-anchor="middle" x="1141.5" y="-302.3" font-family="Times,serif" font-size="14.00">WIG</text>
</g>
<!-- WIG&#45;&gt;BED -->
<g id="edge48" class="edge"><title>WIG&#45;&gt;BED</title>
<path fill="none" stroke="black" d="M1129.6,-287.7C1124,-279.47 1117.1,-269.48 1110.9,-260.42"/>
<polygon fill="black" stroke="black" points="1113.74,-258.372 1105.2,-252.1 1107.96,-262.328 1113.74,-258.372"/>
</g>
<!-- VCF -->
<g id="node23" class="node"><title>VCF</title>
<polygon fill="yellow" stroke="black" points="1277.5,-324 1223.5,-324 1223.5,-288 1277.5,-288 1277.5,-324"/>
<text text-anchor="middle" x="1250.5" y="-302.3" font-family="Times,serif" font-size="14.00">VCF</text>
</g>
<!-- VCF&#45;&gt;BED -->
<g id="edge49" class="edge"><title>VCF&#45;&gt;BED</title>
<path fill="none" stroke="black" d="M1223.5,-293.43C1200.8,-283.66 1167.4,-269.13 1130.1,-252.24"/>
<polygon fill="black" stroke="black" points="1131.15,-248.871 1120.6,-247.89 1128.24,-255.236 1131.15,-248.871"/>
</g>
<!-- VCF&#45;&gt;WIGGLE -->
<g id="edge50" class="edge"><title>VCF&#45;&gt;WIGGLE</title>
<path fill="none" stroke="black" d="M1245.3,-287.73C1238.5,-267.7 1224.5,-235 1201.5,-216 1168,-188.3 1119.6,-174.95 1084.3,-168.6"/>
<polygon fill="black" stroke="black" points="1084.64,-165.108 1074.2,-166.92 1083.49,-172.013 1084.64,-165.108"/>
</g>
<!-- BPLINK -->
<g id="node24" class="node"><title>BPLINK</title>
<polygon fill="white" stroke="black" points="1314,-252 1249,-252 1249,-216 1314,-216 1314,-252"/>
<text text-anchor="middle" x="1281.5" y="-230.3" font-family="Times,serif" font-size="14.00">BPLINK</text>
</g>
<!-- VCF&#45;&gt;BPLINK -->
<g id="edge51" class="edge"><title>VCF&#45;&gt;BPLINK</title>
<path fill="none" stroke="black" d="M1252.2,-287.7C1254.9,-279.73 1259,-270.1 1263.3,-261.26"/>
<polygon fill="black" stroke="black" points="1266.55,-262.595 1268,-252.1 1260.32,-259.399 1266.55,-262.595"/>
</g>
<!-- BCF -->
<g id="node25" class="node"><title>BCF</title>
<polygon fill="white" stroke="black" points="1192.5,-252 1138.5,-252 1138.5,-216 1192.5,-216 1192.5,-252"/>
<text text-anchor="middle" x="1165.5" y="-230.3" font-family="Times,serif" font-size="14.00">BCF</text>
</g>
<!-- VCF&#45;&gt;BCF -->
<g id="edge52" class="edge"><title>VCF&#45;&gt;BCF</title>
<path fill="none" stroke="black" d="M1223.6,-287.7C1212.1,-278.97 1198.9,-268.24 1187.9,-258.75"/>
<polygon fill="black" stroke="black" points="1190.2,-256.116 1180.4,-252.1 1185.56,-261.353 1190.2,-256.116"/>
</g>
<!-- PLINK -->
<g id="node26" class="node"><title>PLINK</title>
<polygon fill="white" stroke="black" points="1344.5,-180 1288.5,-180 1288.5,-144 1344.5,-144 1344.5,-180"/>
<text text-anchor="middle" x="1316.5" y="-158.3" font-family="Times,serif" font-size="14.00">PLINK</text>
</g>
<!-- VCF&#45;&gt;PLINK -->
<g id="edge53" class="edge"><title>VCF&#45;&gt;PLINK</title>
<path fill="none" stroke="black" d="M1277.5,-288.28C1290.9,-279.6 1305.6,-267.51 1313.5,-252 1323.1,-232.94 1320.6,-208.58 1317.7,-190.17"/>
<polygon fill="black" stroke="black" points="1321.12,-189.378 1316,-180.1 1314.21,-190.543 1321.12,-189.378"/>
</g>
<!-- BPLINK&#45;&gt;VCF -->
<g id="edge54" class="edge"><title>BPLINK&#45;&gt;VCF</title>
<path fill="none" stroke="black" d="M1279.8,-252.1C1277.1,-260.13 1273,-269.87 1268.6,-278.8"/>
<polygon fill="black" stroke="black" points="1265.49,-277.197 1264.1,-287.7 1271.74,-280.355 1265.49,-277.197"/>
</g>
<!-- BPLINK&#45;&gt;PLINK -->
<g id="edge55" class="edge"><title>BPLINK&#45;&gt;PLINK</title>
<path fill="none" stroke="black" d="M1284.2,-215.7C1287.4,-207.64 1292.1,-197.89 1296.9,-188.98"/>
<polygon fill="black" stroke="black" points="1300.05,-190.515 1302,-180.1 1293.98,-187.028 1300.05,-190.515"/>
</g>
<!-- BCF&#45;&gt;WIGGLE -->
<g id="edge56" class="edge"><title>BCF&#45;&gt;WIGGLE</title>
<path fill="none" stroke="black" d="M1138.2,-217.98C1120.9,-208.41 1098.1,-195.84 1078.6,-185.14"/>
<polygon fill="black" stroke="black" points="1080.14,-181.994 1069.7,-180.21 1076.75,-188.117 1080.14,-181.994"/>
</g>
<!-- BCF&#45;&gt;VCF -->
<g id="edge57" class="edge"><title>BCF&#45;&gt;VCF</title>
<path fill="none" stroke="black" d="M1192.1,-252.1C1203.6,-260.8 1216.8,-271.52 1227.8,-281.03"/>
<polygon fill="black" stroke="black" points="1225.58,-283.734 1235.4,-287.7 1230.19,-278.473 1225.58,-283.734"/>
</g>
<!-- PLINK&#45;&gt;VCF -->
<g id="edge58" class="edge"><title>PLINK&#45;&gt;VCF</title>
<path fill="none" stroke="black" d="M1329.2,-180.1C1337.2,-198.82 1343,-229.2 1331.5,-252 1322.4,-270 1304,-283.38 1286.9,-292.19"/>
<polygon fill="black" stroke="black" points="1285.12,-289.16 1277.6,-296.62 1288.13,-295.479 1285.12,-289.16"/>
</g>
<!-- PLINK&#45;&gt;BPLINK -->
<g id="edge59" class="edge"><title>PLINK&#45;&gt;BPLINK</title>
<path fill="none" stroke="black" d="M1313.8,-180.1C1310.7,-188.13 1306,-197.87 1301.1,-206.8"/>
<polygon fill="black" stroke="black" points="1297.95,-205.267 1296.1,-215.7 1304.05,-208.696 1297.95,-205.267"/>
</g>
<!-- BIGBED -->
<g id="node27" class="node"><title>BIGBED</title>
<polygon fill="white" stroke="black" points="1096,-324 1029,-324 1029,-288 1096,-288 1096,-324"/>
<text text-anchor="middle" x="1062.5" y="-302.3" font-family="Times,serif" font-size="14.00">BIGBED</text>
</g>
<!-- BIGBED&#45;&gt;BED -->
<g id="edge60" class="edge"><title>BIGBED&#45;&gt;BED</title>
<path fill="none" stroke="black" d="M1070.1,-287.7C1073.7,-279.73 1077.9,-270.1 1081.9,-261.26"/>
<polygon fill="black" stroke="black" points="1085.11,-262.665 1085.9,-252.1 1078.69,-259.864 1085.11,-262.665"/>
</g>
<!-- BIGBED&#45;&gt;WIGGLE -->
<g id="edge61" class="edge"><title>BIGBED&#45;&gt;WIGGLE</title>
<path fill="none" stroke="black" d="M1059.6,-287.87C1055.5,-263.67 1048,-219.21 1043.1,-190.39"/>
<polygon fill="black" stroke="black" points="1046.5,-189.479 1041.4,-180.19 1039.59,-190.629 1046.5,-189.479"/>
</g>
<!-- CRAM -->
<g id="node28" class="node"><title>CRAM</title>
<polygon fill="yellow" stroke="black" points="640.98,-540 583.98,-540 583.98,-504 640.98,-504 640.98,-540"/>
<text text-anchor="middle" x="612.48" y="-518.3" font-family="Times,serif" font-size="14.00">CRAM</text>
</g>
<!-- CRAM&#45;&gt;FASTA -->
<g id="edge62" class="edge"><title>CRAM&#45;&gt;FASTA</title>
<path fill="none" stroke="black" d="M583.65,-515.66C529.69,-504.08 413.6,-471.4 354.48,-396 340.81,-378.56 336.42,-353.52 335.24,-334.44"/>
<polygon fill="black" stroke="black" points="338.731,-334.126 334.87,-324.26 331.736,-334.381 338.731,-334.126"/>
</g>
<!-- CRAM&#45;&gt;FASTQ -->
<g id="edge63" class="edge"><title>CRAM&#45;&gt;FASTQ</title>
<path fill="none" stroke="black" d="M583.91,-519.62C474.82,-513.7 87.025,-486.47 13.484,-396 -18.971,-356.07 15.444,-294.39 39.774,-260.13"/>
<polygon fill="black" stroke="black" points="42.6134,-262.177 45.696,-252.04 36.965,-258.042 42.6134,-262.177"/>
</g>
<!-- SAM -->
<g id="node29" class="node"><title>SAM</title>
<polygon fill="yellow" stroke="black" points="703.48,-468 649.48,-468 649.48,-432 703.48,-432 703.48,-468"/>
<text text-anchor="middle" x="676.48" y="-446.3" font-family="Times,serif" font-size="14.00">SAM</text>
</g>
<!-- CRAM&#45;&gt;SAM -->
<g id="edge64" class="edge"><title>CRAM&#45;&gt;SAM</title>
<path fill="none" stroke="black" d="M622.39,-503.7C629.33,-495.14 638.73,-484.66 647.8,-475.3"/>
<polygon fill="black" stroke="black" points="650.387,-477.662 654.95,-468.1 645.42,-472.729 650.387,-477.662"/>
</g>
<!-- BAM -->
<g id="node30" class="node"><title>BAM</title>
<polygon fill="orange" stroke="black" points="703.48,-396 649.48,-396 649.48,-360 703.48,-360 703.48,-396"/>
<text text-anchor="middle" x="676.48" y="-374.3" font-family="Times,serif" font-size="14.00">BAM</text>
</g>
<!-- CRAM&#45;&gt;BAM -->
<g id="edge65" class="edge"><title>CRAM&#45;&gt;BAM</title>
<path fill="none" stroke="black" d="M609.65,-503.71C611.78,-485.35 619.98,-455.77 631.48,-432 636.06,-422.54 642.17,-412.84 648.5,-404.37"/>
<polygon fill="black" stroke="black" points="651.383,-406.368 654.86,-396.36 645.901,-402.015 651.383,-406.368"/>
</g>
<!-- SAM&#45;&gt;CRAM -->
<g id="edge66" class="edge"><title>SAM&#45;&gt;CRAM</title>
<path fill="none" stroke="black" d="M666.74,-468.1C659.83,-476.64 650.45,-487.11 641.38,-496.48"/>
<polygon fill="black" stroke="black" points="638.776,-494.135 634.22,-503.7 643.747,-499.064 638.776,-494.135"/>
</g>
<!-- SAM&#45;&gt;BAM -->
<g id="edge67" class="edge"><title>SAM&#45;&gt;BAM</title>
<path fill="none" stroke="black" d="M670.57,-431.7C669.77,-423.98 669.55,-414.71 669.89,-406.11"/>
<polygon fill="black" stroke="black" points="673.384,-406.32 670.59,-396.1 666.401,-405.831 673.384,-406.32"/>
</g>
<!-- PAF -->
<g id="node31" class="node"><title>PAF</title>
<polygon fill="white" stroke="black" points="775.48,-396 721.48,-396 721.48,-360 775.48,-360 775.48,-396"/>
<text text-anchor="middle" x="748.48" y="-374.3" font-family="Times,serif" font-size="14.00">PAF</text>
</g>
<!-- SAM&#45;&gt;PAF -->
<g id="edge68" class="edge"><title>SAM&#45;&gt;PAF</title>
<path fill="none" stroke="black" d="M694.28,-431.7C703.09,-423.14 713.87,-412.66 723.49,-403.3"/>
<polygon fill="black" stroke="black" points="726.163,-405.582 730.89,-396.1 721.282,-400.565 726.163,-405.582"/>
</g>
<!-- BAM&#45;&gt;FASTA -->
<g id="edge69" class="edge"><title>BAM&#45;&gt;FASTA</title>
<path fill="none" stroke="black" d="M649.44,-371.45C589.53,-359.15 445.41,-329.57 375.23,-315.16"/>
<polygon fill="black" stroke="black" points="375.929,-311.731 365.43,-313.15 374.523,-318.588 375.929,-311.731"/>
</g>
<!-- BAM&#45;&gt;FASTQ -->
<g id="edge70" class="edge"><title>BAM&#45;&gt;FASTQ</title>
<path fill="none" stroke="black" d="M649.37,-375.28C586.5,-370.85 426.25,-356.98 296.48,-324 224.7,-305.75 144.73,-272.97 98.453,-252.69"/>
<polygon fill="black" stroke="black" points="99.6665,-249.4 89.105,-248.56 96.8376,-255.803 99.6665,-249.4"/>
</g>
<!-- BAM&#45;&gt;WIGGLE -->
<g id="edge71" class="edge"><title>BAM&#45;&gt;WIGGLE</title>
<path fill="none" stroke="black" d="M703.66,-363.11C706.59,-361.93 709.57,-360.86 712.48,-360 827.31,-326.04 886.14,-398.99 979.48,-324 1020.4,-291.14 1032.9,-227.2 1036.8,-190.56"/>
<polygon fill="black" stroke="black" points="1040.33,-190.394 1037.7,-180.13 1033.35,-189.792 1040.33,-190.394"/>
</g>
<!-- BAM&#45;&gt;CRAM -->
<g id="edge72" class="edge"><title>BAM&#45;&gt;CRAM</title>
<path fill="none" stroke="black" d="M670.71,-396.36C664.41,-406.35 655.59,-419.38 649.48,-432 639.82,-451.96 632.49,-476.02 626.38,-494.09"/>
<polygon fill="black" stroke="black" points="623.013,-493.115 623.01,-503.71 629.619,-495.429 623.013,-493.115"/>
</g>
<!-- BAM&#45;&gt;SAM -->
<g id="edge73" class="edge"><title>BAM&#45;&gt;SAM</title>
<path fill="none" stroke="black" d="M682.38,-396.1C683.18,-403.79 683.42,-413.05 683.09,-421.67"/>
<polygon fill="black" stroke="black" points="679.595,-421.483 682.4,-431.7 686.578,-421.964 679.595,-421.483"/>
</g>
<!-- BIGWIG -->
<g id="node32" class="node"><title>BIGWIG</title>
<polygon fill="white" stroke="black" points="874.48,-324 806.48,-324 806.48,-288 874.48,-288 874.48,-324"/>
<text text-anchor="middle" x="840.48" y="-302.3" font-family="Times,serif" font-size="14.00">BIGWIG</text>
</g>
<!-- BAM&#45;&gt;BIGWIG -->
<g id="edge74" class="edge"><title>BAM&#45;&gt;BIGWIG</title>
<path fill="none" stroke="black" d="M703.55,-364.05C706.55,-362.66 709.58,-361.29 712.48,-360 740.34,-347.66 771.98,-334.56 796.82,-324.46"/>
<polygon fill="black" stroke="black" points="798.382,-327.604 806.34,-320.61 795.757,-321.114 798.382,-327.604"/>
</g>
<!-- BEDGRAPH -->
<g id="node33" class="node"><title>BEDGRAPH</title>
<polygon fill="yellow" stroke="black" points="857.98,-252 768.98,-252 768.98,-216 857.98,-216 857.98,-252"/>
<text text-anchor="middle" x="813.48" y="-230.3" font-family="Times,serif" font-size="14.00">BEDGRAPH</text>
</g>
<!-- BAM&#45;&gt;BEDGRAPH -->
<g id="edge75" class="edge"><title>BAM&#45;&gt;BEDGRAPH</title>
<path fill="none" stroke="black" d="M703.7,-362.12C719.64,-352.57 739.52,-339.14 754.48,-324 772.99,-305.28 789.12,-279.94 799.82,-261.09"/>
<polygon fill="black" stroke="black" points="802.987,-262.595 804.76,-252.15 796.86,-259.21 802.987,-262.595"/>
</g>
<!-- COV -->
<g id="node34" class="node"><title>COV</title>
<polygon fill="white" stroke="black" points="846.48,-180 792.48,-180 792.48,-144 846.48,-144 846.48,-180"/>
<text text-anchor="middle" x="819.48" y="-158.3" font-family="Times,serif" font-size="14.00">COV</text>
</g>
<!-- BAM&#45;&gt;COV -->
<g id="edge76" class="edge"><title>BAM&#45;&gt;COV</title>
<path fill="none" stroke="black" d="M694.1,-359.61C703.24,-349.82 714.03,-336.98 721.48,-324 746.82,-279.87 731.06,-258.2 759.48,-216 766.9,-204.99 777.13,-194.83 787.04,-186.4"/>
<polygon fill="black" stroke="black" points="789.31,-189.065 794.86,-180.04 784.893,-183.634 789.31,-189.065"/>
</g>
<!-- TSV -->
<g id="node35" class="node"><title>TSV</title>
<polygon fill="white" stroke="black" points="640.48,-324 586.48,-324 586.48,-288 640.48,-288 640.48,-324"/>
<text text-anchor="middle" x="613.48" y="-302.3" font-family="Times,serif" font-size="14.00">TSV</text>
</g>
<!-- BAM&#45;&gt;TSV -->
<g id="edge77" class="edge"><title>BAM&#45;&gt;TSV</title>
<path fill="none" stroke="black" d="M660.91,-359.7C653.28,-351.22 643.96,-340.86 635.61,-331.58"/>
<polygon fill="black" stroke="black" points="638.17,-329.193 628.88,-324.1 632.967,-333.875 638.17,-329.193"/>
</g>
<!-- JSON -->
<g id="node36" class="node"><title>JSON</title>
<polygon fill="white" stroke="black" points="970.48,-324 916.48,-324 916.48,-288 970.48,-288 970.48,-324"/>
<text text-anchor="middle" x="943.48" y="-302.3" font-family="Times,serif" font-size="14.00">JSON</text>
</g>
<!-- BAM&#45;&gt;JSON -->
<g id="edge78" class="edge"><title>BAM&#45;&gt;JSON</title>
<path fill="none" stroke="black" d="M703.73,-363.33C706.65,-362.11 709.6,-360.97 712.48,-360 786.1,-335.25 808.08,-342.6 883.48,-324 891.01,-322.14 899.02,-320 906.66,-317.86"/>
<polygon fill="black" stroke="black" points="907.741,-321.191 916.41,-315.1 905.835,-314.456 907.741,-321.191"/>
</g>
<!-- BIGWIG&#45;&gt;WIGGLE -->
<g id="edge79" class="edge"><title>BIGWIG&#45;&gt;WIGGLE</title>
<path fill="none" stroke="black" d="M849.24,-287.66C860.03,-267.87 880.08,-235.7 905.48,-216 931.38,-195.92 965.86,-182.47 993.23,-174.14"/>
<polygon fill="black" stroke="black" points="994.374,-177.452 1003,-171.3 992.42,-170.731 994.374,-177.452"/>
</g>
<!-- BIGWIG&#45;&gt;BEDGRAPH -->
<g id="edge80" class="edge"><title>BIGWIG&#45;&gt;BEDGRAPH</title>
<path fill="none" stroke="black" d="M827.89,-287.7C824.08,-279.9 820.24,-270.51 817.25,-261.83"/>
<polygon fill="black" stroke="black" points="820.529,-260.589 814.19,-252.1 813.851,-262.689 820.529,-260.589"/>
</g>
<!-- BEDGRAPH&#45;&gt;WIGGLE -->
<g id="edge81" class="edge"><title>BEDGRAPH&#45;&gt;WIGGLE</title>
<path fill="none" stroke="black" d="M858.21,-219.09C897.31,-206.92 953.84,-189.33 993.13,-177.11"/>
<polygon fill="black" stroke="black" points="994.199,-180.443 1002.7,-174.12 992.111,-173.762 994.199,-180.443"/>
</g>
<!-- BEDGRAPH&#45;&gt;BIGWIG -->
<g id="edge82" class="edge"><title>BEDGRAPH&#45;&gt;BIGWIG</title>
<path fill="none" stroke="black" d="M825.98,-252.1C829.79,-259.88 833.64,-269.26 836.64,-277.95"/>
<polygon fill="black" stroke="black" points="833.372,-279.225 839.73,-287.7 840.045,-277.11 833.372,-279.225"/>
</g>
<!-- BEDGRAPH&#45;&gt;COV -->
<g id="edge83" class="edge"><title>BEDGRAPH&#45;&gt;COV</title>
<path fill="none" stroke="black" d="M814.97,-215.7C815.63,-207.98 816.42,-198.71 817.16,-190.11"/>
<polygon fill="black" stroke="black" points="820.651,-190.363 818.02,-180.1 813.677,-189.764 820.651,-190.363"/>
</g>
<!-- CSV -->
<g id="node37" class="node"><title>CSV</title>
<polygon fill="yellow" stroke="black" points="706.48,-252 652.48,-252 652.48,-216 706.48,-216 706.48,-252"/>
<text text-anchor="middle" x="679.48" y="-230.3" font-family="Times,serif" font-size="14.00">CSV</text>
</g>
<!-- TSV&#45;&gt;CSV -->
<g id="edge84" class="edge"><title>TSV&#45;&gt;CSV</title>
<path fill="none" stroke="black" d="M623.88,-287.7C631.07,-279.14 640.77,-268.66 650.11,-259.3"/>
<polygon fill="black" stroke="black" points="652.766,-261.598 657.46,-252.1 647.867,-256.598 652.766,-261.598"/>
</g>
<!-- YAML -->
<g id="node38" class="node"><title>YAML</title>
<polygon fill="white" stroke="black" points="971.98,-252 914.98,-252 914.98,-216 971.98,-216 971.98,-252"/>
<text text-anchor="middle" x="943.48" y="-230.3" font-family="Times,serif" font-size="14.00">YAML</text>
</g>
<!-- JSON&#45;&gt;YAML -->
<g id="edge85" class="edge"><title>JSON&#45;&gt;YAML</title>
<path fill="none" stroke="black" d="M937.57,-287.7C936.77,-279.98 936.55,-270.71 936.89,-262.11"/>
<polygon fill="black" stroke="black" points="940.384,-262.32 937.59,-252.1 933.401,-261.831 940.384,-262.32"/>
</g>
<!-- CSV&#45;&gt;TSV -->
<g id="edge86" class="edge"><title>CSV&#45;&gt;TSV</title>
<path fill="none" stroke="black" d="M669.25,-252.1C662.1,-260.64 652.42,-271.11 643.08,-280.48"/>
<polygon fill="black" stroke="black" points="640.404,-278.202 635.71,-287.7 645.303,-283.202 640.404,-278.202"/>
</g>
<!-- XLS -->
<g id="node39" class="node"><title>XLS</title>
<polygon fill="white" stroke="black" points="774.48,-180 720.48,-180 720.48,-144 774.48,-144 774.48,-180"/>
<text text-anchor="middle" x="747.48" y="-158.3" font-family="Times,serif" font-size="14.00">XLS</text>
</g>
<!-- CSV&#45;&gt;XLS -->
<g id="edge87" class="edge"><title>CSV&#45;&gt;XLS</title>
<path fill="none" stroke="black" d="M690.38,-215.7C697.89,-207.05 708.01,-196.45 717.7,-187.03"/>
<polygon fill="black" stroke="black" points="720.147,-189.533 724.97,-180.1 715.317,-184.466 720.147,-189.533"/>
</g>
<!-- YAML&#45;&gt;JSON -->
<g id="edge88" class="edge"><title>YAML&#45;&gt;JSON</title>
<path fill="none" stroke="black" d="M949.38,-252.1C950.18,-259.79 950.42,-269.05 950.09,-277.67"/>
<polygon fill="black" stroke="black" points="946.595,-277.483 949.4,-287.7 953.578,-277.964 946.595,-277.483"/>
</g>
<!-- XLS&#45;&gt;CSV -->
<g id="edge89" class="edge"><title>XLS&#45;&gt;CSV</title>
<path fill="none" stroke="black" d="M736.76,-180.1C729.3,-188.72 719.19,-199.32 709.49,-208.76"/>
<polygon fill="black" stroke="black" points="707.033,-206.267 702.21,-215.7 711.863,-211.333 707.033,-206.267"/>
</g>
<!-- SRA -->
<g id="node40" class="node"><title>SRA</title>
<polygon fill="white" stroke="black" points="169.48,-324 115.48,-324 115.48,-288 169.48,-288 169.48,-324"/>
<text text-anchor="middle" x="142.48" y="-302.3" font-family="Times,serif" font-size="14.00">SRA</text>
</g>
<!-- SRA&#45;&gt;FASTQ -->
<g id="edge90" class="edge"><title>SRA&#45;&gt;FASTQ</title>
<path fill="none" stroke="black" d="M121.97,-287.7C111.61,-278.97 98.898,-268.24 87.645,-258.75"/>
<polygon fill="black" stroke="black" points="89.6646,-255.875 79.765,-252.1 85.15,-261.224 89.6646,-255.875"/>
</g>
<!-- GZ -->
<g id="node41" class="node"><title>GZ</title>
<polygon fill="white" stroke="black" points="816.48,-540 762.48,-540 762.48,-504 816.48,-504 816.48,-540"/>
<text text-anchor="middle" x="789.48" y="-518.3" font-family="Times,serif" font-size="14.00">GZ</text>
</g>
<!-- DSRC -->
<g id="node42" class="node"><title>DSRC</title>
<polygon fill="white" stroke="black" points="795.48,-468 741.48,-468 741.48,-432 795.48,-432 795.48,-468"/>
<text text-anchor="middle" x="768.48" y="-446.3" font-family="Times,serif" font-size="14.00">DSRC</text>
</g>
<!-- GZ&#45;&gt;DSRC -->
<g id="edge91" class="edge"><title>GZ&#45;&gt;DSRC</title>
<path fill="none" stroke="black" d="M778.38,-503.7C775.27,-495.98 772.26,-486.71 770.02,-478.11"/>
<polygon fill="black" stroke="black" points="773.371,-477.062 767.72,-468.1 766.548,-478.63 773.371,-477.062"/>
</g>
<!-- BZ2 -->
<g id="node43" class="node"><title>BZ2</title>
<polygon fill="white" stroke="black" points="867.48,-468 813.48,-468 813.48,-432 867.48,-432 867.48,-468"/>
<text text-anchor="middle" x="840.48" y="-446.3" font-family="Times,serif" font-size="14.00">BZ2</text>
</g>
<!-- GZ&#45;&gt;BZ2 -->
<g id="edge92" class="edge"><title>GZ&#45;&gt;BZ2</title>
<path fill="none" stroke="black" d="M796.18,-503.7C801.37,-495.39 808.54,-485.28 815.66,-476.14"/>
<polygon fill="black" stroke="black" points="818.587,-478.085 822.13,-468.1 813.134,-473.696 818.587,-478.085"/>
</g>
<!-- DSRC&#45;&gt;GZ -->
<g id="edge93" class="edge"><title>DSRC&#45;&gt;GZ</title>
<path fill="none" stroke="black" d="M779.51,-468.1C782.66,-475.88 785.7,-485.26 787.96,-493.95"/>
<polygon fill="black" stroke="black" points="784.551,-494.743 790.21,-503.7 791.372,-493.169 784.551,-494.743"/>
</g>
<!-- BZ2&#45;&gt;GZ -->
<g id="edge94" class="edge"><title>BZ2&#45;&gt;GZ</title>
<path fill="none" stroke="black" d="M833.92,-468.1C828.75,-476.38 821.6,-486.49 814.48,-495.64"/>
<polygon fill="black" stroke="black" points="811.541,-493.711 808.01,-503.7 816.999,-498.093 811.541,-493.711"/>
</g>
<!-- ODS -->
<g id="node44" class="node"><title>ODS</title>
<polygon fill="white" stroke="black" points="568.48,-324 514.48,-324 514.48,-288 568.48,-288 568.48,-324"/>
<text text-anchor="middle" x="541.48" y="-302.3" font-family="Times,serif" font-size="14.00">ODS</text>
</g>
<!-- ODS&#45;&gt;CSV -->
<g id="edge95" class="edge"><title>ODS&#45;&gt;CSV</title>
<path fill="none" stroke="black" d="M568.75,-291.17C590.01,-280.38 619.75,-265.3 643.05,-253.48"/>
<polygon fill="black" stroke="black" points="644.944,-256.444 652.28,-248.8 641.778,-250.201 644.944,-256.444"/>
</g>
<!-- MAF -->
<g id="node45" class="node"><title>MAF</title>
<polygon fill="white" stroke="black" points="713.48,-540 659.48,-540 659.48,-504 713.48,-504 713.48,-540"/>
<text text-anchor="middle" x="686.48" y="-518.3" font-family="Times,serif" font-size="14.00">MAF</text>
</g>
<!-- MAF&#45;&gt;SAM -->
<g id="edge96" class="edge"><title>MAF&#45;&gt;SAM</title>
<path fill="none" stroke="black" d="M684.01,-503.7C682.91,-495.98 681.59,-486.71 680.36,-478.11"/>
<polygon fill="black" stroke="black" points="683.809,-477.504 678.93,-468.1 676.879,-478.495 683.809,-477.504"/>
</g>
<!-- ABI -->
<g id="node46" class="node"><title>ABI</title>
<polygon fill="white" stroke="black" points="76.484,-396 22.484,-396 22.484,-360 76.484,-360 76.484,-396"/>
<text text-anchor="middle" x="49.484" y="-374.3" font-family="Times,serif" font-size="14.00">ABI</text>
</g>
<!-- ABI&#45;&gt;FASTA -->
<g id="edge97" class="edge"><title>ABI&#45;&gt;FASTA</title>
<path fill="none" stroke="black" d="M76.648,-370.35C127.42,-357.92 236.9,-331.13 295.89,-316.69"/>
<polygon fill="black" stroke="black" points="297.068,-320.005 305.95,-314.23 295.405,-313.206 297.068,-320.005"/>
</g>
<!-- ABI&#45;&gt;FASTQ -->
<g id="edge98" class="edge"><title>ABI&#45;&gt;FASTQ</title>
<path fill="none" stroke="black" d="M50.691,-359.87C52.395,-335.67 55.526,-291.21 57.555,-262.39"/>
<polygon fill="black" stroke="black" points="61.0621,-262.411 58.274,-252.19 54.0794,-261.919 61.0621,-262.411"/>
</g>
<!-- ABI&#45;&gt;QUAL -->
<g id="edge99" class="edge"><title>ABI&#45;&gt;QUAL</title>
<path fill="none" stroke="black" d="M41.353,-359.83C28.393,-330.12 5.9314,-267.37 20.484,-216 31.297,-177.83 57.426,-139.87 76.249,-115.97"/>
<polygon fill="black" stroke="black" points="79.0234,-118.105 82.566,-108.12 73.5699,-113.716 79.0234,-118.105"/>
</g>
<!-- GFA -->
<g id="node47" class="node"><title>GFA</title>
<polygon fill="white" stroke="black" points="307.48,-396 253.48,-396 253.48,-360 307.48,-360 307.48,-396"/>
<text text-anchor="middle" x="280.48" y="-374.3" font-family="Times,serif" font-size="14.00">GFA</text>
</g>
<!-- GFA&#45;&gt;FASTA -->
<g id="edge100" class="edge"><title>GFA&#45;&gt;FASTA</title>
<path fill="none" stroke="black" d="M294.08,-359.7C300.61,-351.39 308.55,-341.28 315.73,-332.14"/>
<polygon fill="black" stroke="black" points="318.622,-334.125 322.05,-324.1 313.118,-329.799 318.622,-334.125"/>
</g>
<!-- XLSX -->
<g id="node48" class="node"><title>XLSX</title>
<polygon fill="white" stroke="black" points="712.48,-324 658.48,-324 658.48,-288 712.48,-288 712.48,-324"/>
<text text-anchor="middle" x="685.48" y="-302.3" font-family="Times,serif" font-size="14.00">XLSX</text>
</g>
<!-- XLSX&#45;&gt;CSV -->
<g id="edge101" class="edge"><title>XLSX&#45;&gt;CSV</title>
<path fill="none" stroke="black" d="M684,-287.7C683.34,-279.98 682.55,-270.71 681.81,-262.11"/>
<polygon fill="black" stroke="black" points="685.293,-261.764 680.95,-252.1 678.319,-262.363 685.293,-261.764"/>
</g>
</g>
</svg>
